<?xml version="1.0" standalone="no"?>
<!DOCTYPE svg PUBLIC "-//W3C//DTD SVG 1.1//EN" "http://www.w3.org/Graphics/SVG/1.1/DTD/svg11.dtd" >
<svg xmlns="http://www.w3.org/2000/svg" xmlns:xlink="http://www.w3.org/1999/xlink" version="1.1">
<metadata>
Created by FontForge 20170924 at Tue Jul  4 03:01:25 2023
 By www-data
</metadata>
<defs>
<font id="BobaMonoRegular" horiz-adv-x="668" >
  <font-face 
    font-family="Boba Mono"
    font-weight="400"
    font-stretch="normal"
    units-per-em="1000"
    panose-1="0 0 0 0 0 0 0 0 0 0"
    ascent="800"
    descent="-200"
    x-height="480"
    cap-height="480"
    bbox="46 -96 910 768"
    underline-thickness="50"
    underline-position="-100"
    unicode-range="U+000A-FF3F"
  />
<missing-glyph horiz-adv-x="527" 
d="M50 700h427v-700h-427v700zM78 680l185 -309l186 309h-371zM251 350l-180 300v-601zM264 329l-185 -308h370zM276 350l181 -303v605z" />
    <glyph glyph-name=".notdef" horiz-adv-x="527" 
d="M50 700h427v-700h-427v700zM78 680l185 -309l186 309h-371zM251 350l-180 300v-601zM264 329l-185 -308h370zM276 350l181 -303v605z" />
    <glyph glyph-name=".null" horiz-adv-x="0" 
 />
    <glyph glyph-name=".null" horiz-adv-x="0" 
 />
    <glyph glyph-name="LF" unicode="&#xa;" horiz-adv-x="0" 
 />
    <glyph glyph-name="controlCR" unicode="&#xd;" horiz-adv-x="0" 
 />
    <glyph glyph-name="space" unicode=" " horiz-adv-x="338" 
 />
    <glyph glyph-name="exclam" unicode="!" horiz-adv-x="284" 
d="M190 0h-96c-26.5098 -0 -48 21.4902 -48 48s21.4902 48 48 48h96c26.5098 0 48 -21.4902 48 -48s-21.4902 -48 -48 -48zM190 480c26.5068 0 48 -21.4932 48 -48v-192c0 -26.5068 -21.4932 -48 -48 -48s-48 21.4932 -48 48s-21.4932 48 -48 48s-48 21.4932 -48 48v96
c0 26.5068 21.4932 48 48 48h96z" />
    <glyph glyph-name="quotedbl" unicode="&#x22;" horiz-adv-x="572" 
d="M190 480c26.5068 0 48 -21.4932 48 -48v-192c0 -26.5068 -21.4932 -48 -48 -48s-48 21.4932 -48 48s-21.4932 48 -48 48s-48 21.4932 -48 48v96c0 26.5068 21.4932 48 48 48h96zM478 480c26.5068 0 48 -21.4932 48 -48v-192c0 -26.5068 -21.4932 -48 -48 -48
s-48 21.4932 -48 48s-21.4932 48 -48 48s-48 21.4932 -48 48v96c0 26.5068 21.4932 48 48 48h96z" />
    <glyph glyph-name="quotedbl" unicode="&#x201c;" horiz-adv-x="572" 
d="M190 480c26.5068 0 48 -21.4932 48 -48v-192c0 -26.5068 -21.4932 -48 -48 -48s-48 21.4932 -48 48s-21.4932 48 -48 48s-48 21.4932 -48 48v96c0 26.5068 21.4932 48 48 48h96zM478 480c26.5068 0 48 -21.4932 48 -48v-192c0 -26.5068 -21.4932 -48 -48 -48
s-48 21.4932 -48 48s-21.4932 48 -48 48s-48 21.4932 -48 48v96c0 26.5068 21.4932 48 48 48h96z" />
    <glyph glyph-name="numbersign" unicode="#" horiz-adv-x="572" 
d="M478 192c26.5068 0 48 -21.4932 48 -48s-21.4932 -48 -48 -48s-48 -21.4932 -48 -48s-21.4932 -48 -48 -48s-48 21.4932 -48 48s-21.4932 48 -48 48s-48 -21.4932 -48 -48s-21.4932 -48 -48 -48s-48 21.4932 -48 48s-21.4932 48 -48 48s-48 21.4932 -48 48
s21.4932 48 48 48s48 21.4932 48 48s-21.4932 48 -48 48s-48 21.4932 -48 48s21.4932 48 48 48s48 21.4932 48 48s21.4932 48 48 48s48 -21.4932 48 -48s21.4932 -48 48 -48s48 21.4932 48 48s21.4932 48 48 48s48 -21.4932 48 -48s21.4932 -48 48 -48s48 -21.4932 48 -48
s-21.4932 -48 -48 -48s-48 -21.4932 -48 -48s21.4932 -48 48 -48zM286 192c26.5068 0 48 21.4932 48 48s-21.4932 48 -48 48s-48 -21.4932 -48 -48s21.4932 -48 48 -48z" />
    <glyph glyph-name="dollar" unicode="$" 
d="M574 288c26.5068 0 48 -21.4932 48 -48v-192c0 -26.5068 -21.4932 -48 -48 -48h-480c-26.5068 -0 -48 21.4932 -48 48s21.4932 48 48 48h96c26.5068 0 48 21.4932 48 48s-21.4932 48 -48 48h-96c-26.5068 0 -48 21.4932 -48 48v192c0 26.5068 21.4932 48 48 48h480
c26.5068 0 48 -21.4932 48 -48s-21.4932 -48 -48 -48h-96c-26.5068 0 -48 -21.4932 -48 -48s21.4932 -48 48 -48h96zM190 288c26.5068 0 48 21.4932 48 48s-21.4932 48 -48 48s-48 -21.4932 -48 -48s21.4932 -48 48 -48zM478 96c26.5068 0 48 21.4932 48 48
s-21.4932 48 -48 48s-48 -21.4932 -48 -48s21.4932 -48 48 -48z" />
    <glyph glyph-name="percent" unicode="%" 
d="M94 384c-26.5068 0 -48 21.4932 -48 48s21.4932 48 48 48h96c26.5068 0 48 -21.4932 48 -48s-21.4932 -48 -48 -48h-96zM478 288c-26.5068 0 -48 -21.4932 -48 -48s-21.4932 -48 -48 -48s-48 -21.4932 -48 -48s-21.4932 -48 -48 -48s-48 -21.4932 -48 -48
s-21.4932 -48 -48 -48h-96c-26.5068 -0 -48 21.4932 -48 48s21.4932 48 48 48s48 21.4932 48 48s21.4932 48 48 48s48 21.4932 48 48s21.4932 48 48 48s48 21.4932 48 48s21.4932 48 48 48s48 21.4932 48 48s21.4932 48 48 48h96c26.5068 0 48 -21.4932 48 -48
s-21.4932 -48 -48 -48s-48 -21.4932 -48 -48s-21.4932 -48 -48 -48zM574 0h-96c-26.5098 -0 -48 21.4902 -48 48s21.4902 48 48 48h96c26.5098 0 48 -21.4902 48 -48s-21.4902 -48 -48 -48z" />
    <glyph glyph-name="ampersand" unicode="&#x26;" 
d="M574 191.957c-26.5068 0 -48 -21.4932 -48 -48s21.4932 -48 48 -48s48 -21.4932 48 -48s-21.4932 -48 -48 -48h-384c-26.5068 0 -48 21.4932 -48 48s-21.4932 48 -48 48s-48 21.4932 -48 48s21.4932 48 48 48s48 21.4932 48 48s-21.4932 48 -48 48s-48 21.4932 -48 48
s21.4932 48 48 48s48 21.4932 48 48s21.4932 48 48 48h192c26.5176 0 48 -21.4932 48 -48s21.4932 -48 48 -48s48 -21.4932 48 -48s21.4932 -48 48 -48s48 -21.4932 48 -48s-21.4932 -48 -48 -48zM286 95.957c26.5068 0 48 21.4932 48 48s-21.4932 48 -48 48
s-48 -21.4932 -48 -48s21.4932 -48 48 -48zM286 287.957c26.5068 0 48 21.4932 48 48s-21.4932 48 -48 48s-48 -21.4932 -48 -48s21.4932 -48 48 -48z" />
    <glyph glyph-name="quotesingle" unicode="'" horiz-adv-x="284" 
d="M190 480c26.5068 0 48 -21.4932 48 -48v-192c0 -26.5068 -21.4932 -48 -48 -48s-48 21.4932 -48 48s-21.4932 48 -48 48s-48 21.4932 -48 48v96c0 26.5068 21.4932 48 48 48h96z" />
    <glyph glyph-name="quotesingle" unicode="&#x2018;" horiz-adv-x="284" 
d="M190 480c26.5068 0 48 -21.4932 48 -48v-192c0 -26.5068 -21.4932 -48 -48 -48s-48 21.4932 -48 48s-21.4932 48 -48 48s-48 21.4932 -48 48v96c0 26.5068 21.4932 48 48 48h96z" />
    <glyph glyph-name="parenleft" unicode="(" horiz-adv-x="284" 
d="M190 96c26.5068 0 48 -21.4932 48 -48s-21.4932 -48 -48 -48h-96c-26.5068 -0 -48 21.4932 -48 48v384c0 26.5068 21.4932 48 48 48h96c26.5068 0 48 -21.4932 48 -48s-21.4932 -48 -48 -48s-48 -21.4932 -48 -48v-192c0 -26.5068 21.4932 -48 48 -48z" />
    <glyph glyph-name="parenright" unicode=")" horiz-adv-x="284" 
d="M190 480c26.5068 0 48 -21.4932 48 -48v-384c0 -26.5068 -21.4932 -48 -48 -48h-96c-26.5068 -0 -48 21.4932 -48 48s21.4932 48 48 48s48 21.4932 48 48v192c0 26.5068 -21.4932 48 -48 48s-48 21.4932 -48 48s21.4932 48 48 48h96z" />
    <glyph glyph-name="asterisk" unicode="*" 
d="M574 192c26.5068 0 48 -21.4932 48 -48s-21.4932 -48 -48 -48h-96c-26.5068 0 -48 21.4932 -48 48s-21.4932 48 -48 48h-96c-26.5068 0 -48 -21.4932 -48 -48s-21.4932 -48 -48 -48h-96c-26.5068 0 -48 21.4932 -48 48s21.4932 48 48 48s48 21.4932 48 48
s-21.4932 48 -48 48s-48 21.4932 -48 48s21.4932 48 48 48h96c26.5068 0 48 21.4932 48 48s21.4932 48 48 48h96c26.5068 0 48 -21.4932 48 -48s21.4932 -48 48 -48h96c26.5068 0 48 -21.4932 48 -48s-21.4932 -48 -48 -48s-48 -21.4932 -48 -48s21.4932 -48 48 -48z" />
    <glyph glyph-name="plus" unicode="+" 
d="M574 288c26.5068 0 48 -21.4932 48 -48s-21.4932 -48 -48 -48h-96c-26.5068 0 -48 -21.4932 -48 -48s-21.4932 -48 -48 -48h-96c-26.5068 0 -48 21.4932 -48 48s-21.4932 48 -48 48h-96c-26.5068 0 -48 21.4932 -48 48s21.4932 48 48 48h96c26.5068 0 48 21.4932 48 48
s21.4932 48 48 48h96c26.5068 0 48 -21.4932 48 -48s21.4932 -48 48 -48h96z" />
    <glyph glyph-name="comma" unicode="," horiz-adv-x="284" 
d="M190 96c26.5068 0 48 -21.4932 48 -48v-96c0 -26.5068 -21.4932 -48 -48 -48s-48 21.4932 -48 48s-21.4932 48 -48 48s-48 21.4932 -48 48s21.4932 48 48 48h96z" />
    <glyph glyph-name="hyphen" unicode="-" horiz-adv-x="476" 
d="M382 192h-288c-26.5098 0 -48 21.4902 -48 48s21.4902 48 48 48h288c26.5098 0 48 -21.4902 48 -48s-21.4902 -48 -48 -48z" />
    <glyph glyph-name="period" unicode="." horiz-adv-x="284" 
d="M190 0h-96c-26.5098 -0 -48 21.4902 -48 48s21.4902 48 48 48h96c26.5098 0 48 -21.4902 48 -48s-21.4902 -48 -48 -48z" />
    <glyph glyph-name="slash" unicode="/" horiz-adv-x="476" 
d="M382 480c26.5068 0 48 -21.4932 48 -48v-96c0 -26.5068 -21.4932 -48 -48 -48s-48 -21.4932 -48 -48s-21.4932 -48 -48 -48s-48 -21.4932 -48 -48s-21.4932 -48 -48 -48s-48 -21.4932 -48 -48s-21.4932 -48 -48 -48s-48 21.4932 -48 48v96c0 26.5068 21.4932 48 48 48
s48 21.4932 48 48s21.4932 48 48 48s48 21.4932 48 48s21.4932 48 48 48s48 21.4932 48 48s21.4932 48 48 48z" />
    <glyph glyph-name="zero" unicode="0" 
d="M478 480c26.5068 0 48 -21.4932 48 -48s21.4932 -48 48 -48s48 -21.4932 48 -48v-192c0 -26.5068 -21.4932 -48 -48 -48s-48 -21.4932 -48 -48s-21.4932 -48 -48 -48h-288c-26.5068 -0 -48 21.4932 -48 48s-21.4932 48 -48 48s-48 21.4932 -48 48v192
c0 26.5068 21.4932 48 48 48s48 21.4932 48 48s21.4932 48 48 48h288zM382 96c26.5068 0 48 21.4932 48 48s-21.4932 48 -48 48h-96c-26.5068 0 -48 -21.4932 -48 -48s21.4932 -48 48 -48h96zM382 288c26.5068 0 48 21.4932 48 48s-21.4932 48 -48 48h-96
c-26.5068 0 -48 -21.4932 -48 -48s21.4932 -48 48 -48h96z" />
    <glyph glyph-name="one" unicode="1" 
d="M430 432v-288c0 -26.5068 21.4932 -48 48 -48h96c26.5068 0 48 -21.4932 48 -48s-21.4932 -48 -48 -48h-480c-26.5068 -0 -48 21.4932 -48 48s21.4932 48 48 48h96c26.5068 0 48 21.4932 48 48v96c0 26.5068 -21.4932 48 -48 48h-96c-26.5068 0 -48 21.4932 -48 48
s21.4932 48 48 48s48 21.4932 48 48s21.4932 48 48 48h192c26.5068 0 48 -21.4932 48 -48z" />
    <glyph glyph-name="two" unicode="2" 
d="M478 480c26.5068 0 48 -21.4932 48 -48s21.4932 -48 48 -48s48 -21.4932 48 -48v-96c0 -26.5068 -21.4932 -48 -48 -48h-288c-26.5068 0 -48 -21.4932 -48 -48s21.4932 -48 48 -48h288c26.5068 0 48 -21.4932 48 -48s-21.4932 -48 -48 -48h-480
c-26.5068 -0 -48 21.4932 -48 48v96c0 26.5068 21.4932 48 48 48s48 21.4932 48 48s21.4932 48 48 48h192c26.5068 0 48 21.4932 48 48s-21.4932 48 -48 48h-288c-26.5068 0 -48 21.4932 -48 48s21.4932 48 48 48h384z" />
    <glyph glyph-name="three" unicode="3" 
d="M478 480c26.5068 0 48 -21.4932 48 -48s21.4932 -48 48 -48s48 -21.4932 48 -48s-21.4932 -48 -48 -48s-48 -21.4932 -48 -48s21.4932 -48 48 -48s48 -21.4932 48 -48s-21.4932 -48 -48 -48s-48 -21.4932 -48 -48s-21.4932 -48 -48 -48h-384
c-26.5068 -0 -48 21.4932 -48 48s21.4932 48 48 48h288c26.5068 0 48 21.4932 48 48s-21.4932 48 -48 48h-96c-26.5068 0 -48 21.4932 -48 48s21.4932 48 48 48h96c26.5068 0 48 21.4932 48 48s-21.4932 48 -48 48h-288c-26.5068 0 -48 21.4932 -48 48s21.4932 48 48 48h384
z" />
    <glyph glyph-name="four" unicode="4" 
d="M478 480c26.5068 0 48 -21.4932 48 -48v-192c0 -26.5068 21.4932 -48 48 -48s48 -21.4932 48 -48s-21.4932 -48 -48 -48s-48 -21.4932 -48 -48s-21.4932 -48 -48 -48h-96c-26.5068 -0 -48 21.4932 -48 48s-21.4932 48 -48 48h-192c-26.5068 0 -48 21.4932 -48 48v96
c0 26.5068 21.4932 48 48 48s48 21.4932 48 48s21.4932 48 48 48h96c26.5068 0 48 21.4932 48 48s21.4932 48 48 48h96zM238 240c0 -26.5068 21.4932 -48 48 -48s48 21.4932 48 48s-21.4932 48 -48 48s-48 -21.4932 -48 -48z" />
    <glyph glyph-name="five" unicode="5" 
d="M94 480h480c26.5068 0 48 -21.4932 48 -48s-21.4932 -48 -48 -48h-288c-26.5068 0 -48 -21.4932 -48 -48s21.4932 -48 48 -48h288c26.5068 0 48 -21.4932 48 -48v-96c0 -26.5068 -21.4932 -48 -48 -48s-48 -21.4932 -48 -48s-21.4932 -48 -48 -48h-384
c-26.5068 -0 -48 21.4932 -48 48s21.4932 48 48 48h288c26.5068 0 48 21.4932 48 48s-21.4932 48 -48 48h-192c-26.5068 0 -48 21.4932 -48 48s-21.4932 48 -48 48s-48 21.4932 -48 48v96c0 26.5068 21.4932 48 48 48z" />
    <glyph glyph-name="six" unicode="6" 
d="M94 384c26.5068 0 48 21.4932 48 48s21.4932 48 48 48h384c26.5068 0 48 -21.4932 48 -48s-21.4932 -48 -48 -48h-288c-26.5068 0 -48 -21.4932 -48 -48s21.4932 -48 48 -48h288c26.5068 0 48 -21.4932 48 -48v-96c0 -26.5068 -21.4932 -48 -48 -48s-48 -21.4932 -48 -48
s-21.4932 -48 -48 -48h-288c-26.5068 -0 -48 21.4932 -48 48s-21.4932 48 -48 48s-48 21.4932 -48 48v192c0 26.5068 21.4932 48 48 48zM430 144c0 26.5068 -21.4932 48 -48 48h-96c-26.5068 0 -48 -21.4932 -48 -48s21.4932 -48 48 -48h96c26.5068 0 48 21.4932 48 48z" />
    <glyph glyph-name="seven" unicode="7" 
d="M478 480c26.5068 0 48 -21.4932 48 -48s21.4932 -48 48 -48s48 -21.4932 48 -48v-96c0 -26.5068 -21.4932 -48 -48 -48h-192c-26.5068 0 -48 -21.4932 -48 -48v-96c0 -26.5068 -21.4932 -48 -48 -48h-96c-26.5068 -0 -48 21.4932 -48 48v96c0 26.5068 21.4932 48 48 48
s48 21.4932 48 48s21.4932 48 48 48h96c26.5068 0 48 21.4932 48 48s-21.4932 48 -48 48h-288c-26.5068 0 -48 21.4932 -48 48s21.4932 48 48 48h384z" />
    <glyph glyph-name="eight" unicode="8" 
d="M622 336c0 -26.5068 -21.4932 -48 -48 -48s-48 -21.4932 -48 -48s21.4932 -48 48 -48s48 -21.4932 48 -48v-96c0 -26.5068 -21.4932 -48 -48 -48h-480c-26.5068 -0 -48 21.4932 -48 48v96c0 26.5068 21.4932 48 48 48s48 21.4932 48 48s-21.4932 48 -48 48
s-48 21.4932 -48 48v96c0 26.5068 21.4932 48 48 48h480c26.5068 0 48 -21.4932 48 -48v-96zM382 96c26.5068 0 48 21.4932 48 48s-21.4932 48 -48 48h-96c-26.5068 0 -48 -21.4932 -48 -48s21.4932 -48 48 -48h96zM238 336c0 -26.5068 21.4932 -48 48 -48h96
c26.5068 0 48 21.4932 48 48s-21.4932 48 -48 48h-96c-26.5068 0 -48 -21.4932 -48 -48z" />
    <glyph glyph-name="nine" unicode="9" 
d="M478 480c26.5068 0 48 -21.4932 48 -48s21.4932 -48 48 -48s48 -21.4932 48 -48v-192c0 -26.5068 -21.4932 -48 -48 -48s-48 -21.4932 -48 -48s-21.4932 -48 -48 -48h-384c-26.5068 -0 -48 21.4932 -48 48s21.4932 48 48 48h288c26.5068 0 48 21.4932 48 48
s-21.4932 48 -48 48h-288c-26.5068 0 -48 21.4932 -48 48v96c0 26.5068 21.4932 48 48 48s48 21.4932 48 48s21.4932 48 48 48h288zM382 288c26.5068 0 48 21.4932 48 48s-21.4932 48 -48 48h-96c-26.5068 0 -48 -21.4932 -48 -48s21.4932 -48 48 -48h96z" />
    <glyph glyph-name="colon" unicode=":" horiz-adv-x="284" 
d="M190 0h-96c-26.5098 -0 -48 21.4902 -48 48s21.4902 48 48 48h96c26.5098 0 48 -21.4902 48 -48s-21.4902 -48 -48 -48zM94 288c-26.5068 0 -48 21.4932 -48 48s21.4932 48 48 48h96c26.5068 0 48 -21.4932 48 -48s-21.4932 -48 -48 -48h-96z" />
    <glyph glyph-name="semicolon" unicode=";" horiz-adv-x="284" 
d="M94 288c-26.5068 0 -48 21.4932 -48 48s21.4932 48 48 48h96c26.5068 0 48 -21.4932 48 -48s-21.4932 -48 -48 -48h-96zM190 96c26.5068 0 48 -21.4932 48 -48v-96c0 -26.5068 -21.4932 -48 -48 -48s-48 21.4932 -48 48s-21.4932 48 -48 48s-48 21.4932 -48 48
s21.4932 48 48 48h96z" />
    <glyph glyph-name="less" unicode="&#x3c;" horiz-adv-x="380" 
d="M286 480c26.5068 0 48 -21.4932 48 -48v-96c0 -26.5068 -21.4932 -48 -48 -48s-48 -21.4932 -48 -48s21.4932 -48 48 -48s48 -21.4932 48 -48v-96c0 -26.5068 -21.4932 -48 -48 -48s-48 21.4932 -48 48s-21.4932 48 -48 48s-48 21.4932 -48 48s-21.4932 48 -48 48
s-48 21.4932 -48 48s21.4932 48 48 48s48 21.4932 48 48s21.4932 48 48 48s48 21.4932 48 48s21.4932 48 48 48z" />
    <glyph glyph-name="equal" unicode="=" horiz-adv-x="476" 
d="M94 288c-26.5068 0 -48 21.4932 -48 48s21.4932 48 48 48h288c26.5068 0 48 -21.4932 48 -48s-21.4932 -48 -48 -48h-288zM382 96h-288c-26.5098 0 -48 21.4902 -48 48s21.4902 48 48 48h288c26.5098 0 48 -21.4902 48 -48s-21.4902 -48 -48 -48z" />
    <glyph glyph-name="greater" unicode="&#x3e;" horiz-adv-x="380" 
d="M286 288c26.5068 0 48 -21.4932 48 -48s-21.4932 -48 -48 -48s-48 -21.4932 -48 -48s-21.4932 -48 -48 -48s-48 -21.4932 -48 -48s-21.4932 -48 -48 -48s-48 21.4932 -48 48v96c0 26.5068 21.4932 48 48 48s48 21.4932 48 48s-21.4932 48 -48 48s-48 21.4932 -48 48v96
c0 26.5068 21.4932 48 48 48s48 -21.4932 48 -48s21.4932 -48 48 -48s48 -21.4932 48 -48s21.4932 -48 48 -48z" />
    <glyph glyph-name="question" unicode="?" 
d="M574 384c26.5068 0 48 -21.4932 48 -48v-96c0 -26.5068 -21.4932 -48 -48 -48h-288c-26.5068 0 -48 21.4932 -48 48s21.4932 48 48 48h96c26.5068 0 48 21.4932 48 48s-21.4932 48 -48 48h-288c-26.5068 0 -48 21.4932 -48 48s21.4932 48 48 48h384
c26.5068 0 48 -21.4932 48 -48s21.4932 -48 48 -48zM382 0h-96c-26.5098 -0 -48 21.4902 -48 48s21.4902 48 48 48h96c26.5098 0 48 -21.4902 48 -48s-21.4902 -48 -48 -48z" />
    <glyph glyph-name="at" unicode="@" 
d="M574 480c26.5068 0 48 -21.4932 48 -48v-384c0 -26.5068 -21.4932 -48 -48 -48h-192c-26.5068 -0 -48 21.4932 -48 48s-21.4932 48 -48 48s-48 21.4932 -48 48v96c0 26.5068 21.4932 48 48 48h96c26.5068 0 48 -21.4932 48 -48v-96c0 -26.5068 21.4932 -48 48 -48
s48 21.4932 48 48v192c0 26.5068 -21.4932 48 -48 48h-288c-26.5068 0 -48 -21.4932 -48 -48v-192c0 -26.5068 21.4932 -48 48 -48s48 -21.4932 48 -48s-21.4932 -48 -48 -48h-96c-26.5068 -0 -48 21.4932 -48 48v384c0 26.5068 21.4932 48 48 48h480z" />
    <glyph glyph-name="A" unicode="A" 
d="M190 480h384c26.5068 0 48 -21.4932 48 -48v-384c0 -26.5068 -21.4932 -48 -48 -48h-96c-26.5068 -0 -48 21.4932 -48 48v96c0 26.5068 -21.4932 48 -48 48h-96c-26.5068 0 -48 -21.4932 -48 -48v-96c0 -26.5068 -21.4932 -48 -48 -48h-96
c-26.5068 -0 -48 21.4932 -48 48v288c0 26.5068 21.4932 48 48 48s48 21.4932 48 48s21.4932 48 48 48zM238 336c0 -26.5068 21.4932 -48 48 -48h96c26.5068 0 48 21.4932 48 48s-21.4932 48 -48 48h-96c-26.5068 0 -48 -21.4932 -48 -48z" />
    <glyph glyph-name="A" unicode="&#xc5;" 
d="M190 480h384c26.5068 0 48 -21.4932 48 -48v-384c0 -26.5068 -21.4932 -48 -48 -48h-96c-26.5068 -0 -48 21.4932 -48 48v96c0 26.5068 -21.4932 48 -48 48h-96c-26.5068 0 -48 -21.4932 -48 -48v-96c0 -26.5068 -21.4932 -48 -48 -48h-96
c-26.5068 -0 -48 21.4932 -48 48v288c0 26.5068 21.4932 48 48 48s48 21.4932 48 48s21.4932 48 48 48zM238 336c0 -26.5068 21.4932 -48 48 -48h96c26.5068 0 48 21.4932 48 48s-21.4932 48 -48 48h-96c-26.5068 0 -48 -21.4932 -48 -48z" />
    <glyph glyph-name="B" unicode="B" 
d="M94 480h480c26.5068 0 48 -21.4932 48 -48v-96c0 -26.5068 -21.4932 -48 -48 -48s-48 -21.4932 -48 -48s21.4932 -48 48 -48s48 -21.4932 48 -48v-96c0 -26.5068 -21.4932 -48 -48 -48h-480c-26.5068 -0 -48 21.4932 -48 48v384c0 26.5068 21.4932 48 48 48zM382 96
c26.5068 0 48 21.4932 48 48s-21.4932 48 -48 48h-96c-26.5068 0 -48 -21.4932 -48 -48s21.4932 -48 48 -48h96zM382 288c26.5068 0 48 21.4932 48 48s-21.4932 48 -48 48h-96c-26.5068 0 -48 -21.4932 -48 -48s21.4932 -48 48 -48h96z" />
    <glyph glyph-name="C" unicode="C" 
d="M142 432c0 26.5068 21.4932 48 48 48h384c26.5068 0 48 -21.4932 48 -48v-96c0 -26.5068 -21.4932 -48 -48 -48h-96c-26.5068 0 -48 21.4932 -48 48s-21.4932 48 -48 48h-96c-26.5068 0 -48 -21.4932 -48 -48v-192c0 -26.5068 21.4932 -48 48 -48h96
c26.5068 0 48 21.4932 48 48s21.4932 48 48 48h96c26.5068 0 48 -21.4932 48 -48v-96c0 -26.5068 -21.4932 -48 -48 -48h-384c-26.5068 -0 -48 21.4932 -48 48s-21.4932 48 -48 48s-48 21.4932 -48 48v192c0 26.5068 21.4932 48 48 48s48 21.4932 48 48z" />
    <glyph glyph-name="C" unicode="&#xc7;" 
d="M142 432c0 26.5068 21.4932 48 48 48h384c26.5068 0 48 -21.4932 48 -48v-96c0 -26.5068 -21.4932 -48 -48 -48h-96c-26.5068 0 -48 21.4932 -48 48s-21.4932 48 -48 48h-96c-26.5068 0 -48 -21.4932 -48 -48v-192c0 -26.5068 21.4932 -48 48 -48h96
c26.5068 0 48 21.4932 48 48s21.4932 48 48 48h96c26.5068 0 48 -21.4932 48 -48v-96c0 -26.5068 -21.4932 -48 -48 -48h-384c-26.5068 -0 -48 21.4932 -48 48s-21.4932 48 -48 48s-48 21.4932 -48 48v192c0 26.5068 21.4932 48 48 48s48 21.4932 48 48z" />
    <glyph glyph-name="D" unicode="D" 
d="M526 432c0 -26.5068 21.4932 -48 48 -48s48 -21.4932 48 -48v-192c0 -26.5068 -21.4932 -48 -48 -48s-48 -21.4932 -48 -48s-21.4932 -48 -48 -48h-384c-26.5068 -0 -48 21.4932 -48 48v384c0 26.5068 21.4932 48 48 48h384c26.5068 0 48 -21.4932 48 -48zM238 144
c0 -26.5068 21.4932 -48 48 -48h96c26.5068 0 48 21.4932 48 48v192c0 26.5068 -21.4932 48 -48 48h-96c-26.5068 0 -48 -21.4932 -48 -48v-192z" />
    <glyph glyph-name="E" unicode="E" 
d="M190 480h384c26.5068 0 48 -21.4932 48 -48v-96c0 -26.5068 -21.4932 -48 -48 -48s-48 21.4932 -48 48s-21.4932 48 -48 48h-192c-26.5068 0 -48 -21.4932 -48 -48s21.4932 -48 48 -48h96c26.5068 0 48 -21.4932 48 -48s-21.4932 -48 -48 -48h-96
c-26.5068 0 -48 -21.4932 -48 -48s21.4932 -48 48 -48h192c26.5068 0 48 21.4932 48 48s21.4932 48 48 48s48 -21.4932 48 -48v-96c0 -26.5068 -21.4932 -48 -48 -48h-384c-26.5068 -0 -48 21.4932 -48 48s-21.4932 48 -48 48s-48 21.4932 -48 48v192
c0 26.5068 21.4932 48 48 48s48 21.4932 48 48s21.4932 48 48 48z" />
    <glyph glyph-name="F" unicode="F" 
d="M622 432c0 -26.5068 -21.4932 -48 -48 -48h-288c-26.5068 0 -48 -21.4932 -48 -48s21.4932 -48 48 -48h192c26.5068 0 48 -21.4932 48 -48s-21.4932 -48 -48 -48h-192c-26.5068 0 -48 -21.4932 -48 -48v-96c0 -26.5068 -21.4932 -48 -48 -48s-48 21.4932 -48 48
s-21.4932 48 -48 48s-48 21.4932 -48 48v288c0 26.5068 21.4932 48 48 48h480c26.5068 0 48 -21.4932 48 -48z" />
    <glyph glyph-name="G" unicode="G" 
d="M622 432c0 -26.5068 -21.4932 -48 -48 -48h-288c-26.5068 0 -48 -21.4932 -48 -48v-192c0 -26.5068 21.4932 -48 48 -48h96c26.5068 0 48 21.4932 48 48s-21.4932 48 -48 48s-48 21.4932 -48 48s21.4932 48 48 48h192c26.5068 0 48 -21.4932 48 -48v-192
c0 -26.5068 -21.4932 -48 -48 -48h-480c-26.5068 -0 -48 21.4932 -48 48v288c0 26.5068 21.4932 48 48 48s48 21.4932 48 48s21.4932 48 48 48h384c26.5068 0 48 -21.4932 48 -48z" />
    <glyph glyph-name="H" unicode="H" 
d="M574 0h-96c-26.5068 -0 -48 21.4932 -48 48v96c0 26.5068 -21.4932 48 -48 48h-96c-26.5068 0 -48 -21.4932 -48 -48v-96c0 -26.5068 -21.4932 -48 -48 -48h-96c-26.5068 -0 -48 21.4932 -48 48v288c0 26.5068 21.4932 48 48 48s48 21.4932 48 48s21.4932 48 48 48
s48 -21.4932 48 -48v-96c0 -26.5068 21.4932 -48 48 -48h96c26.5068 0 48 21.4932 48 48v96c0 26.5068 21.4932 48 48 48h96c26.5068 0 48 -21.4932 48 -48v-384c0 -26.5068 -21.4932 -48 -48 -48z" />
    <glyph glyph-name="I" unicode="I" 
d="M94 480h480c26.5068 0 48 -21.4932 48 -48v-96c0 -26.5068 -21.4932 -48 -48 -48s-48 21.4932 -48 48s-21.4932 48 -48 48s-48 -21.4932 -48 -48v-192c0 -26.5068 21.4932 -48 48 -48s48 21.4932 48 48s21.4932 48 48 48s48 -21.4932 48 -48v-96
c0 -26.5068 -21.4932 -48 -48 -48h-480c-26.5068 -0 -48 21.4932 -48 48v96c0 26.5068 21.4932 48 48 48s48 -21.4932 48 -48s21.4932 -48 48 -48s48 21.4932 48 48v192c0 26.5068 -21.4932 48 -48 48s-48 -21.4932 -48 -48s-21.4932 -48 -48 -48s-48 21.4932 -48 48v96
c0 26.5068 21.4932 48 48 48z" />
    <glyph glyph-name="J" unicode="J" 
d="M574 480c26.5068 0 48 -21.4932 48 -48s-21.4932 -48 -48 -48s-48 -21.4932 -48 -48v-288c0 -26.5068 -21.4932 -48 -48 -48h-384c-26.5068 -0 -48 21.4932 -48 48v96c0 26.5068 21.4932 48 48 48s48 -21.4932 48 -48s21.4932 -48 48 -48h96c26.5068 0 48 21.4932 48 48
v192c0 26.5068 -21.4932 48 -48 48h-96c-26.5068 0 -48 21.4932 -48 48s21.4932 48 48 48h384z" />
    <glyph glyph-name="K" unicode="K" 
d="M526 336c0 -26.5068 -21.4932 -48 -48 -48s-48 -21.4932 -48 -48s21.4932 -48 48 -48h96c26.5068 0 48 -21.4932 48 -48v-96c0 -26.5068 -21.4932 -48 -48 -48h-96c-26.5068 -0 -48 21.4932 -48 48s-21.4932 48 -48 48s-48 21.4932 -48 48s-21.4932 48 -48 48
s-48 -21.4932 -48 -48v-96c0 -26.5068 -21.4932 -48 -48 -48h-96c-26.5068 -0 -48 21.4932 -48 48v384c0 26.5068 21.4932 48 48 48h96c26.5068 0 48 -21.4932 48 -48v-96c0 -26.5068 21.4932 -48 48 -48s48 21.4932 48 48s21.4932 48 48 48s48 21.4932 48 48
s21.4932 48 48 48h96c26.5068 0 48 -21.4932 48 -48s-21.4932 -48 -48 -48s-48 -21.4932 -48 -48z" />
    <glyph glyph-name="L" unicode="L" 
d="M286 96h288c26.5068 0 48 -21.4932 48 -48s-21.4932 -48 -48 -48h-480c-26.5068 -0 -48 21.4932 -48 48v288c0 26.5068 21.4932 48 48 48s48 21.4932 48 48s21.4932 48 48 48s48 -21.4932 48 -48v-288c0 -26.5068 21.4932 -48 48 -48z" />
    <glyph glyph-name="M" unicode="M" 
d="M526 432c0 26.5068 21.4932 48 48 48s48 -21.4932 48 -48v-384c0 -26.5068 -21.4932 -48 -48 -48s-48 21.4932 -48 48v96c0 26.5068 -21.4932 48 -48 48s-48 -21.4932 -48 -48s-21.4932 -48 -48 -48h-96c-26.5068 0 -48 21.4932 -48 48s-21.4932 48 -48 48
s-48 -21.4932 -48 -48v-96c0 -26.5068 -21.4932 -48 -48 -48s-48 21.4932 -48 48v384c0 26.5068 21.4932 48 48 48s48 -21.4932 48 -48s21.4932 -48 48 -48s48 -21.4932 48 -48s21.4932 -48 48 -48h96c26.5068 0 48 21.4932 48 48s21.4932 48 48 48s48 21.4932 48 48z" />
    <glyph glyph-name="N" unicode="N" 
d="M430 432c0 26.5068 21.4932 48 48 48h96c26.5068 0 48 -21.4932 48 -48v-384c0 -26.5068 -21.4932 -48 -48 -48h-96c-26.5068 -0 -48 21.4932 -48 48s-21.4932 48 -48 48s-48 21.4932 -48 48s-21.4932 48 -48 48s-48 -21.4932 -48 -48v-96
c0 -26.5068 -21.4932 -48 -48 -48h-96c-26.5068 -0 -48 21.4932 -48 48v384c0 26.5068 21.4932 48 48 48h96c26.5068 0 48 -21.4932 48 -48s21.4932 -48 48 -48s48 -21.4932 48 -48s21.4932 -48 48 -48s48 21.4932 48 48v96z" />
    <glyph glyph-name="O" unicode="O" 
d="M190 480h384c26.5068 0 48 -21.4932 48 -48v-288c0 -26.5068 -21.4932 -48 -48 -48s-48 -21.4932 -48 -48s-21.4932 -48 -48 -48h-384c-26.5068 -0 -48 21.4932 -48 48v288c0 26.5068 21.4932 48 48 48s48 21.4932 48 48s21.4932 48 48 48zM238 144
c0 -26.5068 21.4932 -48 48 -48h96c26.5068 0 48 21.4932 48 48v192c0 26.5068 -21.4932 48 -48 48h-96c-26.5068 0 -48 -21.4932 -48 -48v-192z" />
    <glyph glyph-name="O" unicode="&#xd8;" 
d="M190 480h384c26.5068 0 48 -21.4932 48 -48v-288c0 -26.5068 -21.4932 -48 -48 -48s-48 -21.4932 -48 -48s-21.4932 -48 -48 -48h-384c-26.5068 -0 -48 21.4932 -48 48v288c0 26.5068 21.4932 48 48 48s48 21.4932 48 48s21.4932 48 48 48zM238 144
c0 -26.5068 21.4932 -48 48 -48h96c26.5068 0 48 21.4932 48 48v192c0 26.5068 -21.4932 48 -48 48h-96c-26.5068 0 -48 -21.4932 -48 -48v-192z" />
    <glyph glyph-name="P" unicode="P" 
d="M142 432c0 26.5068 21.4932 48 48 48h384c26.5068 0 48 -21.4932 48 -48v-192c0 -26.5068 -21.4932 -48 -48 -48h-288c-26.5068 0 -48 -21.4932 -48 -48v-96c0 -26.5068 -21.4932 -48 -48 -48h-96c-26.5068 -0 -48 21.4932 -48 48v288c0 26.5068 21.4932 48 48 48
s48 21.4932 48 48zM478 288c26.5068 0 48 21.4932 48 48s-21.4932 48 -48 48h-192c-26.5068 0 -48 -21.4932 -48 -48s21.4932 -48 48 -48h192z" />
    <glyph glyph-name="Q" unicode="Q" 
d="M190 480h384c26.5068 0 48 -21.4932 48 -48v-384c0 -26.5068 -21.4932 -48 -48 -48h-384c-26.5068 -0 -48 21.4932 -48 48s-21.4932 48 -48 48s-48 21.4932 -48 48v192c0 26.5068 21.4932 48 48 48s48 21.4932 48 48s21.4932 48 48 48zM478 192
c26.5068 0 48 21.4932 48 48v96c0 26.5068 -21.4932 48 -48 48h-192c-26.5068 0 -48 -21.4932 -48 -48v-192c0 -26.5068 21.4932 -48 48 -48s48 21.4932 48 48v96c0 26.5068 21.4932 48 48 48s48 -21.4932 48 -48s21.4932 -48 48 -48z" />
    <glyph glyph-name="R" unicode="R" 
d="M622 240c0 -26.5068 -21.4932 -48 -48 -48s-48 -21.4932 -48 -48s21.4932 -48 48 -48s48 -21.4932 48 -48s-21.4932 -48 -48 -48h-96c-26.5068 -0 -48 21.4932 -48 48s-21.4932 48 -48 48s-48 21.4932 -48 48s-21.4932 48 -48 48s-48 -21.4932 -48 -48v-96
c0 -26.5068 -21.4932 -48 -48 -48h-96c-26.5068 -0 -48 21.4932 -48 48v384c0 26.5068 21.4932 48 48 48h384c26.5068 0 48 -21.4932 48 -48s21.4932 -48 48 -48s48 -21.4932 48 -48v-96zM238 336c0 -26.5068 21.4932 -48 48 -48h96c26.5068 0 48 21.4932 48 48
s-21.4932 48 -48 48h-96c-26.5068 0 -48 -21.4932 -48 -48z" />
    <glyph glyph-name="S" unicode="S" 
d="M622 432c0 -26.5068 -21.4932 -48 -48 -48h-288c-26.5068 0 -48 -21.4932 -48 -48s21.4932 -48 48 -48h192c26.5068 0 48 -21.4932 48 -48s21.4932 -48 48 -48s48 -21.4932 48 -48s-21.4932 -48 -48 -48s-48 -21.4932 -48 -48s-21.4932 -48 -48 -48h-384
c-26.5068 -0 -48 21.4932 -48 48s21.4932 48 48 48h288c26.5068 0 48 21.4932 48 48s-21.4932 48 -48 48h-192c-26.5068 0 -48 21.4932 -48 48s-21.4932 48 -48 48s-48 21.4932 -48 48s21.4932 48 48 48s48 21.4932 48 48s21.4932 48 48 48h384
c26.5068 0 48 -21.4932 48 -48z" />
    <glyph glyph-name="T" unicode="T" 
d="M94 480h480c26.5068 0 48 -21.4932 48 -48v-96c0 -26.5068 -21.4932 -48 -48 -48s-48 21.4932 -48 48s-21.4932 48 -48 48s-48 -21.4932 -48 -48v-192c0 -26.5068 21.4932 -48 48 -48s48 -21.4932 48 -48s-21.4932 -48 -48 -48h-288c-26.5068 -0 -48 21.4932 -48 48
s21.4932 48 48 48s48 21.4932 48 48v192c0 26.5068 -21.4932 48 -48 48s-48 -21.4932 -48 -48s-21.4932 -48 -48 -48s-48 21.4932 -48 48v96c0 26.5068 21.4932 48 48 48z" />
    <glyph glyph-name="U" unicode="U" 
d="M574 480c26.5068 0 48 -21.4932 48 -48v-384c0 -26.5068 -21.4932 -48 -48 -48s-48 21.4932 -48 48s-21.4932 48 -48 48s-48 -21.4932 -48 -48s-21.4932 -48 -48 -48h-288c-26.5068 -0 -48 21.4932 -48 48v384c0 26.5068 21.4932 48 48 48s48 -21.4932 48 -48v-192
c0 -26.5068 21.4932 -48 48 -48h192c26.5068 0 48 21.4932 48 48v192c0 26.5068 21.4932 48 48 48h96z" />
    <glyph glyph-name="V" unicode="V" 
d="M526 432c0 26.5068 21.4932 48 48 48s48 -21.4932 48 -48v-192c0 -26.5068 -21.4932 -48 -48 -48s-48 -21.4932 -48 -48s-21.4932 -48 -48 -48s-48 -21.4932 -48 -48s-21.4932 -48 -48 -48h-96c-26.5068 -0 -48 21.4932 -48 48s-21.4932 48 -48 48s-48 21.4932 -48 48
s-21.4932 48 -48 48s-48 21.4932 -48 48v192c0 26.5068 21.4932 48 48 48s48 -21.4932 48 -48s21.4932 -48 48 -48s48 -21.4932 48 -48v-96c0 -26.5068 21.4932 -48 48 -48h96c26.5068 0 48 21.4932 48 48v96c0 26.5068 21.4932 48 48 48s48 21.4932 48 48z" />
    <glyph glyph-name="W" unicode="W" 
d="M142 48c0 -26.5068 -21.4932 -48 -48 -48s-48 21.4932 -48 48v384c0 26.5068 21.4932 48 48 48s48 -21.4932 48 -48v-96c0 -26.5068 21.4932 -48 48 -48s48 21.4932 48 48s21.4932 48 48 48h96c26.5068 0 48 -21.4932 48 -48s21.4932 -48 48 -48s48 21.4932 48 48v96
c0 26.5068 21.4932 48 48 48s48 -21.4932 48 -48v-384c0 -26.5068 -21.4932 -48 -48 -48s-48 21.4932 -48 48s-21.4932 48 -48 48s-48 21.4932 -48 48s-21.4932 48 -48 48h-96c-26.5068 0 -48 -21.4932 -48 -48s-21.4932 -48 -48 -48s-48 -21.4932 -48 -48z" />
    <glyph glyph-name="X" unicode="X" 
d="M622 336c0 -26.5068 -21.4932 -48 -48 -48s-48 -21.4932 -48 -48s21.4932 -48 48 -48s48 -21.4932 48 -48v-96c0 -26.5068 -21.4932 -48 -48 -48h-96c-26.5068 -0 -48 21.4932 -48 48v96c0 26.5068 -21.4932 48 -48 48h-96c-26.5068 0 -48 -21.4932 -48 -48v-96
c0 -26.5068 -21.4932 -48 -48 -48h-96c-26.5068 -0 -48 21.4932 -48 48v96c0 26.5068 21.4932 48 48 48s48 21.4932 48 48s-21.4932 48 -48 48s-48 21.4932 -48 48v96c0 26.5068 21.4932 48 48 48h96c26.5068 0 48 -21.4932 48 -48v-96c0 -26.5068 21.4932 -48 48 -48h96
c26.5068 0 48 21.4932 48 48v96c0 26.5068 21.4932 48 48 48h96c26.5068 0 48 -21.4932 48 -48v-96z" />
    <glyph glyph-name="Y" unicode="Y" 
d="M478 480h96c26.5068 0 48 -21.4932 48 -48v-96c0 -26.5068 -21.4932 -48 -48 -48s-48 -21.4932 -48 -48s-21.4932 -48 -48 -48s-48 -21.4932 -48 -48v-96c0 -26.5068 -21.4932 -48 -48 -48h-96c-26.5068 -0 -48 21.4932 -48 48v96c0 26.5068 -21.4932 48 -48 48
s-48 21.4932 -48 48s-21.4932 48 -48 48s-48 21.4932 -48 48v96c0 26.5068 21.4932 48 48 48h96c26.5068 0 48 -21.4932 48 -48v-96c0 -26.5068 21.4932 -48 48 -48h96c26.5068 0 48 21.4932 48 48v96c0 26.5068 21.4932 48 48 48z" />
    <glyph glyph-name="Y" unicode="&#x178;" 
d="M478 480h96c26.5068 0 48 -21.4932 48 -48v-96c0 -26.5068 -21.4932 -48 -48 -48s-48 -21.4932 -48 -48s-21.4932 -48 -48 -48s-48 -21.4932 -48 -48v-96c0 -26.5068 -21.4932 -48 -48 -48h-96c-26.5068 -0 -48 21.4932 -48 48v96c0 26.5068 -21.4932 48 -48 48
s-48 21.4932 -48 48s-21.4932 48 -48 48s-48 21.4932 -48 48v96c0 26.5068 21.4932 48 48 48h96c26.5068 0 48 -21.4932 48 -48v-96c0 -26.5068 21.4932 -48 48 -48h96c26.5068 0 48 21.4932 48 48v96c0 26.5068 21.4932 48 48 48z" />
    <glyph glyph-name="Y" unicode="&#xdd;" 
d="M478 480h96c26.5068 0 48 -21.4932 48 -48v-96c0 -26.5068 -21.4932 -48 -48 -48s-48 -21.4932 -48 -48s-21.4932 -48 -48 -48s-48 -21.4932 -48 -48v-96c0 -26.5068 -21.4932 -48 -48 -48h-96c-26.5068 -0 -48 21.4932 -48 48v96c0 26.5068 -21.4932 48 -48 48
s-48 21.4932 -48 48s-21.4932 48 -48 48s-48 21.4932 -48 48v96c0 26.5068 21.4932 48 48 48h96c26.5068 0 48 -21.4932 48 -48v-96c0 -26.5068 21.4932 -48 48 -48h96c26.5068 0 48 21.4932 48 48v96c0 26.5068 21.4932 48 48 48z" />
    <glyph glyph-name="Z" unicode="Z" 
d="M430 240c0 -26.5068 -21.4932 -48 -48 -48s-48 -21.4932 -48 -48s21.4932 -48 48 -48h192c26.5068 0 48 -21.4932 48 -48s-21.4932 -48 -48 -48h-480c-26.5068 -0 -48 21.4932 -48 48s21.4932 48 48 48s48 21.4932 48 48s21.4932 48 48 48s48 21.4932 48 48
s21.4932 48 48 48s48 21.4932 48 48s-21.4932 48 -48 48h-192c-26.5068 0 -48 21.4932 -48 48s21.4932 48 48 48h480c26.5068 0 48 -21.4932 48 -48s-21.4932 -48 -48 -48s-48 -21.4932 -48 -48s-21.4932 -48 -48 -48s-48 -21.4932 -48 -48z" />
    <glyph glyph-name="bracketleft" unicode="[" horiz-adv-x="284" 
d="M190 96c26.5068 0 48 -21.4932 48 -48s-21.4932 -48 -48 -48h-96c-26.5068 -0 -48 21.4932 -48 48v384c0 26.5068 21.4932 48 48 48h96c26.5068 0 48 -21.4932 48 -48s-21.4932 -48 -48 -48s-48 -21.4932 -48 -48v-192c0 -26.5068 21.4932 -48 48 -48z" />
    <glyph glyph-name="backslash" unicode="\" horiz-adv-x="476" 
d="M382 192c26.5068 0 48 -21.4932 48 -48v-96c0 -26.5068 -21.4932 -48 -48 -48s-48 21.4932 -48 48s-21.4932 48 -48 48s-48 21.4932 -48 48s-21.4932 48 -48 48s-48 21.4932 -48 48s-21.4932 48 -48 48s-48 21.4932 -48 48v96c0 26.5068 21.4932 48 48 48
s48 -21.4932 48 -48s21.4932 -48 48 -48s48 -21.4932 48 -48s21.4932 -48 48 -48s48 -21.4932 48 -48s21.4932 -48 48 -48z" />
    <glyph glyph-name="bracketright" unicode="]" horiz-adv-x="284" 
d="M190 480c26.5068 0 48 -21.4932 48 -48v-384c0 -26.5068 -21.4932 -48 -48 -48h-96c-26.5068 -0 -48 21.4932 -48 48s21.4932 48 48 48s48 21.4932 48 48v192c0 26.5068 -21.4932 48 -48 48s-48 21.4932 -48 48s21.4932 48 48 48h96z" />
    <glyph glyph-name="asciicircum" unicode="^" horiz-adv-x="572" 
d="M478 288c26.5068 0 48 -21.4932 48 -48v-96c0 -26.5068 -21.4932 -48 -48 -48s-48 21.4932 -48 48s-21.4932 48 -48 48s-48 21.4932 -48 48s-21.4932 48 -48 48s-48 -21.4932 -48 -48s-21.4932 -48 -48 -48s-48 -21.4932 -48 -48s-21.4932 -48 -48 -48
s-48 21.4932 -48 48v96c0 26.5068 21.4932 48 48 48s48 21.4932 48 48s21.4932 48 48 48s48 21.4932 48 48s21.4932 48 48 48s48 -21.4932 48 -48s21.4932 -48 48 -48s48 -21.4932 48 -48s21.4932 -48 48 -48z" />
    <glyph glyph-name="underscore" unicode="_" horiz-adv-x="380" 
d="M286 0h-192c-26.5098 -0 -48 21.4902 -48 48s21.4902 48 48 48h192c26.5098 0 48 -21.4902 48 -48s-21.4902 -48 -48 -48z" />
    <glyph glyph-name="grave" unicode="`" horiz-adv-x="284" 
d="M190 480c26.5068 0 48 -21.4932 48 -48v-96c0 -26.5068 -21.4932 -48 -48 -48s-48 21.4932 -48 48s-21.4932 48 -48 48s-48 21.4932 -48 48s21.4932 48 48 48h96z" />
    <glyph glyph-name="a" unicode="a" 
d="M574 384c26.5068 0 48 -21.4932 48 -48v-288c0 -26.5068 -21.4932 -48 -48 -48h-96c-26.5068 -0 -48 21.4932 -48 48v96c0 26.5068 -21.4932 48 -48 48h-96c-26.5068 0 -48 -21.4932 -48 -48v-96c0 -26.5068 -21.4932 -48 -48 -48h-96c-26.5068 -0 -48 21.4932 -48 48
v288c0 26.5068 21.4932 48 48 48s48 21.4932 48 48s21.4932 48 48 48h288c26.5068 0 48 -21.4932 48 -48s21.4932 -48 48 -48zM382 288c26.5068 0 48 21.4932 48 48s-21.4932 48 -48 48h-96c-26.5068 0 -48 -21.4932 -48 -48s21.4932 -48 48 -48h96z" />
    <glyph glyph-name="a" unicode="&#xe5;" 
d="M574 384c26.5068 0 48 -21.4932 48 -48v-288c0 -26.5068 -21.4932 -48 -48 -48h-96c-26.5068 -0 -48 21.4932 -48 48v96c0 26.5068 -21.4932 48 -48 48h-96c-26.5068 0 -48 -21.4932 -48 -48v-96c0 -26.5068 -21.4932 -48 -48 -48h-96c-26.5068 -0 -48 21.4932 -48 48
v288c0 26.5068 21.4932 48 48 48s48 21.4932 48 48s21.4932 48 48 48h288c26.5068 0 48 -21.4932 48 -48s21.4932 -48 48 -48zM382 288c26.5068 0 48 21.4932 48 48s-21.4932 48 -48 48h-96c-26.5068 0 -48 -21.4932 -48 -48s21.4932 -48 48 -48h96z" />
    <glyph glyph-name="b" unicode="b" 
d="M574 288c-26.5068 0 -48 -21.4932 -48 -48s21.4932 -48 48 -48s48 -21.4932 48 -48v-96c0 -26.5068 -21.4932 -48 -48 -48h-480c-26.5068 -0 -48 21.4932 -48 48v288c0 26.5068 21.4932 48 48 48s48 21.4932 48 48s21.4932 48 48 48h384c26.5068 0 48 -21.4932 48 -48
v-96c0 -26.5068 -21.4932 -48 -48 -48zM382 96c26.5068 0 48 21.4932 48 48s-21.4932 48 -48 48h-96c-26.5068 0 -48 -21.4932 -48 -48s21.4932 -48 48 -48h96zM382 288c26.5068 0 48 21.4932 48 48s-21.4932 48 -48 48h-96c-26.5068 0 -48 -21.4932 -48 -48
s21.4932 -48 48 -48h96z" />
    <glyph glyph-name="c" unicode="c" 
d="M574 480c26.5068 0 48 -21.4932 48 -48v-96c0 -26.5068 -21.4932 -48 -48 -48s-48 21.4932 -48 48s-21.4932 48 -48 48h-192c-26.5068 0 -48 -21.4932 -48 -48v-192c0 -26.5068 21.4932 -48 48 -48h192c26.5068 0 48 21.4932 48 48s21.4932 48 48 48s48 -21.4932 48 -48
v-96c0 -26.5068 -21.4932 -48 -48 -48h-384c-26.5068 -0 -48 21.4932 -48 48s-21.4932 48 -48 48s-48 21.4932 -48 48v192c0 26.5068 21.4932 48 48 48s48 21.4932 48 48s21.4932 48 48 48h384z" />
    <glyph glyph-name="c" unicode="&#xe7;" 
d="M574 480c26.5068 0 48 -21.4932 48 -48v-96c0 -26.5068 -21.4932 -48 -48 -48s-48 21.4932 -48 48s-21.4932 48 -48 48h-192c-26.5068 0 -48 -21.4932 -48 -48v-192c0 -26.5068 21.4932 -48 48 -48h192c26.5068 0 48 21.4932 48 48s21.4932 48 48 48s48 -21.4932 48 -48
v-96c0 -26.5068 -21.4932 -48 -48 -48h-384c-26.5068 -0 -48 21.4932 -48 48s-21.4932 48 -48 48s-48 21.4932 -48 48v192c0 26.5068 21.4932 48 48 48s48 21.4932 48 48s21.4932 48 48 48h384z" />
    <glyph glyph-name="d" unicode="d" 
d="M574 384c26.5068 0 48 -21.4932 48 -48v-288c0 -26.5068 -21.4932 -48 -48 -48h-480c-26.5068 -0 -48 21.4932 -48 48v384c0 26.5068 21.4932 48 48 48h384c26.5068 0 48 -21.4932 48 -48s21.4932 -48 48 -48zM430 144v192c0 26.5068 -21.4932 48 -48 48h-96
c-26.5068 0 -48 -21.4932 -48 -48v-192c0 -26.5068 21.4932 -48 48 -48h96c26.5068 0 48 21.4932 48 48z" />
    <glyph glyph-name="e" unicode="e" 
d="M574 96c26.5068 0 48 -21.4932 48 -48s-21.4932 -48 -48 -48h-384c-26.5068 -0 -48 21.4932 -48 48s-21.4932 48 -48 48s-48 21.4932 -48 48v192c0 26.5068 21.4932 48 48 48s48 21.4932 48 48s21.4932 48 48 48h384c26.5068 0 48 -21.4932 48 -48s-21.4932 -48 -48 -48
h-288c-26.5068 0 -48 -21.4932 -48 -48s21.4932 -48 48 -48h192c26.5068 0 48 -21.4932 48 -48s-21.4932 -48 -48 -48h-192c-26.5068 0 -48 -21.4932 -48 -48s21.4932 -48 48 -48h288z" />
    <glyph glyph-name="f" unicode="f" 
d="M574 480c26.5068 0 48 -21.4932 48 -48s-21.4932 -48 -48 -48h-288c-26.5068 0 -48 -21.4932 -48 -48s21.4932 -48 48 -48h192c26.5068 0 48 -21.4932 48 -48s-21.4932 -48 -48 -48h-192c-26.5068 0 -48 -21.4932 -48 -48v-96c0 -26.5068 -21.4932 -48 -48 -48h-96
c-26.5068 -0 -48 21.4932 -48 48v288c0 26.5068 21.4932 48 48 48s48 21.4932 48 48s21.4932 48 48 48h384z" />
    <glyph glyph-name="g" unicode="g" 
d="M574 288c26.5068 0 48 -21.4932 48 -48v-192c0 -26.5068 -21.4932 -48 -48 -48h-384c-26.5068 -0 -48 21.4932 -48 48s-21.4932 48 -48 48s-48 21.4932 -48 48v192c0 26.5068 21.4932 48 48 48s48 21.4932 48 48s21.4932 48 48 48h384c26.5068 0 48 -21.4932 48 -48
s-21.4932 -48 -48 -48h-288c-26.5068 0 -48 -21.4932 -48 -48v-192c0 -26.5068 21.4932 -48 48 -48h192c26.5068 0 48 21.4932 48 48s-21.4932 48 -48 48s-48 21.4932 -48 48s21.4932 48 48 48h96z" />
    <glyph glyph-name="h" unicode="h" 
d="M574 384c26.5068 0 48 -21.4932 48 -48v-288c0 -26.5068 -21.4932 -48 -48 -48h-96c-26.5068 -0 -48 21.4932 -48 48v96c0 26.5068 -21.4932 48 -48 48h-96c-26.5068 0 -48 -21.4932 -48 -48v-96c0 -26.5068 -21.4932 -48 -48 -48h-96c-26.5068 -0 -48 21.4932 -48 48
v384c0 26.5068 21.4932 48 48 48h96c26.5068 0 48 -21.4932 48 -48v-96c0 -26.5068 21.4932 -48 48 -48h96c26.5068 0 48 21.4932 48 48v96c0 26.5068 21.4932 48 48 48s48 -21.4932 48 -48s21.4932 -48 48 -48z" />
    <glyph glyph-name="i" unicode="i" 
d="M574 96c26.5068 0 48 -21.4932 48 -48s-21.4932 -48 -48 -48h-480c-26.5068 -0 -48 21.4932 -48 48s21.4932 48 48 48h96c26.5068 0 48 21.4932 48 48v192c0 26.5068 -21.4932 48 -48 48h-96c-26.5068 0 -48 21.4932 -48 48s21.4932 48 48 48h480
c26.5068 0 48 -21.4932 48 -48s-21.4932 -48 -48 -48h-96c-26.5068 0 -48 -21.4932 -48 -48v-192c0 -26.5068 21.4932 -48 48 -48h96z" />
    <glyph glyph-name="j" unicode="j" 
d="M574 480c26.5068 0 48 -21.4932 48 -48v-288c0 -26.5068 -21.4932 -48 -48 -48s-48 -21.4932 -48 -48s-21.4932 -48 -48 -48h-384c-26.5068 -0 -48 21.4932 -48 48v96c0 26.5068 21.4932 48 48 48h96c26.5068 0 48 -21.4932 48 -48s21.4932 -48 48 -48h96
c26.5068 0 48 21.4932 48 48v192c0 26.5068 -21.4932 48 -48 48h-192c-26.5068 0 -48 21.4932 -48 48s21.4932 48 48 48h384z" />
    <glyph glyph-name="k" unicode="k" 
d="M286 288c26.5068 0 48 -21.4932 48 -48s-21.4932 -48 -48 -48s-48 -21.4932 -48 -48v-96c0 -26.5068 -21.4932 -48 -48 -48h-96c-26.5068 -0 -48 21.4932 -48 48v384c0 26.5068 21.4932 48 48 48h96c26.5068 0 48 -21.4932 48 -48v-96c0 -26.5068 21.4932 -48 48 -48z
M574 192c26.5068 0 48 -21.4932 48 -48v-96c0 -26.5068 -21.4932 -48 -48 -48h-96c-26.5068 -0 -48 21.4932 -48 48s-21.4932 48 -48 48s-48 21.4932 -48 48s21.4932 48 48 48h192zM382 288c-26.5068 0 -48 21.4932 -48 48v96c0 26.5068 21.4932 48 48 48h192
c26.5068 0 48 -21.4932 48 -48s-21.4932 -48 -48 -48h-96c-26.5068 0 -48 -21.4932 -48 -48s-21.4932 -48 -48 -48z" />
    <glyph glyph-name="l" unicode="l" 
d="M574 96c26.5068 0 48 -21.4932 48 -48s-21.4932 -48 -48 -48h-384c-26.5068 -0 -48 21.4932 -48 48s-21.4932 48 -48 48s-48 21.4932 -48 48v288c0 26.5068 21.4932 48 48 48h96c26.5068 0 48 -21.4932 48 -48v-288c0 -26.5068 21.4932 -48 48 -48h288z" />
    <glyph glyph-name="m" unicode="m" 
d="M574 480c26.5068 0 48 -21.4932 48 -48v-384c0 -26.5068 -21.4932 -48 -48 -48s-48 21.4932 -48 48v96c0 26.5068 -21.4932 48 -48 48s-48 -21.4932 -48 -48s-21.4932 -48 -48 -48s-48 21.4932 -48 48s-21.4932 48 -48 48s-48 -21.4932 -48 -48v-96
c0 -26.5068 -21.4932 -48 -48 -48h-96c-26.5068 -0 -48 21.4932 -48 48v384c0 26.5068 21.4932 48 48 48h96c26.5068 0 48 -21.4932 48 -48s21.4932 -48 48 -48s48 -21.4932 48 -48s21.4932 -48 48 -48s48 21.4932 48 48s21.4932 48 48 48s48 21.4932 48 48
s21.4932 48 48 48z" />
    <glyph glyph-name="n" unicode="n" 
d="M574 480c26.5068 0 48 -21.4932 48 -48v-384c0 -26.5068 -21.4932 -48 -48 -48h-96c-26.5068 -0 -48 21.4932 -48 48s-21.4932 48 -48 48s-48 21.4932 -48 48v96c0 26.5068 21.4932 48 48 48s48 21.4932 48 48v96c0 26.5068 21.4932 48 48 48h96zM286 384
c26.5068 0 48 -21.4932 48 -48s-21.4932 -48 -48 -48s-48 -21.4932 -48 -48v-192c0 -26.5068 -21.4932 -48 -48 -48h-96c-26.5068 -0 -48 21.4932 -48 48v384c0 26.5068 21.4932 48 48 48h96c26.5068 0 48 -21.4932 48 -48s21.4932 -48 48 -48z" />
    <glyph glyph-name="o" unicode="o" 
d="M574 384c26.5068 0 48 -21.4932 48 -48v-192c0 -26.5068 -21.4932 -48 -48 -48s-48 -21.4932 -48 -48s-21.4932 -48 -48 -48h-288c-26.5068 -0 -48 21.4932 -48 48s-21.4932 48 -48 48s-48 21.4932 -48 48v192c0 26.5068 21.4932 48 48 48s48 21.4932 48 48
s21.4932 48 48 48h288c26.5068 0 48 -21.4932 48 -48s21.4932 -48 48 -48zM430 144v192c0 26.5068 -21.4932 48 -48 48h-96c-26.5068 0 -48 -21.4932 -48 -48v-192c0 -26.5068 21.4932 -48 48 -48h96c26.5068 0 48 21.4932 48 48z" />
    <glyph glyph-name="o" unicode="&#xf8;" 
d="M574 384c26.5068 0 48 -21.4932 48 -48v-192c0 -26.5068 -21.4932 -48 -48 -48s-48 -21.4932 -48 -48s-21.4932 -48 -48 -48h-288c-26.5068 -0 -48 21.4932 -48 48s-21.4932 48 -48 48s-48 21.4932 -48 48v192c0 26.5068 21.4932 48 48 48s48 21.4932 48 48
s21.4932 48 48 48h288c26.5068 0 48 -21.4932 48 -48s21.4932 -48 48 -48zM430 144v192c0 26.5068 -21.4932 48 -48 48h-96c-26.5068 0 -48 -21.4932 -48 -48v-192c0 -26.5068 21.4932 -48 48 -48h96c26.5068 0 48 21.4932 48 48z" />
    <glyph glyph-name="p" unicode="p" 
d="M574 384c26.5068 0 48 -21.4932 48 -48s-21.4932 -48 -48 -48s-48 -21.4932 -48 -48s-21.4932 -48 -48 -48h-192c-26.5068 0 -48 -21.4932 -48 -48v-96c0 -26.5068 -21.4932 -48 -48 -48h-96c-26.5068 -0 -48 21.4932 -48 48v288c0 26.5068 21.4932 48 48 48
s48 21.4932 48 48s21.4932 48 48 48h288c26.5068 0 48 -21.4932 48 -48s21.4932 -48 48 -48zM382 288c26.5068 0 48 21.4932 48 48s-21.4932 48 -48 48h-96c-26.5068 0 -48 -21.4932 -48 -48s21.4932 -48 48 -48h96z" />
    <glyph glyph-name="q" unicode="q" 
d="M574 480c26.5068 0 48 -21.4932 48 -48v-384c0 -26.5068 -21.4932 -48 -48 -48h-96c-26.5068 0 -48 -21.4932 -48 -48s-21.4932 -48 -48 -48s-48 21.4932 -48 48s-21.4932 48 -48 48h-96c-26.5068 -0 -48 21.4932 -48 48s-21.4932 48 -48 48s-48 21.4932 -48 48v192
c0 26.5068 21.4932 48 48 48s48 21.4932 48 48s21.4932 48 48 48h384zM526 144v192c0 26.5068 -21.4932 48 -48 48h-192c-26.5068 0 -48 -21.4932 -48 -48v-192c0 -26.5068 21.4932 -48 48 -48s48 21.4932 48 48s21.4932 48 48 48s48 -21.4932 48 -48s21.4932 -48 48 -48
s48 21.4932 48 48z" />
    <glyph glyph-name="r" unicode="r" 
d="M574 480c26.5068 0 48 -21.4932 48 -48v-192c0 -26.5068 -21.4932 -48 -48 -48s-48 -21.4932 -48 -48s21.4932 -48 48 -48s48 -21.4932 48 -48s-21.4932 -48 -48 -48h-96c-26.5068 -0 -48 21.4932 -48 48s-21.4932 48 -48 48s-48 21.4932 -48 48s-21.4932 48 -48 48
s-48 -21.4932 -48 -48v-96c0 -26.5068 -21.4932 -48 -48 -48h-96c-26.5068 -0 -48 21.4932 -48 48v288c0 26.5068 21.4932 48 48 48s48 21.4932 48 48s21.4932 48 48 48h384zM478 288c26.5068 0 48 21.4932 48 48s-21.4932 48 -48 48h-192c-26.5068 0 -48 -21.4932 -48 -48
s21.4932 -48 48 -48h192z" />
    <glyph glyph-name="s" unicode="s" 
d="M574 288c26.5068 0 48 -21.4932 48 -48v-96c0 -26.5068 -21.4932 -48 -48 -48s-48 -21.4932 -48 -48s-21.4932 -48 -48 -48h-384c-26.5068 -0 -48 21.4932 -48 48s21.4932 48 48 48h288c26.5068 0 48 21.4932 48 48s-21.4932 48 -48 48h-288
c-26.5068 0 -48 21.4932 -48 48v96c0 26.5068 21.4932 48 48 48s48 21.4932 48 48s21.4932 48 48 48h384c26.5068 0 48 -21.4932 48 -48s-21.4932 -48 -48 -48h-288c-26.5068 0 -48 -21.4932 -48 -48s21.4932 -48 48 -48h288z" />
    <glyph glyph-name="t" unicode="t" 
d="M574 480c26.5068 0 48 -21.4932 48 -48s-21.4932 -48 -48 -48h-96c-26.5068 0 -48 -21.4932 -48 -48v-288c0 -26.5068 -21.4932 -48 -48 -48h-96c-26.5068 -0 -48 21.4932 -48 48v288c0 26.5068 -21.4932 48 -48 48h-96c-26.5068 0 -48 21.4932 -48 48s21.4932 48 48 48
h480z" />
    <glyph glyph-name="u" unicode="u" 
d="M574 480c26.5068 0 48 -21.4932 48 -48v-384c0 -26.5068 -21.4932 -48 -48 -48h-384c-26.5068 -0 -48 21.4932 -48 48s-21.4932 48 -48 48s-48 21.4932 -48 48v288c0 26.5068 21.4932 48 48 48h96c26.5068 0 48 -21.4932 48 -48v-288c0 -26.5068 21.4932 -48 48 -48h96
c26.5068 0 48 21.4932 48 48v288c0 26.5068 21.4932 48 48 48h96z" />
    <glyph glyph-name="v" unicode="v" 
d="M574 480c26.5068 0 48 -21.4932 48 -48v-192c0 -26.5068 -21.4932 -48 -48 -48s-48 -21.4932 -48 -48s-21.4932 -48 -48 -48s-48 -21.4932 -48 -48s-21.4932 -48 -48 -48h-96c-26.5068 -0 -48 21.4932 -48 48s-21.4932 48 -48 48s-48 21.4932 -48 48s-21.4932 48 -48 48
s-48 21.4932 -48 48v192c0 26.5068 21.4932 48 48 48h96c26.5068 0 48 -21.4932 48 -48v-192c0 -26.5068 21.4932 -48 48 -48h96c26.5068 0 48 21.4932 48 48v192c0 26.5068 21.4932 48 48 48h96z" />
    <glyph glyph-name="w" unicode="w" 
d="M574 480c26.5068 0 48 -21.4932 48 -48v-384c0 -26.5068 -21.4932 -48 -48 -48s-48 21.4932 -48 48s-21.4932 48 -48 48s-48 21.4932 -48 48s-21.4932 48 -48 48s-48 -21.4932 -48 -48s-21.4932 -48 -48 -48s-48 -21.4932 -48 -48s-21.4932 -48 -48 -48h-96
c-26.5068 -0 -48 21.4932 -48 48v384c0 26.5068 21.4932 48 48 48h96c26.5068 0 48 -21.4932 48 -48v-96c0 -26.5068 21.4932 -48 48 -48s48 21.4932 48 48s21.4932 48 48 48s48 -21.4932 48 -48s21.4932 -48 48 -48s48 21.4932 48 48v96c0 26.5068 21.4932 48 48 48z" />
    <glyph glyph-name="x" unicode="x" 
d="M478 288c-26.5068 0 -48 -21.4932 -48 -48s21.4932 -48 48 -48h96c26.5068 0 48 -21.4932 48 -48v-96c0 -26.5068 -21.4932 -48 -48 -48h-96c-26.5068 -0 -48 21.4932 -48 48s-21.4932 48 -48 48h-96c-26.5068 0 -48 -21.4932 -48 -48s-21.4932 -48 -48 -48h-96
c-26.5068 -0 -48 21.4932 -48 48v96c0 26.5068 21.4932 48 48 48h96c26.5068 0 48 21.4932 48 48s-21.4932 48 -48 48h-96c-26.5068 0 -48 21.4932 -48 48v96c0 26.5068 21.4932 48 48 48h96c26.5068 0 48 -21.4932 48 -48s21.4932 -48 48 -48h96
c26.5068 0 48 21.4932 48 48s21.4932 48 48 48h96c26.5068 0 48 -21.4932 48 -48v-96c0 -26.5068 -21.4932 -48 -48 -48h-96z" />
    <glyph glyph-name="y" unicode="y" 
d="M574 480c26.5068 0 48 -21.4932 48 -48v-192c0 -26.5068 -21.4932 -48 -48 -48s-48 -21.4932 -48 -48v-96c0 -26.5068 -21.4932 -48 -48 -48h-384c-26.5068 -0 -48 21.4932 -48 48s21.4932 48 48 48h96c26.5068 0 48 21.4932 48 48s21.4932 48 48 48h96
c26.5068 0 48 21.4932 48 48v192c0 26.5068 21.4932 48 48 48h96zM190 192h-96c-26.5098 0 -48 21.4902 -48 48v192c0 26.5098 21.4902 48 48 48h96c26.5098 0 48 -21.4902 48 -48v-192c0 -26.5098 -21.4902 -48 -48 -48z" />
    <glyph glyph-name="y" unicode="&#xff;" 
d="M574 480c26.5068 0 48 -21.4932 48 -48v-192c0 -26.5068 -21.4932 -48 -48 -48s-48 -21.4932 -48 -48v-96c0 -26.5068 -21.4932 -48 -48 -48h-384c-26.5068 -0 -48 21.4932 -48 48s21.4932 48 48 48h96c26.5068 0 48 21.4932 48 48s21.4932 48 48 48h96
c26.5068 0 48 21.4932 48 48v192c0 26.5068 21.4932 48 48 48h96zM190 192h-96c-26.5098 0 -48 21.4902 -48 48v192c0 26.5098 21.4902 48 48 48h96c26.5098 0 48 -21.4902 48 -48v-192c0 -26.5098 -21.4902 -48 -48 -48z" />
    <glyph glyph-name="y" unicode="&#xfd;" 
d="M574 480c26.5068 0 48 -21.4932 48 -48v-192c0 -26.5068 -21.4932 -48 -48 -48s-48 -21.4932 -48 -48v-96c0 -26.5068 -21.4932 -48 -48 -48h-384c-26.5068 -0 -48 21.4932 -48 48s21.4932 48 48 48h96c26.5068 0 48 21.4932 48 48s21.4932 48 48 48h96
c26.5068 0 48 21.4932 48 48v192c0 26.5068 21.4932 48 48 48h96zM190 192h-96c-26.5098 0 -48 21.4902 -48 48v192c0 26.5098 21.4902 48 48 48h96c26.5098 0 48 -21.4902 48 -48v-192c0 -26.5098 -21.4902 -48 -48 -48z" />
    <glyph glyph-name="z" unicode="z" 
d="M286 192c-26.5068 0 -48 -21.4932 -48 -48s21.4932 -48 48 -48h288c26.5068 0 48 -21.4932 48 -48s-21.4932 -48 -48 -48h-480c-26.5068 -0 -48 21.4932 -48 48v96c0 26.5068 21.4932 48 48 48s48 21.4932 48 48s21.4932 48 48 48h192c26.5068 0 48 21.4932 48 48
s-21.4932 48 -48 48h-288c-26.5068 0 -48 21.4932 -48 48s21.4932 48 48 48h480c26.5068 0 48 -21.4932 48 -48v-96c0 -26.5068 -21.4932 -48 -48 -48s-48 -21.4932 -48 -48s-21.4932 -48 -48 -48h-192z" />
    <glyph glyph-name="braceleft" unicode="{" horiz-adv-x="380" 
d="M286 96c26.5068 0 48 -21.4932 48 -48s-21.4932 -48 -48 -48h-96c-26.5068 -0 -48 21.4932 -48 48v96c0 26.5068 -21.4932 48 -48 48s-48 21.4932 -48 48s21.4932 48 48 48s48 21.4932 48 48v96c0 26.5068 21.4932 48 48 48h96c26.5068 0 48 -21.4932 48 -48
s-21.4932 -48 -48 -48s-48 -21.4932 -48 -48v-192c0 -26.5068 21.4932 -48 48 -48z" />
    <glyph glyph-name="verticalbar" unicode="|" horiz-adv-x="188" 
d="M94 480c26.5068 0 48 -21.4932 48 -48v-384c0 -26.5068 -21.4932 -48 -48 -48s-48 21.4932 -48 48v384c0 26.5068 21.4932 48 48 48z" />
    <glyph glyph-name="braceright" unicode="}" horiz-adv-x="380" 
d="M286 288c26.5068 0 48 -21.4932 48 -48s-21.4932 -48 -48 -48s-48 -21.4932 -48 -48v-96c0 -26.5068 -21.4932 -48 -48 -48h-96c-26.5068 -0 -48 21.4932 -48 48s21.4932 48 48 48s48 21.4932 48 48v192c0 26.5068 -21.4932 48 -48 48s-48 21.4932 -48 48
s21.4932 48 48 48h96c26.5068 0 48 -21.4932 48 -48v-96c0 -26.5068 21.4932 -48 48 -48z" />
    <glyph glyph-name="asciitilde" unicode="~" 
d="M574 480c26.5068 0 48 -21.4932 48 -48v-96c0 -26.5068 -21.4932 -48 -48 -48h-288c-26.5068 0 -48 21.4932 -48 48s-21.4932 48 -48 48s-48 -21.4932 -48 -48s-21.4932 -48 -48 -48s-48 21.4932 -48 48v96c0 26.5068 21.4932 48 48 48h288c26.5068 0 48 -21.4932 48 -48
s21.4932 -48 48 -48s48 21.4932 48 48s21.4932 48 48 48z" />
    <glyph glyph-name="nonbreakingspace" unicode="&#xa0;" horiz-adv-x="338" 
 />
    <glyph glyph-name="cent" unicode="&#xa2;" 
d="M574 192c26.5068 0 48 -21.4932 48 -48s-21.4932 -48 -48 -48h-96c-26.5068 0 -48 -21.4932 -48 -48s-21.4932 -48 -48 -48s-48 21.4932 -48 48s-21.4932 48 -48 48h-192c-26.5068 0 -48 21.4932 -48 48v192c0 26.5068 21.4932 48 48 48h192c26.5068 0 48 21.4932 48 48
s21.4932 48 48 48s48 -21.4932 48 -48s21.4932 -48 48 -48h96c26.5068 0 48 -21.4932 48 -48s-21.4932 -48 -48 -48h-288c-26.5068 0 -48 -21.4932 -48 -48s21.4932 -48 48 -48h288z" />
    <glyph glyph-name="copyright" unicode="&#xa9;" 
d="M190 96c26.5068 0 48 -21.4932 48 -48s-21.4932 -48 -48 -48h-96c-26.5068 -0 -48 21.4932 -48 48v384c0 26.5068 21.4932 48 48 48h96c26.5068 0 48 -21.4932 48 -48s-21.4932 -48 -48 -48s-48 -21.4932 -48 -48v-192c0 -26.5068 21.4932 -48 48 -48zM574 480
c26.5068 0 48 -21.4932 48 -48v-384c0 -26.5068 -21.4932 -48 -48 -48h-96c-26.5068 -0 -48 21.4932 -48 48s21.4932 48 48 48s48 21.4932 48 48v192c0 26.5068 -21.4932 48 -48 48s-48 21.4932 -48 48s21.4932 48 48 48h96zM382 192c26.5068 0 48 -21.4932 48 -48
s-21.4932 -48 -48 -48h-96c-26.5068 0 -48 21.4932 -48 48v192c0 26.5068 21.4932 48 48 48h96c26.5068 0 48 -21.4932 48 -48s-21.4932 -48 -48 -48s-48 -21.4932 -48 -48s21.4932 -48 48 -48z" />
    <glyph glyph-name="softhyphen" unicode="&#xad;" horiz-adv-x="0" 
 />
    <glyph glyph-name="registered" unicode="&#xae;" horiz-adv-x="669" 
d="M190 96c26.5068 0 48 -21.4932 48 -48s-21.4932 -48 -48 -48h-96c-26.5068 -0 -48 21.4932 -48 48v384c0 26.5068 21.4932 48 48 48h96c26.5068 0 48 -21.4932 48 -48s-21.4932 -48 -48 -48s-48 -21.4932 -48 -48v-192c0 -26.5068 21.4932 -48 48 -48zM574 480
c26.5068 0 48 -21.4932 48 -48v-384c0 -26.5068 -21.4932 -48 -48 -48h-96c-26.5068 -0 -48 21.4932 -48 48s21.4932 48 48 48s48 21.4932 48 48v192c0 26.5068 -21.4932 48 -48 48s-48 21.4932 -48 48s21.4932 48 48 48h96zM382 384c26.5068 0 48 -21.4932 48 -48
s-21.4932 -48 -48 -48s-48 -21.4932 -48 -48v-96c0 -26.5068 -21.4932 -48 -48 -48s-48 21.4932 -48 48v192c0 26.5068 21.4932 48 48 48h96z" />
    <glyph glyph-name="paragraph" unicode="&#xb6;" horiz-adv-x="476" 
d="M190 480c26.5068 0 48 -21.4932 48 -48v-384c0 -26.5068 -21.4932 -48 -48 -48s-48 21.4932 -48 48v96c0 26.5068 -21.4932 48 -48 48s-48 21.4932 -48 48v192c0 26.5068 21.4932 48 48 48h96zM382 480c26.5068 0 48 -21.4932 48 -48v-384
c0 -26.5068 -21.4932 -48 -48 -48s-48 21.4932 -48 48v384c0 26.5068 21.4932 48 48 48z" />
    <glyph glyph-name="Agrave" unicode="&#xc0;" 
d="M190 672c-26.5068 0 -48 21.4932 -48 48s21.4932 48 48 48h96c26.5068 0 48 -21.4932 48 -48s21.4932 -48 48 -48s48 -21.4932 48 -48s-21.4932 -48 -48 -48h-96c-26.5068 0 -48 21.4932 -48 48s-21.4932 48 -48 48zM574 480c26.5068 0 48 -21.4932 48 -48v-384
c0 -26.5068 -21.4932 -48 -48 -48h-96c-26.5068 -0 -48 21.4932 -48 48v96c0 26.5068 -21.4932 48 -48 48h-96c-26.5068 0 -48 -21.4932 -48 -48v-96c0 -26.5068 -21.4932 -48 -48 -48h-96c-26.5068 -0 -48 21.4932 -48 48v288c0 26.5068 21.4932 48 48 48s48 21.4932 48 48
s21.4932 48 48 48h384zM382 288c26.5068 0 48 21.4932 48 48s-21.4932 48 -48 48h-96c-26.5068 0 -48 -21.4932 -48 -48s21.4932 -48 48 -48h96z" />
    <glyph glyph-name="Aacute" unicode="&#xc1;" 
d="M286 576c-26.5068 0 -48 21.4932 -48 48s21.4932 48 48 48s48 21.4932 48 48s21.4932 48 48 48h96c26.5068 0 48 -21.4932 48 -48s-21.4932 -48 -48 -48s-48 -21.4932 -48 -48s-21.4932 -48 -48 -48h-96zM574 480c26.5068 0 48 -21.4932 48 -48v-384
c0 -26.5068 -21.4932 -48 -48 -48h-96c-26.5068 -0 -48 21.4932 -48 48v96c0 26.5068 -21.4932 48 -48 48h-96c-26.5068 0 -48 -21.4932 -48 -48v-96c0 -26.5068 -21.4932 -48 -48 -48h-96c-26.5068 -0 -48 21.4932 -48 48v288c0 26.5068 21.4932 48 48 48s48 21.4932 48 48
s21.4932 48 48 48h384zM382 288c26.5068 0 48 21.4932 48 48s-21.4932 48 -48 48h-96c-26.5068 0 -48 -21.4932 -48 -48s21.4932 -48 48 -48h96z" />
    <glyph glyph-name="Acircumflex" unicode="&#xc2;" 
d="M574 480c26.5068 0 48 -21.4932 48 -48v-384c0 -26.5068 -21.4932 -48 -48 -48h-96c-26.5068 -0 -48 21.4932 -48 48v96c0 26.5068 -21.4932 48 -48 48h-96c-26.5068 0 -48 -21.4932 -48 -48v-96c0 -26.5068 -21.4932 -48 -48 -48h-96c-26.5068 -0 -48 21.4932 -48 48
v288c0 26.5068 21.4932 48 48 48s48 21.4932 48 48s21.4932 48 48 48h384zM382 288c26.5068 0 48 21.4932 48 48s-21.4932 48 -48 48h-96c-26.5068 0 -48 -21.4932 -48 -48s21.4932 -48 48 -48h96zM94 576c-26.5068 0 -48 21.4932 -48 48s21.4932 48 48 48s48 21.4932 48 48
s21.4932 48 48 48h288c26.5068 0 48 -21.4932 48 -48s21.4932 -48 48 -48s48 -21.4932 48 -48s-21.4932 -48 -48 -48h-96c-26.5068 0 -48 21.4932 -48 48s-21.4932 48 -48 48h-96c-26.5068 0 -48 -21.4932 -48 -48s-21.4932 -48 -48 -48h-96z" />
    <glyph glyph-name="Atilde" unicode="&#xc3;" 
d="M574 480c26.5068 0 48 -21.4932 48 -48v-384c0 -26.5068 -21.4932 -48 -48 -48h-96c-26.5068 -0 -48 21.4932 -48 48v96c0 26.5068 -21.4932 48 -48 48h-96c-26.5068 0 -48 -21.4932 -48 -48v-96c0 -26.5068 -21.4932 -48 -48 -48h-96c-26.5068 -0 -48 21.4932 -48 48
v288c0 26.5068 21.4932 48 48 48s48 21.4932 48 48s21.4932 48 48 48h384zM382 288c26.5068 0 48 21.4932 48 48s-21.4932 48 -48 48h-96c-26.5068 0 -48 -21.4932 -48 -48s21.4932 -48 48 -48h96zM574 768c26.5068 0 48 -21.4932 48 -48v-96
c0 -26.5068 -21.4932 -48 -48 -48h-288c-26.5068 0 -48 21.4932 -48 48s-21.4932 48 -48 48s-48 -21.4932 -48 -48s-21.4932 -48 -48 -48s-48 21.4932 -48 48v96c0 26.5068 21.4932 48 48 48h288c26.5068 0 48 -21.4932 48 -48s21.4932 -48 48 -48s48 21.4932 48 48
s21.4932 48 48 48z" />
    <glyph glyph-name="Adieresis" unicode="&#xc4;" 
d="M574 480c26.5068 0 48 -21.4932 48 -48v-384c0 -26.5068 -21.4932 -48 -48 -48h-96c-26.5068 -0 -48 21.4932 -48 48v96c0 26.5068 -21.4932 48 -48 48h-96c-26.5068 0 -48 -21.4932 -48 -48v-96c0 -26.5068 -21.4932 -48 -48 -48h-96c-26.5068 -0 -48 21.4932 -48 48
v288c0 26.5068 21.4932 48 48 48s48 21.4932 48 48s21.4932 48 48 48h384zM382 288c26.5068 0 48 21.4932 48 48s-21.4932 48 -48 48h-96c-26.5068 0 -48 -21.4932 -48 -48s21.4932 -48 48 -48h96zM94 576c-26.5068 0 -48 21.4932 -48 48s21.4932 48 48 48h96
c26.5068 0 48 -21.4932 48 -48s-21.4932 -48 -48 -48h-96zM478 576c-26.5068 0 -48 21.4932 -48 48s21.4932 48 48 48h96c26.5068 0 48 -21.4932 48 -48s-21.4932 -48 -48 -48h-96z" />
    <glyph glyph-name="AE" unicode="&#xc6;" horiz-adv-x="956" 
d="M910 432c0 -26.5068 -21.4932 -48 -48 -48h-192c-26.5068 0 -48 -21.4932 -48 -48s21.4932 -48 48 -48h96c26.5068 0 48 -21.4932 48 -48s-21.4932 -48 -48 -48h-96c-26.5068 0 -48 -21.4932 -48 -48s21.4932 -48 48 -48h192c26.5068 0 48 -21.4932 48 -48
s-21.4932 -48 -48 -48h-384c-26.5068 -0 -48 21.4932 -48 48v96c0 26.5068 -21.4932 48 -48 48h-96c-26.5068 0 -48 -21.4932 -48 -48v-96c0 -26.5068 -21.4932 -48 -48 -48h-96c-26.5068 -0 -48 21.4932 -48 48v288c0 26.5068 21.4932 48 48 48s48 21.4932 48 48
s21.4824 48 48 48h672c26.5068 0 48 -21.4932 48 -48zM238 336c0 -26.5068 21.4932 -48 48 -48h96c26.5068 0 48 21.4932 48 48s-21.4932 48 -48 48h-96c-26.5068 0 -48 -21.4932 -48 -48z" />
    <glyph glyph-name="Egrave" unicode="&#xc8;" 
d="M190 672c-26.5068 0 -48 21.4932 -48 48s21.4932 48 48 48h96c26.5068 0 48 -21.4932 48 -48s21.4932 -48 48 -48s48 -21.4932 48 -48s-21.4932 -48 -48 -48h-96c-26.5068 0 -48 21.4932 -48 48s-21.4932 48 -48 48zM574 480c26.5068 0 48 -21.4932 48 -48v-96
c0 -26.5068 -21.4932 -48 -48 -48s-48 21.4932 -48 48s-21.4932 48 -48 48h-192c-26.5068 0 -48 -21.4932 -48 -48s21.4932 -48 48 -48h96c26.5068 0 48 -21.4932 48 -48s-21.4932 -48 -48 -48h-96c-26.5068 0 -48 -21.4932 -48 -48s21.4932 -48 48 -48h192
c26.5068 0 48 21.4932 48 48s21.4932 48 48 48s48 -21.4932 48 -48v-96c0 -26.5068 -21.4932 -48 -48 -48h-384c-26.5068 -0 -48 21.4932 -48 48s-21.4932 48 -48 48s-48 21.4932 -48 48v192c0 26.5068 21.4932 48 48 48s48 21.4932 48 48s21.4932 48 48 48h384z" />
    <glyph glyph-name="Eacute" unicode="&#xc9;" 
d="M190 576c-26.5068 0 -48 21.4932 -48 48s21.4932 48 48 48s48 21.4932 48 48s21.4932 48 48 48h96c26.5068 0 48 -21.4932 48 -48s-21.4932 -48 -48 -48s-48 -21.4932 -48 -48s-21.4932 -48 -48 -48h-96zM574 480c26.5068 0 48 -21.4932 48 -48v-96
c0 -26.5068 -21.4932 -48 -48 -48s-48 21.4932 -48 48s-21.4932 48 -48 48h-192c-26.5068 0 -48 -21.4932 -48 -48s21.4932 -48 48 -48h96c26.5068 0 48 -21.4932 48 -48s-21.4932 -48 -48 -48h-96c-26.5068 0 -48 -21.4932 -48 -48s21.4932 -48 48 -48h192
c26.5068 0 48 21.4932 48 48s21.4932 48 48 48s48 -21.4932 48 -48v-96c0 -26.5068 -21.4932 -48 -48 -48h-384c-26.5068 -0 -48 21.4932 -48 48s-21.4932 48 -48 48s-48 21.4932 -48 48v192c0 26.5068 21.4932 48 48 48s48 21.4932 48 48s21.4932 48 48 48h384z" />
    <glyph glyph-name="Ecircumflex" unicode="&#xca;" 
d="M94 576c-26.5068 0 -48 21.4932 -48 48s21.4932 48 48 48s48 21.4932 48 48s21.4932 48 48 48h288c26.5068 0 48 -21.4932 48 -48s21.4932 -48 48 -48s48 -21.4932 48 -48s-21.4932 -48 -48 -48h-96c-26.5068 0 -48 21.4932 -48 48s-21.4932 48 -48 48h-96
c-26.5068 0 -48 -21.4932 -48 -48s-21.4932 -48 -48 -48h-96zM574 480c26.5068 0 48 -21.4932 48 -48v-96c0 -26.5068 -21.4932 -48 -48 -48s-48 21.4932 -48 48s-21.4932 48 -48 48h-192c-26.5068 0 -48 -21.4932 -48 -48s21.4932 -48 48 -48h96
c26.5068 0 48 -21.4932 48 -48s-21.4932 -48 -48 -48h-96c-26.5068 0 -48 -21.4932 -48 -48s21.4932 -48 48 -48h192c26.5068 0 48 21.4932 48 48s21.4932 48 48 48s48 -21.4932 48 -48v-96c0 -26.5068 -21.4932 -48 -48 -48h-384c-26.5068 -0 -48 21.4932 -48 48
s-21.4932 48 -48 48s-48 21.4932 -48 48v192c0 26.5068 21.4932 48 48 48s48 21.4932 48 48s21.4932 48 48 48h384z" />
    <glyph glyph-name="Edieresis" unicode="&#xcb;" 
d="M94 576c-26.5068 0 -48 21.4932 -48 48s21.4932 48 48 48h96c26.5068 0 48 -21.4932 48 -48s-21.4932 -48 -48 -48h-96zM478 576c-26.5068 0 -48 21.4932 -48 48s21.4932 48 48 48h96c26.5068 0 48 -21.4932 48 -48s-21.4932 -48 -48 -48h-96zM574 480
c26.5068 0 48 -21.4932 48 -48v-96c0 -26.5068 -21.4932 -48 -48 -48s-48 21.4932 -48 48s-21.4932 48 -48 48h-192c-26.5068 0 -48 -21.4932 -48 -48s21.4932 -48 48 -48h96c26.5068 0 48 -21.4932 48 -48s-21.4932 -48 -48 -48h-96c-26.5068 0 -48 -21.4932 -48 -48
s21.4932 -48 48 -48h192c26.5068 0 48 21.4932 48 48s21.4932 48 48 48s48 -21.4932 48 -48v-96c0 -26.5068 -21.4932 -48 -48 -48h-384c-26.5068 -0 -48 21.4932 -48 48s-21.4932 48 -48 48s-48 21.4932 -48 48v192c0 26.5068 21.4932 48 48 48s48 21.4932 48 48
s21.4932 48 48 48h384z" />
    <glyph glyph-name="Igrave" unicode="&#xcc;" 
d="M190 672c-26.5068 0 -48 21.4932 -48 48s21.4932 48 48 48h96c26.5068 0 48 -21.4932 48 -48s21.4932 -48 48 -48s48 -21.4932 48 -48s-21.4932 -48 -48 -48h-96c-26.5068 0 -48 21.4932 -48 48s-21.4932 48 -48 48zM574 480c26.5068 0 48 -21.4932 48 -48v-96
c0 -26.5068 -21.4932 -48 -48 -48s-48 21.4932 -48 48s-21.4932 48 -48 48s-48 -21.4932 -48 -48v-192c0 -26.5068 21.4932 -48 48 -48s48 21.4932 48 48s21.4932 48 48 48s48 -21.4932 48 -48v-96c0 -26.5068 -21.4932 -48 -48 -48h-480c-26.5068 -0 -48 21.4932 -48 48v96
c0 26.5068 21.4932 48 48 48s48 -21.4932 48 -48s21.4932 -48 48 -48s48 21.4932 48 48v192c0 26.5068 -21.4932 48 -48 48s-48 -21.4932 -48 -48s-21.4932 -48 -48 -48s-48 21.4932 -48 48v96c0 26.5068 21.4932 48 48 48h480z" />
    <glyph glyph-name="Iacute" unicode="&#xcd;" 
d="M286 576c-26.5068 0 -48 21.4932 -48 48s21.4932 48 48 48s48 21.4932 48 48s21.4932 48 48 48h96c26.5068 0 48 -21.4932 48 -48s-21.4932 -48 -48 -48s-48 -21.4932 -48 -48s-21.4932 -48 -48 -48h-96zM574 480c26.5068 0 48 -21.4932 48 -48v-96
c0 -26.5068 -21.4932 -48 -48 -48s-48 21.4932 -48 48s-21.4932 48 -48 48s-48 -21.4932 -48 -48v-192c0 -26.5068 21.4932 -48 48 -48s48 21.4932 48 48s21.4932 48 48 48s48 -21.4932 48 -48v-96c0 -26.5068 -21.4932 -48 -48 -48h-480c-26.5068 -0 -48 21.4932 -48 48v96
c0 26.5068 21.4932 48 48 48s48 -21.4932 48 -48s21.4932 -48 48 -48s48 21.4932 48 48v192c0 26.5068 -21.4932 48 -48 48s-48 -21.4932 -48 -48s-21.4932 -48 -48 -48s-48 21.4932 -48 48v96c0 26.5068 21.4932 48 48 48h480z" />
    <glyph glyph-name="Icircumflex" unicode="&#xce;" 
d="M94 576c-26.5068 0 -48 21.4932 -48 48s21.4932 48 48 48s48 21.4932 48 48s21.4932 48 48 48h288c26.5068 0 48 -21.4932 48 -48s21.4932 -48 48 -48s48 -21.4932 48 -48s-21.4932 -48 -48 -48h-96c-26.5068 0 -48 21.4932 -48 48s-21.4932 48 -48 48h-96
c-26.5068 0 -48 -21.4932 -48 -48s-21.4932 -48 -48 -48h-96zM574 480c26.5068 0 48 -21.4932 48 -48v-96c0 -26.5068 -21.4932 -48 -48 -48s-48 21.4932 -48 48s-21.4932 48 -48 48s-48 -21.4932 -48 -48v-192c0 -26.5068 21.4932 -48 48 -48s48 21.4932 48 48
s21.4932 48 48 48s48 -21.4932 48 -48v-96c0 -26.5068 -21.4932 -48 -48 -48h-480c-26.5068 -0 -48 21.4932 -48 48v96c0 26.5068 21.4932 48 48 48s48 -21.4932 48 -48s21.4932 -48 48 -48s48 21.4932 48 48v192c0 26.5068 -21.4932 48 -48 48s-48 -21.4932 -48 -48
s-21.4932 -48 -48 -48s-48 21.4932 -48 48v96c0 26.5068 21.4932 48 48 48h480z" />
    <glyph glyph-name="Idieresis" unicode="&#xcf;" horiz-adv-x="669" 
d="M94 576c-26.5068 0 -48 21.4932 -48 48s21.4932 48 48 48h96c26.5068 0 48 -21.4932 48 -48s-21.4932 -48 -48 -48h-96zM478 576c-26.5068 0 -48 21.4932 -48 48s21.4932 48 48 48h96c26.5068 0 48 -21.4932 48 -48s-21.4932 -48 -48 -48h-96zM574 480
c26.5068 0 48 -21.4932 48 -48v-96c0 -26.5068 -21.4932 -48 -48 -48s-48 21.4932 -48 48s-21.4932 48 -48 48s-48 -21.4932 -48 -48v-192c0 -26.5068 21.4932 -48 48 -48s48 21.4932 48 48s21.4932 48 48 48s48 -21.4932 48 -48v-96c0 -26.5068 -21.4932 -48 -48 -48h-480
c-26.5068 -0 -48 21.4932 -48 48v96c0 26.5068 21.4932 48 48 48s48 -21.4932 48 -48s21.4932 -48 48 -48s48 21.4932 48 48v192c0 26.5068 -21.4932 48 -48 48s-48 -21.4932 -48 -48s-21.4932 -48 -48 -48s-48 21.4932 -48 48v96c0 26.5068 21.4932 48 48 48h480z" />
    <glyph glyph-name="Ntilde" unicode="&#xd1;" 
d="M574 768c26.5068 0 48 -21.4932 48 -48v-96c0 -26.5068 -21.4932 -48 -48 -48h-288c-26.5068 0 -48 21.4932 -48 48s-21.4932 48 -48 48s-48 -21.4932 -48 -48s-21.4932 -48 -48 -48s-48 21.4932 -48 48v96c0 26.5068 21.4932 48 48 48h288c26.5068 0 48 -21.4932 48 -48
s21.4932 -48 48 -48s48 21.4932 48 48s21.4932 48 48 48zM574 480c26.5068 0 48 -21.4932 48 -48v-384c0 -26.5068 -21.4932 -48 -48 -48h-96c-26.5068 -0 -48 21.4932 -48 48s-21.4932 48 -48 48s-48 21.4932 -48 48s-21.4932 48 -48 48s-48 -21.4932 -48 -48v-96
c0 -26.5068 -21.4932 -48 -48 -48h-96c-26.5068 -0 -48 21.4932 -48 48v384c0 26.5068 21.4932 48 48 48h96c26.5068 0 48 -21.4932 48 -48s21.4932 -48 48 -48s48 -21.4932 48 -48s21.4932 -48 48 -48s48 21.4932 48 48v96c0 26.5068 21.4932 48 48 48h96z" />
    <glyph glyph-name="Ograve" unicode="&#xd2;" 
d="M190 672c-26.5068 0 -48 21.4932 -48 48s21.4932 48 48 48h96c26.5068 0 48 -21.4932 48 -48s21.4932 -48 48 -48s48 -21.4932 48 -48s-21.4932 -48 -48 -48h-96c-26.5068 0 -48 21.4932 -48 48s-21.4932 48 -48 48zM574 480c26.5068 0 48 -21.4932 48 -48v-288
c0 -26.5068 -21.4932 -48 -48 -48s-48 -21.4932 -48 -48s-21.4932 -48 -48 -48h-384c-26.5068 -0 -48 21.4932 -48 48v288c0 26.5068 21.4932 48 48 48s48 21.4932 48 48s21.4932 48 48 48h384zM430 144v192c0 26.5068 -21.4932 48 -48 48h-96
c-26.5068 0 -48 -21.4932 -48 -48v-192c0 -26.5068 21.4932 -48 48 -48h96c26.5068 0 48 21.4932 48 48z" />
    <glyph glyph-name="Oacute" unicode="&#xd3;" 
d="M190 576c-26.5068 0 -48 21.4932 -48 48s21.4932 48 48 48s48 21.4932 48 48s21.4932 48 48 48h96c26.5068 0 48 -21.4932 48 -48s-21.4932 -48 -48 -48s-48 -21.4932 -48 -48s-21.4932 -48 -48 -48h-96zM574 480c26.5068 0 48 -21.4932 48 -48v-288
c0 -26.5068 -21.4932 -48 -48 -48s-48 -21.4932 -48 -48s-21.4932 -48 -48 -48h-384c-26.5068 -0 -48 21.4932 -48 48v288c0 26.5068 21.4932 48 48 48s48 21.4932 48 48s21.4932 48 48 48h384zM430 144v192c0 26.5068 -21.4932 48 -48 48h-96
c-26.5068 0 -48 -21.4932 -48 -48v-192c0 -26.5068 21.4932 -48 48 -48h96c26.5068 0 48 21.4932 48 48z" />
    <glyph glyph-name="Ocircumflex" unicode="&#xd4;" 
d="M94 576c-26.5068 0 -48 21.4932 -48 48s21.4932 48 48 48s48 21.4932 48 48s21.4932 48 48 48h288c26.5068 0 48 -21.4932 48 -48s21.4932 -48 48 -48s48 -21.4932 48 -48s-21.4932 -48 -48 -48h-96c-26.5068 0 -48 21.4932 -48 48s-21.4932 48 -48 48h-96
c-26.5068 0 -48 -21.4932 -48 -48s-21.4932 -48 -48 -48h-96zM574 480c26.5068 0 48 -21.4932 48 -48v-288c0 -26.5068 -21.4932 -48 -48 -48s-48 -21.4932 -48 -48s-21.4932 -48 -48 -48h-384c-26.5068 -0 -48 21.4932 -48 48v288c0 26.5068 21.4932 48 48 48
s48 21.4932 48 48s21.4932 48 48 48h384zM430 144v192c0 26.5068 -21.4932 48 -48 48h-96c-26.5068 0 -48 -21.4932 -48 -48v-192c0 -26.5068 21.4932 -48 48 -48h96c26.5068 0 48 21.4932 48 48z" />
    <glyph glyph-name="Otilde" unicode="&#xd5;" 
d="M574 768c26.5068 0 48 -21.4932 48 -48v-96c0 -26.5068 -21.4932 -48 -48 -48h-288c-26.5068 0 -48 21.4932 -48 48s-21.4932 48 -48 48s-48 -21.4932 -48 -48s-21.4932 -48 -48 -48s-48 21.4932 -48 48v96c0 26.5068 21.4932 48 48 48h288c26.5068 0 48 -21.4932 48 -48
s21.4932 -48 48 -48s48 21.4932 48 48s21.4932 48 48 48zM574 480c26.5068 0 48 -21.4932 48 -48v-288c0 -26.5068 -21.4932 -48 -48 -48s-48 -21.4932 -48 -48s-21.4932 -48 -48 -48h-384c-26.5068 -0 -48 21.4932 -48 48v288c0 26.5068 21.4932 48 48 48s48 21.4932 48 48
s21.4932 48 48 48h384zM430 144v192c0 26.5068 -21.4932 48 -48 48h-96c-26.5068 0 -48 -21.4932 -48 -48v-192c0 -26.5068 21.4932 -48 48 -48h96c26.5068 0 48 21.4932 48 48z" />
    <glyph glyph-name="Odieresis" unicode="&#xd6;" 
d="M94 576c-26.5068 0 -48 21.4932 -48 48s21.4932 48 48 48h96c26.5068 0 48 -21.4932 48 -48s-21.4932 -48 -48 -48h-96zM478 576c-26.5068 0 -48 21.4932 -48 48s21.4932 48 48 48h96c26.5068 0 48 -21.4932 48 -48s-21.4932 -48 -48 -48h-96zM574 480
c26.5068 0 48 -21.4932 48 -48v-288c0 -26.5068 -21.4932 -48 -48 -48s-48 -21.4932 -48 -48s-21.4932 -48 -48 -48h-384c-26.5068 -0 -48 21.4932 -48 48v288c0 26.5068 21.4932 48 48 48s48 21.4932 48 48s21.4932 48 48 48h384zM430 144v192
c0 26.5068 -21.4932 48 -48 48h-96c-26.5068 0 -48 -21.4932 -48 -48v-192c0 -26.5068 21.4932 -48 48 -48h96c26.5068 0 48 21.4932 48 48z" />
    <glyph glyph-name="Ugrave" unicode="&#xd9;" 
d="M190 672c-26.5068 0 -48 21.4932 -48 48s21.4932 48 48 48h96c26.5068 0 48 -21.4932 48 -48s21.4932 -48 48 -48s48 -21.4932 48 -48s-21.4932 -48 -48 -48h-96c-26.5068 0 -48 21.4932 -48 48s-21.4932 48 -48 48zM574 480c26.5068 0 48 -21.4932 48 -48v-384
c0 -26.5068 -21.4932 -48 -48 -48s-48 21.4932 -48 48s-21.4932 48 -48 48s-48 -21.4932 -48 -48s-21.4932 -48 -48 -48h-288c-26.5068 -0 -48 21.4932 -48 48v384c0 26.5068 21.4932 48 48 48s48 -21.4932 48 -48v-192c0 -26.5068 21.4932 -48 48 -48h192
c26.5068 0 48 21.4932 48 48v192c0 26.5068 21.4932 48 48 48h96z" />
    <glyph glyph-name="Uacute" unicode="&#xda;" 
d="M286 576c-26.5068 0 -48 21.4932 -48 48s21.4932 48 48 48s48 21.4932 48 48s21.4932 48 48 48h96c26.5068 0 48 -21.4932 48 -48s-21.4932 -48 -48 -48s-48 -21.4932 -48 -48s-21.4932 -48 -48 -48h-96zM574 480c26.5068 0 48 -21.4932 48 -48v-384
c0 -26.5068 -21.4932 -48 -48 -48s-48 21.4932 -48 48s-21.4932 48 -48 48s-48 -21.4932 -48 -48s-21.4932 -48 -48 -48h-288c-26.5068 -0 -48 21.4932 -48 48v384c0 26.5068 21.4932 48 48 48s48 -21.4932 48 -48v-192c0 -26.5068 21.4932 -48 48 -48h192
c26.5068 0 48 21.4932 48 48v192c0 26.5068 21.4932 48 48 48h96z" />
    <glyph glyph-name="Ucircumflex" unicode="&#xdb;" 
d="M94 576c-26.5068 0 -48 21.4932 -48 48s21.4932 48 48 48s48 21.4932 48 48s21.4932 48 48 48h288c26.5068 0 48 -21.4932 48 -48s21.4932 -48 48 -48s48 -21.4932 48 -48s-21.4932 -48 -48 -48h-96c-26.5068 0 -48 21.4932 -48 48s-21.4932 48 -48 48h-96
c-26.5068 0 -48 -21.4932 -48 -48s-21.4932 -48 -48 -48h-96zM574 480c26.5068 0 48 -21.4932 48 -48v-384c0 -26.5068 -21.4932 -48 -48 -48s-48 21.4932 -48 48s-21.4932 48 -48 48s-48 -21.4932 -48 -48s-21.4932 -48 -48 -48h-288c-26.5068 -0 -48 21.4932 -48 48v384
c0 26.5068 21.4932 48 48 48s48 -21.4932 48 -48v-192c0 -26.5068 21.4932 -48 48 -48h192c26.5068 0 48 21.4932 48 48v192c0 26.5068 21.4932 48 48 48h96z" />
    <glyph glyph-name="Udieresis" unicode="&#xdc;" 
d="M94 576c-26.5068 0 -48 21.4932 -48 48s21.4932 48 48 48h96c26.5068 0 48 -21.4932 48 -48s-21.4932 -48 -48 -48h-96zM478 576c-26.5068 0 -48 21.4932 -48 48s21.4932 48 48 48h96c26.5068 0 48 -21.4932 48 -48s-21.4932 -48 -48 -48h-96zM574 480
c26.5068 0 48 -21.4932 48 -48v-384c0 -26.5068 -21.4932 -48 -48 -48s-48 21.4932 -48 48s-21.4932 48 -48 48s-48 -21.4932 -48 -48s-21.4932 -48 -48 -48h-288c-26.5068 -0 -48 21.4932 -48 48v384c0 26.5068 21.4932 48 48 48s48 -21.4932 48 -48v-192
c0 -26.5068 21.4932 -48 48 -48h192c26.5068 0 48 21.4932 48 48v192c0 26.5068 21.4932 48 48 48h96z" />
    <glyph glyph-name="germandbls" unicode="&#xdf;" 
d="M94 480h480c26.5068 0 48 -21.4932 48 -48v-96c0 -26.5068 -21.4932 -48 -48 -48s-48 -21.4932 -48 -48s21.4932 -48 48 -48s48 -21.4932 48 -48v-96c0 -26.5068 -21.4932 -48 -48 -48h-192c-26.5068 -0 -48 21.4932 -48 48s21.4932 48 48 48s48 21.4932 48 48
s-21.4932 48 -48 48h-96c-26.5068 0 -48 -21.4932 -48 -48v-96c0 -26.5068 -21.4932 -48 -48 -48h-96c-26.5068 -0 -48 21.4932 -48 48v384c0 26.5068 21.4932 48 48 48zM382 288c26.5068 0 48 21.4932 48 48s-21.4932 48 -48 48h-96c-26.5068 0 -48 -21.4932 -48 -48
s21.4932 -48 48 -48h96z" />
    <glyph glyph-name="agrave" unicode="&#xe0;" 
d="M190 672c-26.5068 0 -48 21.4932 -48 48s21.4932 48 48 48h96c26.5068 0 48 -21.4932 48 -48s21.4932 -48 48 -48s48 -21.4932 48 -48s-21.4932 -48 -48 -48h-96c-26.5068 0 -48 21.4932 -48 48s-21.4932 48 -48 48zM574 384c26.5068 0 48 -21.4932 48 -48v-288
c0 -26.5068 -21.4932 -48 -48 -48h-96c-26.5068 -0 -48 21.4932 -48 48v96c0 26.5068 -21.4932 48 -48 48h-96c-26.5068 0 -48 -21.4932 -48 -48v-96c0 -26.5068 -21.4932 -48 -48 -48h-96c-26.5068 -0 -48 21.4932 -48 48v288c0 26.5068 21.4932 48 48 48s48 21.4932 48 48
s21.4932 48 48 48h288c26.5068 0 48 -21.4932 48 -48s21.4932 -48 48 -48zM382 288c26.5068 0 48 21.4932 48 48s-21.4932 48 -48 48h-96c-26.5068 0 -48 -21.4932 -48 -48s21.4932 -48 48 -48h96z" />
    <glyph glyph-name="aacute" unicode="&#xe1;" 
d="M190 576c-26.5068 0 -48 21.4932 -48 48s21.4932 48 48 48s48 21.4932 48 48s21.4932 48 48 48h96c26.5068 0 48 -21.4932 48 -48s-21.4932 -48 -48 -48s-48 -21.4932 -48 -48s-21.4932 -48 -48 -48h-96zM574 384c26.5068 0 48 -21.4932 48 -48v-288
c0 -26.5068 -21.4932 -48 -48 -48h-96c-26.5068 -0 -48 21.4932 -48 48v96c0 26.5068 -21.4932 48 -48 48h-96c-26.5068 0 -48 -21.4932 -48 -48v-96c0 -26.5068 -21.4932 -48 -48 -48h-96c-26.5068 -0 -48 21.4932 -48 48v288c0 26.5068 21.4932 48 48 48s48 21.4932 48 48
s21.4932 48 48 48h288c26.5068 0 48 -21.4932 48 -48s21.4932 -48 48 -48zM382 288c26.5068 0 48 21.4932 48 48s-21.4932 48 -48 48h-96c-26.5068 0 -48 -21.4932 -48 -48s21.4932 -48 48 -48h96z" />
    <glyph glyph-name="acircumflex" unicode="&#xe2;" 
d="M574 384c26.5068 0 48 -21.4932 48 -48v-288c0 -26.5068 -21.4932 -48 -48 -48h-96c-26.5068 -0 -48 21.4932 -48 48v96c0 26.5068 -21.4932 48 -48 48h-96c-26.5068 0 -48 -21.4932 -48 -48v-96c0 -26.5068 -21.4932 -48 -48 -48h-96c-26.5068 -0 -48 21.4932 -48 48
v288c0 26.5068 21.4932 48 48 48s48 21.4932 48 48s21.4932 48 48 48h288c26.5068 0 48 -21.4932 48 -48s21.4932 -48 48 -48zM382 288c26.5068 0 48 21.4932 48 48s-21.4932 48 -48 48h-96c-26.5068 0 -48 -21.4932 -48 -48s21.4932 -48 48 -48h96zM94 576
c-26.5068 0 -48 21.4932 -48 48s21.4932 48 48 48s48 21.4932 48 48s21.4932 48 48 48h288c26.5068 0 48 -21.4932 48 -48s21.4932 -48 48 -48s48 -21.4932 48 -48s-21.4932 -48 -48 -48h-96c-26.5068 0 -48 21.4932 -48 48s-21.4932 48 -48 48h-96
c-26.5068 0 -48 -21.4932 -48 -48s-21.4932 -48 -48 -48h-96z" />
    <glyph glyph-name="atilde" unicode="&#xe3;" 
d="M574 384c26.5068 0 48 -21.4932 48 -48v-288c0 -26.5068 -21.4932 -48 -48 -48h-96c-26.5068 -0 -48 21.4932 -48 48v96c0 26.5068 -21.4932 48 -48 48h-96c-26.5068 0 -48 -21.4932 -48 -48v-96c0 -26.5068 -21.4932 -48 -48 -48h-96c-26.5068 -0 -48 21.4932 -48 48
v288c0 26.5068 21.4932 48 48 48s48 21.4932 48 48s21.4932 48 48 48h288c26.5068 0 48 -21.4932 48 -48s21.4932 -48 48 -48zM382 288c26.5068 0 48 21.4932 48 48s-21.4932 48 -48 48h-96c-26.5068 0 -48 -21.4932 -48 -48s21.4932 -48 48 -48h96zM574 768
c26.5068 0 48 -21.4932 48 -48v-96c0 -26.5068 -21.4932 -48 -48 -48h-288c-26.5068 0 -48 21.4932 -48 48s-21.4932 48 -48 48s-48 -21.4932 -48 -48s-21.4932 -48 -48 -48s-48 21.4932 -48 48v96c0 26.5068 21.4932 48 48 48h288c26.5068 0 48 -21.4932 48 -48
s21.4932 -48 48 -48s48 21.4932 48 48s21.4932 48 48 48z" />
    <glyph glyph-name="adieresis" unicode="&#xe4;" 
d="M574 384c26.5068 0 48 -21.4932 48 -48v-288c0 -26.5068 -21.4932 -48 -48 -48h-96c-26.5068 -0 -48 21.4932 -48 48v96c0 26.5068 -21.4932 48 -48 48h-96c-26.5068 0 -48 -21.4932 -48 -48v-96c0 -26.5068 -21.4932 -48 -48 -48h-96c-26.5068 -0 -48 21.4932 -48 48
v288c0 26.5068 21.4932 48 48 48s48 21.4932 48 48s21.4932 48 48 48h288c26.5068 0 48 -21.4932 48 -48s21.4932 -48 48 -48zM382 288c26.5068 0 48 21.4932 48 48s-21.4932 48 -48 48h-96c-26.5068 0 -48 -21.4932 -48 -48s21.4932 -48 48 -48h96zM94 576
c-26.5068 0 -48 21.4932 -48 48s21.4932 48 48 48h96c26.5068 0 48 -21.4932 48 -48s-21.4932 -48 -48 -48h-96zM478 576c-26.5068 0 -48 21.4932 -48 48s21.4932 48 48 48h96c26.5068 0 48 -21.4932 48 -48s-21.4932 -48 -48 -48h-96z" />
    <glyph glyph-name="ae" unicode="&#xe6;" horiz-adv-x="956" 
d="M910 432c0 -26.5068 -21.4932 -48 -48 -48h-192c-26.5068 0 -48 -21.4932 -48 -48s21.4932 -48 48 -48h96c26.5068 0 48 -21.4932 48 -48s-21.4932 -48 -48 -48h-96c-26.5068 0 -48 -21.4932 -48 -48s21.4932 -48 48 -48h192c26.5068 0 48 -21.4932 48 -48
s-21.4932 -48 -48 -48h-384c-26.5068 -0 -48 21.4932 -48 48v96c0 26.5068 -21.4932 48 -48 48h-96c-26.5068 0 -48 -21.4932 -48 -48v-96c0 -26.5068 -21.4932 -48 -48 -48h-96c-26.5068 -0 -48 21.4932 -48 48v288c0 26.5068 21.4932 48 48 48s48 21.4932 48 48
s21.4824 48 48 48h672c26.5068 0 48 -21.4932 48 -48zM238 336c0 -26.5068 21.4932 -48 48 -48h96c26.5068 0 48 21.4932 48 48s-21.4932 48 -48 48h-96c-26.5068 0 -48 -21.4932 -48 -48z" />
    <glyph glyph-name="egrave" unicode="&#xe8;" 
d="M574 96c26.5068 0 48 -21.4932 48 -48s-21.4932 -48 -48 -48h-384c-26.5068 -0 -48 21.4932 -48 48s-21.4932 48 -48 48s-48 21.4932 -48 48v192c0 26.5068 21.4932 48 48 48s48 21.4932 48 48s21.4932 48 48 48h384c26.5068 0 48 -21.4932 48 -48s-21.4932 -48 -48 -48
h-288c-26.5068 0 -48 -21.4932 -48 -48s21.4932 -48 48 -48h192c26.5068 0 48 -21.4932 48 -48s-21.4932 -48 -48 -48h-192c-26.5068 0 -48 -21.4932 -48 -48s21.4932 -48 48 -48h288zM190 672c-26.5068 0 -48 21.4932 -48 48s21.4932 48 48 48h96
c26.5068 0 48 -21.4932 48 -48s21.4932 -48 48 -48s48 -21.4932 48 -48s-21.4932 -48 -48 -48h-96c-26.5068 0 -48 21.4932 -48 48s-21.4932 48 -48 48z" />
    <glyph glyph-name="eacute" unicode="&#xe9;" 
d="M286 576c-26.5068 0 -48 21.4932 -48 48s21.4932 48 48 48s48 21.4932 48 48s21.4932 48 48 48h96c26.5068 0 48 -21.4932 48 -48s-21.4932 -48 -48 -48s-48 -21.4932 -48 -48s-21.4932 -48 -48 -48h-96zM574 96c26.5068 0 48 -21.4932 48 -48s-21.4932 -48 -48 -48h-384
c-26.5068 -0 -48 21.4932 -48 48s-21.4932 48 -48 48s-48 21.4932 -48 48v192c0 26.5068 21.4932 48 48 48s48 21.4932 48 48s21.4932 48 48 48h384c26.5068 0 48 -21.4932 48 -48s-21.4932 -48 -48 -48h-288c-26.5068 0 -48 -21.4932 -48 -48s21.4932 -48 48 -48h192
c26.5068 0 48 -21.4932 48 -48s-21.4932 -48 -48 -48h-192c-26.5068 0 -48 -21.4932 -48 -48s21.4932 -48 48 -48h288z" />
    <glyph glyph-name="ecircumflex" unicode="&#xea;" 
d="M94 576c-26.5068 0 -48 21.4932 -48 48s21.4932 48 48 48s48 21.4932 48 48s21.4932 48 48 48h288c26.5068 0 48 -21.4932 48 -48s21.4932 -48 48 -48s48 -21.4932 48 -48s-21.4932 -48 -48 -48h-96c-26.5068 0 -48 21.4932 -48 48s-21.4932 48 -48 48h-96
c-26.5068 0 -48 -21.4932 -48 -48s-21.4932 -48 -48 -48h-96zM286 384c-26.5068 0 -48 -21.4932 -48 -48s21.4932 -48 48 -48h192c26.5068 0 48 -21.4932 48 -48s-21.4932 -48 -48 -48h-192c-26.5068 0 -48 -21.4932 -48 -48s21.4932 -48 48 -48h288
c26.5068 0 48 -21.4932 48 -48s-21.4932 -48 -48 -48h-384c-26.5068 -0 -48 21.4932 -48 48s-21.4932 48 -48 48s-48 21.4932 -48 48v192c0 26.5068 21.4932 48 48 48s48 21.4932 48 48s21.4932 48 48 48h384c26.5068 0 48 -21.4932 48 -48s-21.4932 -48 -48 -48h-288z" />
    <glyph glyph-name="edieresis" unicode="&#xeb;" 
d="M94 576c-26.5068 0 -48 21.4932 -48 48s21.4932 48 48 48h96c26.5068 0 48 -21.4932 48 -48s-21.4932 -48 -48 -48h-96zM478 576c-26.5068 0 -48 21.4932 -48 48s21.4932 48 48 48h96c26.5068 0 48 -21.4932 48 -48s-21.4932 -48 -48 -48h-96zM286 384
c-26.5068 0 -48 -21.4932 -48 -48s21.4932 -48 48 -48h192c26.5068 0 48 -21.4932 48 -48s-21.4932 -48 -48 -48h-192c-26.5068 0 -48 -21.4932 -48 -48s21.4932 -48 48 -48h288c26.5068 0 48 -21.4932 48 -48s-21.4932 -48 -48 -48h-384c-26.5068 -0 -48 21.4932 -48 48
s-21.4932 48 -48 48s-48 21.4932 -48 48v192c0 26.5068 21.4932 48 48 48s48 21.4932 48 48s21.4932 48 48 48h384c26.5068 0 48 -21.4932 48 -48s-21.4932 -48 -48 -48h-288z" />
    <glyph glyph-name="igrave" unicode="&#xec;" 
d="M190 672c-26.5068 0 -48 21.4932 -48 48s21.4932 48 48 48h96c26.5068 0 48 -21.4932 48 -48s21.4932 -48 48 -48s48 -21.4932 48 -48s-21.4932 -48 -48 -48h-96c-26.5068 0 -48 21.4932 -48 48s-21.4932 48 -48 48zM574 96c26.5068 0 48 -21.4932 48 -48
s-21.4932 -48 -48 -48h-480c-26.5068 -0 -48 21.4932 -48 48s21.4932 48 48 48h96c26.5068 0 48 21.4932 48 48v192c0 26.5068 -21.4932 48 -48 48h-96c-26.5068 0 -48 21.4932 -48 48s21.4932 48 48 48h480c26.5068 0 48 -21.4932 48 -48s-21.4932 -48 -48 -48h-96
c-26.5068 0 -48 -21.4932 -48 -48v-192c0 -26.5068 21.4932 -48 48 -48h96z" />
    <glyph glyph-name="iacute" unicode="&#xed;" 
d="M286 576c-26.5068 0 -48 21.4932 -48 48s21.4932 48 48 48s48 21.4932 48 48s21.4932 48 48 48h96c26.5068 0 48 -21.4932 48 -48s-21.4932 -48 -48 -48s-48 -21.4932 -48 -48s-21.4932 -48 -48 -48h-96zM574 96c26.5068 0 48 -21.4932 48 -48s-21.4932 -48 -48 -48h-480
c-26.5068 -0 -48 21.4932 -48 48s21.4932 48 48 48h96c26.5068 0 48 21.4932 48 48v192c0 26.5068 -21.4932 48 -48 48h-96c-26.5068 0 -48 21.4932 -48 48s21.4932 48 48 48h480c26.5068 0 48 -21.4932 48 -48s-21.4932 -48 -48 -48h-96c-26.5068 0 -48 -21.4932 -48 -48
v-192c0 -26.5068 21.4932 -48 48 -48h96z" />
    <glyph glyph-name="icircumflex" unicode="&#xee;" horiz-adv-x="669" 
d="M94 576c-26.5068 0 -48 21.4932 -48 48s21.4932 48 48 48s48 21.4932 48 48s21.4932 48 48 48h288c26.5068 0 48 -21.4932 48 -48s21.4932 -48 48 -48s48 -21.4932 48 -48s-21.4932 -48 -48 -48h-96c-26.5068 0 -48 21.4932 -48 48s-21.4932 48 -48 48h-96
c-26.5068 0 -48 -21.4932 -48 -48s-21.4932 -48 -48 -48h-96zM478 384c-26.5068 0 -48 -21.4932 -48 -48v-192c0 -26.5068 21.4932 -48 48 -48h96c26.5068 0 48 -21.4932 48 -48s-21.4932 -48 -48 -48h-480c-26.5068 -0 -48 21.4932 -48 48s21.4932 48 48 48h96
c26.5068 0 48 21.4932 48 48v192c0 26.5068 -21.4932 48 -48 48h-96c-26.5068 0 -48 21.4932 -48 48s21.4932 48 48 48h480c26.5068 0 48 -21.4932 48 -48s-21.4932 -48 -48 -48h-96z" />
    <glyph glyph-name="idieresis" unicode="&#xef;" horiz-adv-x="669" 
d="M94 576c-26.5068 0 -48 21.4932 -48 48s21.4932 48 48 48h96c26.5068 0 48 -21.4932 48 -48s-21.4932 -48 -48 -48h-96zM478 576c-26.5068 0 -48 21.4932 -48 48s21.4932 48 48 48h96c26.5068 0 48 -21.4932 48 -48s-21.4932 -48 -48 -48h-96zM478 384
c-26.5068 0 -48 -21.4932 -48 -48v-192c0 -26.5068 21.4932 -48 48 -48h96c26.5068 0 48 -21.4932 48 -48s-21.4932 -48 -48 -48h-480c-26.5068 -0 -48 21.4932 -48 48s21.4932 48 48 48h96c26.5068 0 48 21.4932 48 48v192c0 26.5068 -21.4932 48 -48 48h-96
c-26.5068 0 -48 21.4932 -48 48s21.4932 48 48 48h480c26.5068 0 48 -21.4932 48 -48s-21.4932 -48 -48 -48h-96z" />
    <glyph glyph-name="ntilde" unicode="&#xf1;" 
d="M574 480c26.5068 0 48 -21.4932 48 -48v-384c0 -26.5068 -21.4932 -48 -48 -48h-96c-26.5068 -0 -48 21.4932 -48 48s-21.4932 48 -48 48s-48 21.4932 -48 48v96c0 26.5068 21.4932 48 48 48s48 21.4932 48 48v96c0 26.5068 21.4932 48 48 48h96zM286 384
c26.5068 0 48 -21.4932 48 -48s-21.4932 -48 -48 -48s-48 -21.4932 -48 -48v-192c0 -26.5068 -21.4932 -48 -48 -48h-96c-26.5068 -0 -48 21.4932 -48 48v384c0 26.5068 21.4932 48 48 48h96c26.5068 0 48 -21.4932 48 -48s21.4932 -48 48 -48zM574 768
c26.5068 0 48 -21.4932 48 -48v-96c0 -26.5068 -21.4932 -48 -48 -48h-288c-26.5068 0 -48 21.4932 -48 48s-21.4932 48 -48 48s-48 -21.4932 -48 -48s-21.4932 -48 -48 -48s-48 21.4932 -48 48v96c0 26.5068 21.4932 48 48 48h288c26.5068 0 48 -21.4932 48 -48
s21.4932 -48 48 -48s48 21.4932 48 48s21.4932 48 48 48z" />
    <glyph glyph-name="ograve" unicode="&#xf2;" 
d="M190 672c-26.5068 0 -48 21.4932 -48 48s21.4932 48 48 48h96c26.5068 0 48 -21.4932 48 -48s21.4932 -48 48 -48s48 -21.4932 48 -48s-21.4932 -48 -48 -48h-96c-26.5068 0 -48 21.4932 -48 48s-21.4932 48 -48 48zM574 384c26.5068 0 48 -21.4932 48 -48v-192
c0 -26.5068 -21.4932 -48 -48 -48s-48 -21.4932 -48 -48s-21.4932 -48 -48 -48h-288c-26.5068 -0 -48 21.4932 -48 48s-21.4932 48 -48 48s-48 21.4932 -48 48v192c0 26.5068 21.4932 48 48 48s48 21.4932 48 48s21.4932 48 48 48h288c26.5068 0 48 -21.4932 48 -48
s21.4932 -48 48 -48zM430 144v192c0 26.5068 -21.4932 48 -48 48h-96c-26.5068 0 -48 -21.4932 -48 -48v-192c0 -26.5068 21.4932 -48 48 -48h96c26.5068 0 48 21.4932 48 48z" />
    <glyph glyph-name="oacute" unicode="&#xf3;" 
d="M190 576c-26.5068 0 -48 21.4932 -48 48s21.4932 48 48 48s48 21.4932 48 48s21.4932 48 48 48h96c26.5068 0 48 -21.4932 48 -48s-21.4932 -48 -48 -48s-48 -21.4932 -48 -48s-21.4932 -48 -48 -48h-96zM574 384c26.5068 0 48 -21.4932 48 -48v-192
c0 -26.5068 -21.4932 -48 -48 -48s-48 -21.4932 -48 -48s-21.4932 -48 -48 -48h-288c-26.5068 -0 -48 21.4932 -48 48s-21.4932 48 -48 48s-48 21.4932 -48 48v192c0 26.5068 21.4932 48 48 48s48 21.4932 48 48s21.4932 48 48 48h288c26.5068 0 48 -21.4932 48 -48
s21.4932 -48 48 -48zM430 144v192c0 26.5068 -21.4932 48 -48 48h-96c-26.5068 0 -48 -21.4932 -48 -48v-192c0 -26.5068 21.4932 -48 48 -48h96c26.5068 0 48 21.4932 48 48z" />
    <glyph glyph-name="ocircumflex" unicode="&#xf4;" 
d="M94 576c-26.5068 0 -48 21.4932 -48 48s21.4932 48 48 48s48 21.4932 48 48s21.4932 48 48 48h288c26.5068 0 48 -21.4932 48 -48s21.4932 -48 48 -48s48 -21.4932 48 -48s-21.4932 -48 -48 -48h-96c-26.5068 0 -48 21.4932 -48 48s-21.4932 48 -48 48h-96
c-26.5068 0 -48 -21.4932 -48 -48s-21.4932 -48 -48 -48h-96zM574 384c26.5068 0 48 -21.4932 48 -48v-192c0 -26.5068 -21.4932 -48 -48 -48s-48 -21.4932 -48 -48s-21.4932 -48 -48 -48h-288c-26.5068 -0 -48 21.4932 -48 48s-21.4932 48 -48 48s-48 21.4932 -48 48v192
c0 26.5068 21.4932 48 48 48s48 21.4932 48 48s21.4932 48 48 48h288c26.5068 0 48 -21.4932 48 -48s21.4932 -48 48 -48zM430 144v192c0 26.5068 -21.4932 48 -48 48h-96c-26.5068 0 -48 -21.4932 -48 -48v-192c0 -26.5068 21.4932 -48 48 -48h96
c26.5068 0 48 21.4932 48 48z" />
    <glyph glyph-name="otilde" unicode="&#xf5;" 
d="M574 768c26.5068 0 48 -21.4932 48 -48v-96c0 -26.5068 -21.4932 -48 -48 -48h-288c-26.5068 0 -48 21.4932 -48 48s-21.4932 48 -48 48s-48 -21.4932 -48 -48s-21.4932 -48 -48 -48s-48 21.4932 -48 48v96c0 26.5068 21.4932 48 48 48h288c26.5068 0 48 -21.4932 48 -48
s21.4932 -48 48 -48s48 21.4932 48 48s21.4932 48 48 48zM574 384c26.5068 0 48 -21.4932 48 -48v-192c0 -26.5068 -21.4932 -48 -48 -48s-48 -21.4932 -48 -48s-21.4932 -48 -48 -48h-288c-26.5068 -0 -48 21.4932 -48 48s-21.4932 48 -48 48s-48 21.4932 -48 48v192
c0 26.5068 21.4932 48 48 48s48 21.4932 48 48s21.4932 48 48 48h288c26.5068 0 48 -21.4932 48 -48s21.4932 -48 48 -48zM430 144v192c0 26.5068 -21.4932 48 -48 48h-96c-26.5068 0 -48 -21.4932 -48 -48v-192c0 -26.5068 21.4932 -48 48 -48h96
c26.5068 0 48 21.4932 48 48z" />
    <glyph glyph-name="odieresis" unicode="&#xf6;" 
d="M94 576c-26.5068 0 -48 21.4932 -48 48s21.4932 48 48 48h96c26.5068 0 48 -21.4932 48 -48s-21.4932 -48 -48 -48h-96zM478 576c-26.5068 0 -48 21.4932 -48 48s21.4932 48 48 48h96c26.5068 0 48 -21.4932 48 -48s-21.4932 -48 -48 -48h-96zM574 384
c26.5068 0 48 -21.4932 48 -48v-192c0 -26.5068 -21.4932 -48 -48 -48s-48 -21.4932 -48 -48s-21.4932 -48 -48 -48h-288c-26.5068 -0 -48 21.4932 -48 48s-21.4932 48 -48 48s-48 21.4932 -48 48v192c0 26.5068 21.4932 48 48 48s48 21.4932 48 48s21.4932 48 48 48h288
c26.5068 0 48 -21.4932 48 -48s21.4932 -48 48 -48zM430 144v192c0 26.5068 -21.4932 48 -48 48h-96c-26.5068 0 -48 -21.4932 -48 -48v-192c0 -26.5068 21.4932 -48 48 -48h96c26.5068 0 48 21.4932 48 48z" />
    <glyph glyph-name="divide" unicode="&#xf7;" 
d="M574 192h-480c-26.5098 0 -48 21.4902 -48 48s21.4902 48 48 48h480c26.5098 0 48 -21.4902 48 -48s-21.4902 -48 -48 -48zM286 384c-26.5068 0 -48 21.4932 -48 48s21.4932 48 48 48h96c26.5068 0 48 -21.4932 48 -48s-21.4932 -48 -48 -48h-96zM382 0h-96
c-26.5098 -0 -48 21.4902 -48 48s21.4902 48 48 48h96c26.5098 0 48 -21.4902 48 -48s-21.4902 -48 -48 -48z" />
    <glyph glyph-name="ugrave" unicode="&#xf9;" 
d="M190 672c-26.5068 0 -48 21.4932 -48 48s21.4932 48 48 48h96c26.5068 0 48 -21.4932 48 -48s21.4932 -48 48 -48s48 -21.4932 48 -48s-21.4932 -48 -48 -48h-96c-26.5068 0 -48 21.4932 -48 48s-21.4932 48 -48 48zM574 480c26.5068 0 48 -21.4932 48 -48v-384
c0 -26.5068 -21.4932 -48 -48 -48h-384c-26.5068 -0 -48 21.4932 -48 48s-21.4932 48 -48 48s-48 21.4932 -48 48v288c0 26.5068 21.4932 48 48 48h96c26.5068 0 48 -21.4932 48 -48v-288c0 -26.5068 21.4932 -48 48 -48h96c26.5068 0 48 21.4932 48 48v288
c0 26.5068 21.4932 48 48 48h96z" />
    <glyph glyph-name="uacute" unicode="&#xfa;" 
d="M286 576c-26.5068 0 -48 21.4932 -48 48s21.4932 48 48 48s48 21.4932 48 48s21.4932 48 48 48h96c26.5068 0 48 -21.4932 48 -48s-21.4932 -48 -48 -48s-48 -21.4932 -48 -48s-21.4932 -48 -48 -48h-96zM574 480c26.5068 0 48 -21.4932 48 -48v-384
c0 -26.5068 -21.4932 -48 -48 -48h-384c-26.5068 -0 -48 21.4932 -48 48s-21.4932 48 -48 48s-48 21.4932 -48 48v288c0 26.5068 21.4932 48 48 48h96c26.5068 0 48 -21.4932 48 -48v-288c0 -26.5068 21.4932 -48 48 -48h96c26.5068 0 48 21.4932 48 48v288
c0 26.5068 21.4932 48 48 48h96z" />
    <glyph glyph-name="ucircumflex" unicode="&#xfb;" 
d="M94 576c-26.5068 0 -48 21.4932 -48 48s21.4932 48 48 48s48 21.4932 48 48s21.4932 48 48 48h288c26.5068 0 48 -21.4932 48 -48s21.4932 -48 48 -48s48 -21.4932 48 -48s-21.4932 -48 -48 -48h-96c-26.5068 0 -48 21.4932 -48 48s-21.4932 48 -48 48h-96
c-26.5068 0 -48 -21.4932 -48 -48s-21.4932 -48 -48 -48h-96zM574 480c26.5068 0 48 -21.4932 48 -48v-384c0 -26.5068 -21.4932 -48 -48 -48h-384c-26.5068 -0 -48 21.4932 -48 48s-21.4932 48 -48 48s-48 21.4932 -48 48v288c0 26.5068 21.4932 48 48 48h96
c26.5068 0 48 -21.4932 48 -48v-288c0 -26.5068 21.4932 -48 48 -48h96c26.5068 0 48 21.4932 48 48v288c0 26.5068 21.4932 48 48 48h96z" />
    <glyph glyph-name="udieresis" unicode="&#xfc;" horiz-adv-x="669" 
d="M94 576c-26.5068 0 -48 21.4932 -48 48s21.4932 48 48 48h96c26.5068 0 48 -21.4932 48 -48s-21.4932 -48 -48 -48h-96zM478 576c-26.5068 0 -48 21.4932 -48 48s21.4932 48 48 48h96c26.5068 0 48 -21.4932 48 -48s-21.4932 -48 -48 -48h-96zM574 480
c26.5068 0 48 -21.4932 48 -48v-384c0 -26.5068 -21.4932 -48 -48 -48h-384c-26.5068 -0 -48 21.4932 -48 48s-21.4932 48 -48 48s-48 21.4932 -48 48v288c0 26.5068 21.4932 48 48 48h96c26.5068 0 48 -21.4932 48 -48v-288c0 -26.5068 21.4932 -48 48 -48h96
c26.5068 0 48 21.4932 48 48v288c0 26.5068 21.4932 48 48 48h96z" />
    <glyph glyph-name="Nacute" unicode="&#x143;" 
d="M574 480c26.5068 0 48 -21.4932 48 -48v-384c0 -26.5068 -21.4932 -48 -48 -48h-96c-26.5068 -0 -48 21.4932 -48 48s-21.4932 48 -48 48s-48 21.4932 -48 48s-21.4932 48 -48 48s-48 -21.4932 -48 -48v-96c0 -26.5068 -21.4932 -48 -48 -48h-96
c-26.5068 -0 -48 21.4932 -48 48v384c0 26.5068 21.4932 48 48 48h96c26.5068 0 48 -21.4932 48 -48s21.4932 -48 48 -48s48 -21.4932 48 -48s21.4932 -48 48 -48s48 21.4932 48 48v96c0 26.5068 21.4932 48 48 48h96zM286 576c-26.5068 0 -48 21.4932 -48 48
s21.4932 48 48 48s48 21.4932 48 48s21.4932 48 48 48h96c26.5068 0 48 -21.4932 48 -48s-21.4932 -48 -48 -48s-48 -21.4932 -48 -48s-21.4932 -48 -48 -48h-96z" />
    <glyph glyph-name="nacute" unicode="&#x144;" 
d="M285.989 576c-26.5068 0 -48 21.4932 -48 48s21.4932 48 48 48s48 21.4932 48 48s21.4932 48 48 48h96c26.5068 0 48 -21.4932 48 -48s-21.4932 -48 -48 -48s-48 -21.4932 -48 -48s-21.4932 -48 -48 -48h-96zM574 480c26.5068 0 48 -21.4932 48 -48v-384
c0 -26.5068 -21.4932 -48 -48 -48h-96c-26.5068 -0 -48 21.4932 -48 48s-21.4932 48 -48 48s-48 21.4932 -48 48v96c0 26.5068 21.4932 48 48 48s48 21.4932 48 48v96c0 26.5068 21.4932 48 48 48h96zM286 384c26.5068 0 48 -21.4932 48 -48s-21.4932 -48 -48 -48
s-48 -21.4932 -48 -48v-192c0 -26.5068 -21.4932 -48 -48 -48h-96c-26.5068 -0 -48 21.4932 -48 48v384c0 26.5068 21.4932 48 48 48h96c26.5068 0 48 -21.4932 48 -48s21.4932 -48 48 -48z" />
    <glyph glyph-name="OE" unicode="&#x152;" horiz-adv-x="956" 
d="M910 432c0 -26.5068 -21.4932 -48 -48 -48h-192c-26.5068 0 -48 -21.4932 -48 -48s21.4932 -48 48 -48h96c26.5068 0 48 -21.4932 48 -48s-21.4932 -48 -48 -48h-96c-26.5068 0 -48 -21.4932 -48 -48s21.4932 -48 48 -48h192c26.5068 0 48 -21.4932 48 -48
s-21.4932 -48 -48 -48h-672c-26.5068 -0 -48 21.4932 -48 48s-21.4932 48 -48 48s-48 21.4932 -48 48v192c0 26.5068 21.4932 48 48 48s48 21.4932 48 48s21.4932 48 48 48h672c26.5068 0 48 -21.4932 48 -48zM238 144c0 -26.5068 21.4932 -48 48 -48h96
c26.5068 0 48 21.4932 48 48v192c0 26.5068 -21.4932 48 -48 48h-96c-26.5068 0 -48 -21.4932 -48 -48v-192z" />
    <glyph glyph-name="oe" unicode="&#x153;" horiz-adv-x="956" 
d="M910 432c0 -26.5068 -21.4932 -48 -48 -48h-192c-26.5068 0 -48 -21.4932 -48 -48s21.4932 -48 48 -48h96c26.5068 0 48 -21.4932 48 -48s-21.4932 -48 -48 -48h-96c-26.5068 0 -48 -21.4932 -48 -48s21.4932 -48 48 -48h192c26.5068 0 48 -21.4932 48 -48
s-21.4932 -48 -48 -48h-672c-26.5068 -0 -48 21.4932 -48 48s-21.4932 48 -48 48s-48 21.4932 -48 48v192c0 26.5068 21.4932 48 48 48s48 21.4932 48 48s21.4932 48 48 48h672c26.5068 0 48 -21.4932 48 -48zM238 144c0 -26.5068 21.4932 -48 48 -48h96
c26.5068 0 48 21.4932 48 48v192c0 26.5068 -21.4932 48 -48 48h-96c-26.5068 0 -48 -21.4932 -48 -48v-192z" />
    <glyph glyph-name="uni01f8" unicode="&#x1f8;" 
d="M574 480c26.5068 0 48 -21.4932 48 -48v-384c0 -26.5068 -21.4932 -48 -48 -48h-96c-26.5068 -0 -48 21.4932 -48 48s-21.4932 48 -48 48s-48 21.4932 -48 48s-21.4932 48 -48 48s-48 -21.4932 -48 -48v-96c0 -26.5068 -21.4932 -48 -48 -48h-96
c-26.5068 -0 -48 21.4932 -48 48v384c0 26.5068 21.4932 48 48 48h96c26.5068 0 48 -21.4932 48 -48s21.4932 -48 48 -48s48 -21.4932 48 -48s21.4932 -48 48 -48s48 21.4932 48 48v96c0 26.5068 21.4932 48 48 48h96zM190 672c-26.5068 0 -48 21.4932 -48 48
s21.4932 48 48 48h96c26.5068 0 48 -21.4932 48 -48s21.4932 -48 48 -48s48 -21.4932 48 -48s-21.4932 -48 -48 -48h-96c-26.5068 0 -48 21.4932 -48 48s-21.4932 48 -48 48z" />
    <glyph glyph-name="uni01f9" unicode="&#x1f9;" 
d="M574 480c26.5068 0 48 -21.4932 48 -48v-384c0 -26.5068 -21.4932 -48 -48 -48h-96c-26.5068 -0 -48 21.4932 -48 48s-21.4932 48 -48 48s-48 21.4932 -48 48v96c0 26.5068 21.4932 48 48 48s48 21.4932 48 48v96c0 26.5068 21.4932 48 48 48h96zM286 384
c26.5068 0 48 -21.4932 48 -48s-21.4932 -48 -48 -48s-48 -21.4932 -48 -48v-192c0 -26.5068 -21.4932 -48 -48 -48h-96c-26.5068 -0 -48 21.4932 -48 48v384c0 26.5068 21.4932 48 48 48h96c26.5068 0 48 -21.4932 48 -48s21.4932 -48 48 -48zM190 672
c-26.5068 0 -48 21.4932 -48 48s21.4932 48 48 48h96c26.5068 0 48 -21.4932 48 -48s21.4932 -48 48 -48s48 -21.4932 48 -48s-21.4932 -48 -48 -48h-96c-26.5068 0 -48 21.4932 -48 48s-21.4932 48 -48 48z" />
    <glyph glyph-name="mugreek" unicode="&#x3bc;" 
d="M574 480c26.5068 0 48 -21.4932 48 -48v-384c0 -26.5068 -21.4932 -48 -48 -48s-48 21.4932 -48 48s-21.4932 48 -48 48s-48 -21.4932 -48 -48s-21.4932 -48 -48 -48h-192c-26.5068 0 -48 -21.4932 -48 -48s-21.4932 -48 -48 -48s-48 21.4932 -48 48v480
c0 26.5068 21.4932 48 48 48s48 -21.4932 48 -48v-192c0 -26.5068 21.4932 -48 48 -48h192c26.5068 0 48 21.4932 48 48v192c0 26.5068 21.4932 48 48 48h96z" />
    <glyph glyph-name="emdash" unicode="&#x2014;" 
d="M574 192h-480c-26.5098 0 -48 21.4902 -48 48s21.4902 48 48 48h480c26.5098 0 48 -21.4902 48 -48s-21.4902 -48 -48 -48z" />
    <glyph glyph-name="quoteright" unicode="&#x2019;" horiz-adv-x="284" 
d="M190 480c26.5068 0 48 -21.4932 48 -48v-96c0 -26.5068 -21.4932 -48 -48 -48s-48 -21.4932 -48 -48s-21.4932 -48 -48 -48s-48 21.4932 -48 48v192c0 26.5068 21.4932 48 48 48h96z" />
    <glyph glyph-name="quotedblright" unicode="&#x201d;" horiz-adv-x="572" 
d="M478 480c26.5068 0 48 -21.4932 48 -48v-96c0 -26.5068 -21.4932 -48 -48 -48s-48 -21.4932 -48 -48s-21.4932 -48 -48 -48s-48 21.4932 -48 48v192c0 26.5068 21.4932 48 48 48h96zM190 480c26.5068 0 48 -21.4932 48 -48v-96c0 -26.5068 -21.4932 -48 -48 -48
s-48 -21.4932 -48 -48s-21.4932 -48 -48 -48s-48 21.4932 -48 48v192c0 26.5068 21.4932 48 48 48h96z" />
    <glyph glyph-name="trademark" unicode="&#x2122;" horiz-adv-x="860" 
d="M286 480c26.5068 0 48 -21.4932 48 -48s-21.4932 -48 -48 -48s-48 -21.4932 -48 -48s-21.4932 -48 -48 -48s-48 21.4932 -48 48s-21.4932 48 -48 48s-48 21.4932 -48 48s21.4932 48 48 48h192zM766 480c26.5068 0 48 -21.4932 48 -48v-96
c0 -26.5068 -21.4932 -48 -48 -48h-96c-26.5068 0 -48 21.4932 -48 48s-21.4932 48 -48 48s-48 -21.4932 -48 -48s-21.4932 -48 -48 -48s-48 21.4932 -48 48v96c0 26.5068 21.4932 48 48 48h288z" />
    <glyph glyph-name="underscoremonospace" unicode="&#xff3f;" horiz-adv-x="572" 
d="M478 0h-384c-26.5098 -0 -48 21.4902 -48 48s21.4902 48 48 48h384c26.5098 0 48 -21.4902 48 -48s-21.4902 -48 -48 -48z" />
  </font>
</defs>
</svg>
