<svg width="240" height="83" viewBox="0 0 240 83" fill="none" xmlns="http://www.w3.org/2000/svg">
<g clip-path="url(#clip0_256_78)">
<path d="M239.956 45.3695C239.747 44.7894 238.894 44.651 238.385 44.6127C235.932 44.4242 233.423 44.651 230.965 44.7069C228.441 44.7658 225.917 44.8188 223.397 44.8512C218.529 44.9131 213.635 44.9337 208.779 44.5273C207.858 44.4507 206.941 44.3535 206.026 44.2328C205.873 44.2122 205.711 44.1974 205.55 44.1798C206.829 43.3257 208.088 42.1919 208.338 40.6812C209.026 36.52 201.329 38.5785 201.329 42.1389C201.329 42.7868 201.361 43.4907 201.597 44.0944C201.135 44.3094 200.67 44.5096 200.211 44.6922C199.194 45.1015 198.158 45.4432 197.082 45.667C196.273 45.8348 195.452 45.8466 194.644 45.935C194.858 45.9703 194.964 46.091 194.694 46.4003C194.72 46.3708 194.673 46.1293 194.641 45.935C194.455 45.9556 194.27 45.9791 194.085 46.0115C193.417 46.1293 194.229 45.8702 194.641 45.935C194.623 45.8348 194.608 45.7435 194.608 45.7023C194.617 44.9631 194.835 44.2387 195.182 43.5908C195.399 43.1873 195.658 42.8133 195.949 42.4688C196.758 41.8297 197.576 41.2054 198.429 40.6282C199.911 39.621 196.817 38.4784 195.902 38.9083C194.799 39.4237 193.62 40.2601 192.708 41.2937C191.591 42.2067 190.482 43.1343 189.305 43.9707C188.414 44.6038 187.482 45.2812 186.485 45.7759C186.526 45.4638 186.567 45.1987 186.57 45.184C186.614 45.022 186.599 44.8718 186.546 44.7334C186.855 44.0561 187.02 43.3846 186.87 42.8487C186.573 41.7797 185.467 41.3762 184.314 41.3968C184.349 41.3468 184.382 41.2967 184.417 41.2466C185.196 40.1482 182.473 39.6357 181.785 40.3573C179.305 42.9458 176.776 45.5551 173.923 47.7373C173.805 47.8256 172.111 48.8534 171.17 49.3629C171.152 49.2068 171.158 49.0478 171.19 48.8858C171.226 48.4264 171.423 47.9611 171.617 47.5488C171.696 47.3809 171.787 47.2189 171.873 47.054C171.881 47.0423 171.89 47.0305 171.902 47.0187C178.27 39.0173 184.638 31.0159 191.005 23.0145C191.876 21.919 189.058 21.3978 188.396 21.8778C181.311 27.0314 176.234 34.2819 171.711 41.6766C171.079 42.7132 169.555 44.6893 168.72 46.6241C166.614 49.2775 164.508 51.9308 162.399 54.5842C160.311 54.7462 158.22 54.9141 156.131 55.0908C157.537 52.0339 159.099 49.0478 160.808 46.147C163.884 43.1697 166.92 40.1452 169.867 37.0442C171.829 34.9798 173.79 32.886 175.543 30.636C176.137 29.8733 177.743 28.1888 177.382 27.0609C177.182 26.4365 176.376 26.2039 175.796 26.2068C174.002 26.2157 172.258 27.7323 171.076 28.9191C167.761 32.2498 164.808 36.0282 162.102 39.8654C160.281 42.4452 158.59 45.1104 157.022 47.8521C155.855 48.9624 154.667 50.0549 153.446 51.0974C153.155 51.3448 152.722 51.76 152.275 52.0899C153.067 50.6792 153.602 49.1125 153.808 47.8286C153.984 46.7301 152.081 46.2883 151.331 46.4915C151.008 46.5799 150.708 46.7301 150.428 46.9303C150.037 46.7978 149.625 46.7389 149.322 46.7389C145.79 46.7389 140.561 52.458 144.816 55.1438C145.566 55.6179 146.287 55.8564 146.972 55.9094C145.719 56.0302 144.466 56.1509 143.216 56.2776C140.628 56.5367 138.043 56.8106 135.458 57.0933C138.899 50.9325 141.99 44.5302 144.955 38.1397C148.228 31.0807 151.514 23.8745 153.746 16.4032C154.04 15.4225 151.519 14.9454 151.199 15.9909C149.331 22.0751 146.705 27.9444 144.061 33.7194C140.928 40.5605 137.649 47.3927 133.913 53.9275C133.231 55.1202 132.543 56.3129 131.846 57.4997C130.525 57.6499 129.202 57.806 127.881 57.965C130.631 46.733 135.29 35.9605 139.625 25.2821C140.169 23.9422 137.322 23.2413 136.725 24.3015C130.352 35.5717 125.469 47.7726 119.101 59.0694C113.975 59.7467 108.854 60.48 103.742 61.2722C104.769 57.7942 105.91 54.3398 107.131 50.9148C109.807 50.9296 112.49 51.0974 115.228 51.3006C115.781 51.3419 116.578 51.0444 116.572 50.4024C116.566 49.7045 115.634 49.41 115.107 49.2833C112.834 48.7444 110.451 48.4705 108.045 48.3969C109.804 43.635 111.707 38.929 113.678 34.2819C117.101 26.2098 120.916 18.3085 125.063 10.5869C125.422 10.5692 125.74 10.4573 125.869 10.2306C127.369 7.55364 128.646 4.78245 129.869 1.9671C130.437 0.659547 127.599 -0.0384018 127.01 1.00116C121.343 11.0051 116.257 21.3241 111.716 31.8876C109.384 37.3151 107.137 42.8251 105.095 48.4058C101.939 48.5147 98.7894 48.9241 95.8159 49.5072C91.5864 50.3347 87.5422 51.6894 83.651 53.4357C83.3539 52.829 82.9833 52.2459 82.6804 51.6629C82.448 51.2123 81.9657 50.0137 82.148 49.248C82.4216 48.9859 82.6922 48.7238 82.9598 48.4617C84.5775 46.8773 81.0392 46.0498 79.9715 46.4268C79.0657 46.7478 78.4627 47.3574 78.1362 48.1113C76.3039 49.8841 74.348 51.5009 72.3273 53.0352C72.6921 52.0162 73.1626 51.0297 73.7626 50.0814C74.4274 49.036 71.7185 48.235 71.1832 49.2097C70.4744 50.0549 69.8567 50.9561 69.3361 51.9043C67.5214 54.0983 65.2155 55.8829 62.739 57.3377C63.6419 55.9683 65.042 54.702 64.792 52.9704C64.6008 51.6422 63.5978 50.7617 62.3772 50.3553C62.5596 50.105 62.7419 49.8576 62.9184 49.6043C63.839 48.285 60.8125 47.6224 60.036 48.0288C58.9625 48.5942 58.1536 49.407 57.9007 50.5232C55.5242 53.471 52.8153 56.1244 49.8241 58.4274C50.6506 56.5132 51.4183 54.5724 52.13 52.617C52.8536 50.6292 52.7859 48.1172 50.2329 47.6842C50.0182 47.6489 49.8124 47.6371 49.6153 47.6401C49.9918 46.8891 50.3682 46.1382 50.7506 45.3931C55.6124 35.931 61.0243 26.7664 66.8714 17.8815C70.5332 12.3156 74.3568 6.85569 78.2627 1.46057C79.1127 0.285541 76.0039 -0.57438 75.2333 0.435732C66.7184 11.5764 58.0801 22.6405 49.1535 33.4543C44.6799 38.8701 40.1593 44.2475 35.5828 49.5749C31.2739 54.596 27.0033 59.6907 22.4091 64.4556C20.2208 66.7262 17.9208 68.8966 15.4384 70.8432C13.2031 72.5954 10.2001 75.1752 7.26478 75.4461C4.70887 75.6817 3.82356 72.728 3.61473 70.693C3.36473 68.287 3.92356 65.9193 4.52357 63.6075C7.37066 52.6435 12.7531 42.3539 18.9061 32.9095C22.1561 27.9208 25.7827 23.15 29.8651 18.8121C31.6504 16.9156 33.5563 15.1339 35.5622 13.473C36.4298 12.7544 37.321 12.0653 38.2416 11.4144C38.5446 11.1995 38.8505 10.9815 39.1622 10.7754C38.8416 12.6719 38.2446 14.4948 37.3269 16.2294C36.0769 18.5883 41.6593 20.0578 42.7329 18.0582C43.624 16.3943 44.3388 14.6156 44.7652 12.7721C45.1594 11.0699 45.8388 8.75517 44.2623 7.53891C41.2123 5.18591 37.1887 6.36388 34.2857 8.2722C29.8298 11.1995 26.0062 15.0927 22.5356 19.1096C14.1296 28.8426 7.47066 40.3013 3.3912 52.511C2.38531 55.5266 1.5353 58.5952 0.908819 61.711C0.367636 64.4056 -0.164723 67.1974 0.0558678 69.9568C0.258811 72.5218 1.22647 75.1369 3.52944 76.5151C6.34418 78.1997 9.66187 77.5547 12.406 76.0852C18.6414 72.7515 23.7267 67.4212 28.3886 62.2057C33.7092 56.2569 38.8652 50.1492 43.9888 44.0325C47.8212 39.459 51.6212 34.8591 55.3918 30.2355C50.1888 38.9614 45.38 47.9287 41.0593 57.2023C38.2652 63.1952 35.2651 69.303 33.4857 75.6847C33.1916 76.7419 35.7122 77.163 36.1681 76.3473C38.874 71.4881 40.927 66.2609 43.1858 61.172C43.5005 61.0778 43.7593 60.9129 43.9123 60.6596C44.4241 59.8115 44.9358 58.9663 45.4505 58.1181C44.7094 59.7114 43.9329 61.2869 43.1358 62.8536C42.177 64.7384 45.8241 65.0299 46.8153 64.4556C52.033 61.4253 56.6713 57.4438 60.4978 52.7849C60.7213 52.726 60.9243 52.6376 61.086 52.5051C61.1419 52.4757 61.186 52.4521 61.2243 52.4285C61.3037 52.5463 61.3537 52.6789 61.3684 52.829C61.4331 53.1294 61.3684 53.4622 61.2831 53.7479C61.0743 54.4576 60.5978 55.0819 60.2095 55.6974C59.4213 56.9549 58.7566 58.1535 59.2948 59.6525C59.6184 60.5507 61.0743 60.7421 61.7978 60.2621C63.9714 58.822 65.9714 57.1817 67.9096 55.4648C67.8008 55.8741 67.7067 56.2893 67.6332 56.7134C67.3479 58.3155 70.2508 58.3567 71.0861 57.8708C73.8068 56.2893 76.345 54.3957 78.7421 52.3402C78.9862 52.7643 79.2421 53.1854 79.448 53.6242C79.6804 54.1219 79.9421 54.705 79.8715 55.2704C79.1951 55.6267 78.5215 55.9919 77.8539 56.3718C77.0098 56.8489 77.748 57.8384 78.3009 58.1358C80.3068 59.2225 83.1598 58.6365 83.9451 56.466C88.2128 54.1837 92.8864 52.6229 97.6188 51.707C99.8247 51.28 102.001 51.0533 104.172 50.9561C102.913 54.5224 101.748 58.1181 100.704 61.7404C93.7864 62.8448 86.8834 64.0581 80.0039 65.3951C68.0214 67.7245 56.1124 70.4162 44.3005 73.4878C42.9446 73.8411 44.2799 74.9985 45.1888 74.7659C63.3419 70.1335 81.7157 66.4052 100.216 63.4779C100.134 63.7754 100.048 64.0728 99.9689 64.3732C99.2218 67.1326 98.5894 69.9273 98.1541 72.7574C97.8012 75.0427 97.21 77.755 97.8688 80.0402C98.4188 81.9427 100.095 83.1 102.078 82.9704C104.366 82.8202 106.057 80.856 107.569 79.3393C113.131 73.7587 117.601 67.2739 121.51 60.4623C122.381 60.3534 123.249 60.2444 124.119 60.1384C123.616 62.244 123.216 64.4174 123.269 66.4994C123.313 68.2458 124.463 69.5298 126.369 69.1116C127.931 68.77 129.066 67.112 129.957 65.9163C131.599 63.7135 133.031 61.3399 134.399 58.9604C140.316 58.3243 146.24 57.7589 152.172 57.2582C150.54 60.7244 149.178 64.6412 150.946 67.9689C151.349 68.7258 152.787 68.8053 153.414 68.3695C156.958 65.9016 159.602 62.4678 162.267 59.1194C163.011 58.1859 163.755 57.2494 164.499 56.3158C166.749 56.1598 169.002 56.0125 171.255 55.8741C182.838 55.1673 194.435 54.6844 206.032 54.3722C208.308 54.3103 207.235 52.1841 205.45 52.243C192.323 52.6789 179.205 53.3415 166.105 54.2927C167.049 53.1088 167.99 51.922 168.934 50.7381C169.067 50.853 169.211 50.962 169.379 51.0621C171.667 52.3903 174.426 50.4996 176.182 49.142C177.087 48.4411 177.955 47.6931 178.805 46.9186C178.852 47.2366 178.979 47.5429 179.232 47.8256C180.482 49.2274 182.814 49.1125 184.196 47.9964C184.461 48.1348 184.77 48.2408 185.138 48.3086C186.879 48.6296 188.538 47.7255 189.985 46.8685C190.426 46.6093 190.852 46.3296 191.273 46.0439C191.279 46.0645 191.282 46.0822 191.288 46.0999C191.988 48.5825 195.179 48.0641 197.079 47.6489C199.173 47.1924 201.252 46.4709 203.185 45.5079C204.114 45.8348 205.247 45.8761 206.129 45.988C209.229 46.3796 212.364 46.5357 215.485 46.6123C219.517 46.7154 223.55 46.6712 227.582 46.6005C231.429 46.5328 235.394 46.7242 239.218 46.309C239.735 46.253 240.144 45.8584 239.959 45.343L239.956 45.3695ZM40.7358 9.97143C41.0505 9.85657 41.0328 10.0303 40.7358 9.97143ZM110.201 72.5454C108.784 74.3359 107.287 76.0646 105.701 77.7049C104.919 78.5148 104.119 79.3217 103.278 80.0697C102.895 80.4113 102.322 80.9944 101.804 81.1328C100.992 81.3507 100.784 80.6646 100.598 80.0432C99.9218 77.7991 100.634 74.9249 101.001 72.6779C101.434 70.0363 102.034 67.4241 102.734 64.8414C102.898 64.2377 103.066 63.634 103.237 63.0303C104.898 62.7741 106.557 62.5238 108.219 62.2823C111.49 61.8052 114.766 61.3576 118.043 60.9276C115.69 64.9592 113.122 68.8613 110.201 72.5454ZM122.551 58.6365C123.166 57.5321 123.766 56.4189 124.357 55.2998C125.154 53.7891 125.931 52.2695 126.699 50.744C126.072 52.7643 125.49 54.7933 124.963 56.84C124.834 57.3436 124.699 57.8619 124.563 58.3832C123.893 58.4656 123.225 58.5511 122.554 58.6365H122.551ZM124.896 67.3211C124.91 67.3005 124.746 67.3152 124.96 67.2946C124.893 67.3564 124.84 67.4006 124.896 67.3211ZM126.437 67.6421C126.463 67.6627 126.472 67.6833 126.452 67.698C126.507 67.6568 126.463 67.8659 126.437 67.6421ZM129.237 61.7934C128.36 63.1717 127.354 64.7472 126.302 65.9782C126.369 63.9903 127.046 61.5726 127.454 59.7614C128.543 59.6348 129.634 59.5082 130.725 59.3874C130.237 60.1943 129.743 61.0012 129.237 61.7964V61.7934ZM175.37 27.1168C175.37 27.1168 175.358 27.1639 175.349 27.2199C174.958 26.9814 175.417 27.0785 175.37 27.1168ZM170.831 32.1203C172.049 30.6979 173.302 29.0693 174.937 28.0828C174.755 28.4126 174.582 28.7542 174.37 29.0634C173.296 30.6242 172.055 32.0761 170.814 33.5044C168.761 35.8692 166.631 38.1662 164.461 40.422C165.378 39.088 166.326 37.7716 167.305 36.4847C168.437 34.9975 169.614 33.5397 170.831 32.1203ZM152.696 48.6443C152.814 48.6296 152.79 48.606 152.696 48.6443ZM147.819 51.1681C147.981 50.9089 148.246 50.532 148.555 50.1757C148.505 50.4525 148.475 50.7293 148.469 51.0002C148.196 51.4832 147.896 51.9515 147.555 52.3873C147.449 52.5198 147.34 52.6524 147.225 52.776C147.225 52.7584 147.225 52.7436 147.225 52.726C147.261 52.1635 147.528 51.6363 147.819 51.1652V51.1681ZM148.243 55.8005C149.275 55.5295 150.199 54.8463 150.987 53.9481C152.331 53.7538 153.881 52.6258 154.92 51.7394C154.575 52.4109 154.234 53.0853 153.905 53.7626C153.658 54.2721 153.387 54.808 153.111 55.3587C151.487 55.5001 149.867 55.6473 148.246 55.8005H148.243ZM160.252 57.3024C157.952 60.1973 155.714 63.1952 152.937 65.6366C152.534 62.8035 154.087 59.5818 155.261 57.0256C157.111 56.8783 158.958 56.737 160.808 56.6015C160.623 56.8342 160.437 57.0698 160.252 57.3024ZM170.558 49.6426C170.576 49.6426 170.596 49.6426 170.614 49.6426C170.579 49.6544 170.558 49.6544 170.558 49.6426ZM183.229 43.9324C183.17 44.1032 183.117 44.2593 183.067 44.3535C182.814 44.8453 182.54 45.3401 182.229 45.8083C182.296 45.5286 182.349 45.24 182.42 45.0456C182.561 44.6598 182.717 44.2828 182.885 43.9118C182.999 43.9265 183.114 43.9324 183.226 43.9324H183.229ZM186.429 46.8184C186.411 46.8273 186.402 46.7949 186.399 46.7389C186.44 46.7743 186.458 46.8037 186.429 46.8184ZM205.808 40.3867C205.697 41.067 205.302 41.5558 204.811 42.0241C204.611 42.2155 204.394 42.3951 204.173 42.5689C204.22 41.4263 204.894 41.0169 205.808 40.3867Z" fill="#231F20"/>
<path d="M213.406 51.6836C212.67 51.4539 211.57 51.392 211.05 52.09C210.744 52.5022 210.388 52.9057 210.126 53.3445C210.009 53.5448 209.906 53.7686 209.814 53.9806C209.679 54.2928 209.688 54.546 209.714 54.8788C209.741 55.2263 210.259 55.4796 210.526 55.5709C210.935 55.7122 211.406 55.7299 211.811 55.5709C212.961 55.1291 213.682 54.1455 214.456 53.2385C214.664 52.9941 214.564 52.5906 214.409 52.3609C214.197 52.0428 213.759 51.7896 213.406 51.6806V51.6836Z" fill="#231F20"/>
<path d="M75.4568 42.0977C75.1097 41.2879 74.1274 41.0022 73.3097 41.0758C72.6038 41.1406 71.8273 41.5941 72.2803 42.3834C72.445 42.672 72.592 42.9989 72.8097 43.2521C73.0479 43.529 73.2891 43.8087 73.5274 44.0856C73.9068 44.5273 74.4891 44.7099 75.0627 44.6569C75.5039 44.6157 76.0303 44.3977 75.945 43.8676C75.898 43.5731 75.8656 43.2728 75.8039 42.9812C75.7391 42.6749 75.5833 42.3863 75.4597 42.0977H75.4568Z" fill="#231F20"/>
</g>
<defs>
<clipPath id="clip0_256_78">
<rect width="240" height="83" fill="white"/>
</clipPath>
</defs>
</svg>
