<svg width="128" height="128" viewBox="0 0 128 128" fill="none" xmlns="http://www.w3.org/2000/svg">
<rect width="128" height="128" fill="#C9442D"/>
<path d="M50.6172 50.1745C50.6172 49.8386 50.8894 49.5664 51.2252 49.5664C64.6558 49.5664 75.5434 60.454 75.5434 73.8846V101.762L50.6172 93.7728V50.1745Z" fill="#FFF1CC"/>
<path d="M20.3271 16.3541C20.3271 16.0183 20.5993 15.7461 20.9351 15.7461C34.3657 15.7461 45.2534 26.6337 45.2534 40.0644V91.9089L21.01 84.1387C20.6032 84.0083 20.3271 83.6299 20.3271 83.2028V16.3541Z" fill="#FFF1CC"/>
<path d="M80.9072 35.7916C80.9072 35.4558 81.1794 35.1836 81.5151 35.1836C94.9456 35.1836 105.833 46.0714 105.833 59.5019V102.366C105.833 106.806 101.51 109.961 97.2814 108.605L80.9072 103.357V35.7916Z" fill="#FFF1CC"/>
</svg>
