<svg width="316" height="294" viewBox="0 0 316 294" fill="none" xmlns="http://www.w3.org/2000/svg">
<path d="M238.259 191.138L233.085 191.363C232.935 196.462 232.56 202.61 231.961 209.808C231.511 213.257 229.936 216.331 227.237 219.03C224.688 221.729 221.239 223.229 216.89 223.529C208.342 224.129 198.445 224.429 187.198 224.429C175.951 224.429 165.304 224.129 155.257 223.529C150.908 223.229 147.384 221.729 144.685 219.03C142.136 216.331 140.561 212.732 139.961 208.233C139.511 203.734 139.136 198.111 138.837 191.363H89.5753C81.9274 191.063 76.304 190.088 72.705 188.439C69.256 186.639 67.5314 183.265 67.5314 178.317L67.3065 167.745C67.3065 161.746 68.8061 156.798 71.8052 152.899C90.1001 128.456 114.543 100.563 145.135 69.222C147.684 67.2726 151.283 66.2978 155.932 66.2978H216.215C222.513 66.2978 226.637 67.8724 228.586 71.0215C230.686 74.1707 232.036 80.169 232.635 89.0165C233.235 97.7141 233.535 116.909 233.535 146.6V155.598H238.259C241.408 155.598 243.807 156.723 245.457 158.972C247.256 161.071 248.156 163.396 248.156 165.945V178.991C248.156 186.789 244.857 190.838 238.259 191.138ZM111.619 151.549C111.619 154.248 113.044 155.598 115.893 155.598H138.387V117.808C135.387 121.108 132.388 124.482 129.389 127.931C126.54 131.38 123.541 134.904 120.392 138.503C117.393 142.102 115.143 144.801 113.644 146.6C112.294 148.4 111.619 150.049 111.619 151.549Z" fill="#544580"/>
<path d="M12.6133 159.567C17.3923 196.75 25.2038 214.593 48.8765 238.326C77.782 267.306 109.315 281.364 152.936 281.364C210.747 281.364 229.142 267.306 262.777 241.554C296.413 201.349 302.194 171.129 302.194 152.735C302.194 98.7343 275.916 65.4929 262.777 51.8285C246.101 34.4852 199.711 7.15642 157.666 10.3097C99.8553 10.3097 64.9723 33.2496 44.1466 58.1352C23.3209 83.0208 7.83431 122.384 12.6133 159.567ZM226.251 281.364C205.755 289.51 182.893 293.583 157.666 293.583C132.44 293.583 109.578 289.51 89.0814 281.364C68.5848 272.955 51.8985 261.787 39.0224 247.86C26.4091 233.933 16.6863 218.429 9.85414 201.349C3.28471 184.005 0 166.005 0 147.348C0 128.691 3.28471 110.691 9.85414 93.3473C16.6863 76.004 26.4091 60.3688 39.0224 46.4416C51.8985 32.5144 68.5848 21.3464 89.0814 12.9375C109.578 4.52866 132.44 0.324219 157.666 0.324219C182.893 0.324219 205.755 4.52866 226.251 12.9375C246.748 21.3464 263.303 32.5144 275.916 46.4416C288.792 60.3688 298.515 76.004 305.084 93.3473C311.916 110.691 315.333 128.691 315.333 147.348C315.333 166.005 311.916 184.005 305.084 201.349C298.515 218.429 288.792 233.933 275.916 247.86C263.303 261.787 246.748 272.955 226.251 281.364Z" fill="#544580"/>
</svg>
