<svg width="316" height="295" viewBox="0 0 316 295" fill="none" xmlns="http://www.w3.org/2000/svg">
<path d="M80.234 216.267L78.2095 203.896C77.9096 202.546 77.7596 201.197 77.7596 199.847C77.7596 194.898 79.7091 191 83.608 188.15C99.0537 177.053 112.775 165.207 124.772 152.61C136.918 140.014 142.991 129.517 142.991 121.119C142.991 115.271 141.117 110.547 137.368 106.948C133.619 103.199 129.345 101.325 124.547 101.325C113.6 101.325 103.253 105.673 93.5052 114.371C92.0057 115.871 90.2062 116.395 88.1068 115.945C81.5086 114.596 78.2095 107.323 78.2095 94.1266C78.2095 89.6278 79.1842 86.1038 81.1337 83.5545C83.2331 81.0052 86.6822 78.5309 91.4808 76.1316C110.525 66.8342 132.269 62.1855 156.713 62.1855C181.306 62.1855 199.601 66.4593 211.597 75.0069C223.594 83.4046 229.592 94.2765 229.592 107.623C229.592 120.969 226.068 132.591 219.02 142.488C212.122 152.385 201.4 163.182 186.854 174.879C183.705 177.278 182.131 179.528 182.131 181.627C182.131 184.176 184.23 185.451 188.429 185.451C188.729 185.451 189.029 185.451 189.329 185.451L238.14 183.427C238.29 183.427 238.44 183.427 238.59 183.427C241.139 183.427 243.163 185.076 244.663 188.375C246.163 191.524 246.912 196.248 246.912 202.546C246.912 208.695 245.863 213.868 243.763 218.067C241.664 222.116 237.465 224.215 231.167 224.365C208.973 224.815 187.079 225.04 165.485 225.04C144.041 225.04 126.871 224.89 113.975 224.59C101.078 224.29 93.8801 224.14 92.3806 224.14C91.0309 223.99 89.2314 223.69 86.9821 223.241C84.8827 222.791 83.3081 222.041 82.2584 220.991C81.3586 219.792 80.6838 218.217 80.234 216.267Z" fill="#544580"/>
<path d="M12.6924 160.178C17.4714 197.36 25.2829 215.203 48.9556 238.937C77.8611 267.916 109.394 281.975 153.015 281.975C210.826 281.975 229.221 267.916 262.856 242.164C296.492 201.959 302.273 171.74 302.273 153.345C302.273 99.3446 275.995 66.1033 262.856 52.4389C246.18 35.0956 199.79 7.76677 157.745 10.9201C99.9344 10.9201 65.0514 33.86 44.2257 58.7455C23.4 83.6311 7.91341 122.995 12.6924 160.178ZM226.33 281.975C205.834 290.121 182.972 294.194 157.745 294.194C132.519 294.194 109.657 290.121 89.1605 281.975C68.6639 273.566 51.9776 262.398 39.1015 248.471C26.4882 234.543 16.7654 219.04 9.93324 201.959C3.36382 184.616 0.0791016 166.616 0.0791016 147.958C0.0791016 129.301 3.36382 111.301 9.93324 93.9577C16.7654 76.6144 26.4882 60.9791 39.1015 47.052C51.9776 33.1248 68.6639 21.9567 89.1605 13.5479C109.657 5.13901 132.519 0.93457 157.745 0.93457C182.972 0.93457 205.834 5.13901 226.33 13.5479C246.827 21.9567 263.382 33.1248 275.995 47.052C288.871 60.9791 298.594 76.6144 305.163 93.9577C311.996 111.301 315.412 129.301 315.412 147.958C315.412 166.616 311.996 184.616 305.163 201.959C298.594 219.04 288.871 234.543 275.995 248.471C263.382 262.398 246.827 273.566 226.33 281.975Z" fill="#544580"/>
</svg>
