<svg width="316" height="294" viewBox="0 0 316 294" fill="none" xmlns="http://www.w3.org/2000/svg">
<path d="M189.268 65.7506C195.566 65.7506 199.69 67.3252 201.64 70.4743C203.739 73.6235 205.014 78.872 205.464 86.2199C206.663 103.465 207.263 124.384 207.263 148.977C207.263 173.421 206.513 193.665 205.014 209.71C204.564 213.16 202.989 216.234 200.29 218.933C197.741 221.632 194.292 223.132 189.943 223.432C181.395 224.031 171.498 224.331 160.251 224.331C149.004 224.331 138.357 224.031 128.31 223.432C123.811 223.132 120.212 221.632 117.513 218.933C114.814 216.084 113.389 213.01 113.239 209.71C112.04 189.166 111.44 169.597 111.44 151.002C111.44 132.257 111.515 119.811 111.665 113.662L101.543 112.987C94.9445 112.538 91.6454 108.339 91.6454 100.391C91.6454 92.2932 92.3202 86.9697 93.6699 84.4204C95.0195 81.7212 98.3936 79.8467 103.792 78.797C133.634 72.6487 162.126 68.2999 189.268 65.7506Z" fill="#544580"/>
<path d="M13.2744 159.243C18.0534 196.426 25.865 214.269 49.5377 238.002C78.4432 266.982 109.976 281.04 153.597 281.04C211.408 281.04 229.803 266.982 263.438 241.229C297.074 201.024 302.855 170.805 302.855 152.411C302.855 98.41 276.577 65.1687 263.438 51.5043C246.762 34.161 200.372 6.8322 158.327 9.98553C100.516 9.98553 65.6334 32.9254 44.8077 57.811C23.982 82.6965 8.49544 122.06 13.2744 159.243ZM226.912 281.04C206.416 289.186 183.554 293.259 158.327 293.259C133.101 293.259 110.239 289.186 89.7426 281.04C69.246 272.631 52.5596 261.463 39.6835 247.536C27.0702 233.609 17.3475 218.105 10.5153 201.024C3.94585 183.681 0.661133 165.681 0.661133 147.024C0.661133 128.367 3.94585 110.366 10.5153 93.0231C17.3475 75.6798 27.0702 60.0446 39.6835 46.1174C52.5596 32.1902 69.246 21.0222 89.7426 12.6133C110.239 4.20444 133.101 0 158.327 0C183.554 0 206.416 4.20444 226.912 12.6133C247.409 21.0222 263.964 32.1902 276.577 46.1174C289.453 60.0446 299.176 75.6798 305.745 93.0231C312.578 110.366 315.994 128.367 315.994 147.024C315.994 165.681 312.578 183.681 305.745 201.024C299.176 218.105 289.453 233.609 276.577 247.536C263.964 261.463 247.409 272.631 226.912 281.04Z" fill="#544580"/>
</svg>
