<svg width="316" height="295" viewBox="0 0 316 295" fill="none" xmlns="http://www.w3.org/2000/svg">
<path d="M219.666 83.3729C219.666 97.169 216.217 104.067 209.319 104.067L160.508 103.392C156.759 103.392 154.659 104.517 154.21 106.766C153.31 110.365 152.86 113.065 152.86 114.864C152.86 118.463 154.359 120.263 157.359 120.263C159.308 120.113 162.157 120.038 165.906 120.038C186.9 120.038 203.021 125.061 214.268 135.108C225.515 145.006 231.138 157.302 231.138 171.998C231.138 186.694 224.915 199.89 212.468 211.587C200.022 223.134 183.226 228.907 162.082 228.907C130.441 228.907 108.472 226.583 96.1757 221.934C90.3274 219.835 86.9533 216.086 86.0535 210.687C85.7536 208.888 85.6037 206.489 85.6037 203.489C85.6037 200.34 86.0535 196.066 86.9533 190.668C87.5531 182.87 90.1024 178.971 94.6012 178.971C96.7006 178.971 100.599 179.646 106.298 180.996C112.146 182.195 116.72 182.795 120.019 182.795C135.165 182.795 142.738 177.022 142.738 165.475C142.738 161.276 141.013 157.677 137.564 154.678C134.115 151.679 129.241 150.179 122.943 150.179C122.793 150.179 117.32 150.629 106.523 151.529C101.874 151.529 98.575 150.629 96.6256 148.83C94.6761 146.88 93.7014 142.756 93.7014 136.458C93.7014 130.16 95.201 111.34 98.2002 79.9988C98.65 75.3501 100.075 71.9011 102.474 69.6517C104.873 67.4024 108.697 66.2777 113.946 66.2777L173.779 65.8278C187.425 65.8278 197.322 65.9777 203.471 66.2777C209.619 66.4276 213.668 67.2524 215.617 68.752C218.317 70.8514 219.666 75.725 219.666 83.3729Z" fill="#544580"/>
<path d="M13.2744 159.997C18.0534 197.18 25.865 215.023 49.5377 238.756C78.4432 267.735 109.976 281.794 153.597 281.794C211.408 281.794 229.803 267.735 263.438 241.983C297.074 201.778 302.855 171.559 302.855 153.165C302.855 99.1639 276.577 65.9226 263.438 52.2582C246.762 34.9149 200.372 7.58611 158.327 10.7394C100.516 10.7394 65.6334 33.6793 44.8077 58.5649C23.982 83.4504 8.49544 122.814 13.2744 159.997ZM226.912 281.794C206.416 289.94 183.554 294.013 158.327 294.013C133.101 294.013 110.239 289.94 89.7426 281.794C69.246 273.385 52.5596 262.217 39.6835 248.29C27.0702 234.363 17.3475 218.859 10.5153 201.778C3.94585 184.435 0.661133 166.435 0.661133 147.778C0.661133 129.121 3.94585 111.12 10.5153 93.777C17.3475 76.4337 27.0702 60.7985 39.6835 46.8713C52.5596 32.9441 69.246 21.7761 89.7426 13.3672C110.239 4.95834 133.101 0.753906 158.327 0.753906C183.554 0.753906 206.416 4.95834 226.912 13.3672C247.409 21.7761 263.964 32.9441 276.577 46.8713C289.453 60.7985 299.176 76.4337 305.745 93.777C312.578 111.12 315.994 129.121 315.994 147.778C315.994 166.435 312.578 184.435 305.745 201.778C299.176 218.859 289.453 234.363 276.577 248.29C263.964 262.217 247.409 273.385 226.912 281.794Z" fill="#544580"/>
</svg>
