<svg width="316" height="295" viewBox="0 0 316 295" fill="none" xmlns="http://www.w3.org/2000/svg">
<path d="M91.9515 182.809L120.294 183.934C128.691 183.934 135.214 182.059 139.863 178.31C142.712 176.061 144.137 173.062 144.137 169.313C144.137 159.715 138.364 154.917 126.817 154.917C122.618 154.917 117.819 155.441 112.421 156.491C107.022 157.541 103.798 158.066 102.748 158.066C96.3003 158.066 93.0762 152.592 93.0762 141.645C93.0762 136.997 93.9009 133.997 95.5505 132.648C97.2 131.298 99.2994 130.473 101.849 130.174C104.398 129.874 107.772 129.724 111.971 129.724C116.17 129.574 119.844 129.424 122.993 129.274C131.84 128.524 137.989 126.799 141.438 124.1C144.887 121.401 146.611 117.952 146.611 113.753C146.611 109.554 145.037 106.33 141.888 104.081C138.888 101.831 134.989 100.707 130.191 100.707C120.743 100.707 111.146 104.906 101.399 113.303C99.8992 114.503 98.0998 115.103 96.0003 115.103C94.0509 115.103 92.1764 113.828 90.3769 111.279C87.6777 107.83 86.328 102.881 86.328 96.4329C86.328 89.9847 87.3028 85.486 89.2522 82.9367C91.3516 80.3874 95.3255 77.6882 101.174 74.839C107.022 71.8398 115.795 68.9906 127.492 66.2913C139.188 63.4421 150.21 62.0175 160.557 62.0175C171.054 62.0175 179.752 62.6923 186.65 64.042C193.548 65.2416 200.371 67.341 207.119 70.3402C213.867 73.3394 219.266 77.6882 223.315 83.3866C227.514 89.085 229.613 95.8331 229.613 103.631C229.613 111.279 227.589 118.102 223.54 124.1C219.491 130.099 213.717 134.147 206.22 136.247C216.267 139.846 223.84 145.244 228.938 152.442C234.037 159.64 236.586 167.663 236.586 176.511C236.586 193.606 229.838 206.652 216.342 215.65C202.995 224.497 186.275 228.921 166.181 228.921C129.891 228.921 104.698 226.597 90.6018 221.948C83.8537 219.699 80.0298 215.875 79.13 210.476C78.8301 208.677 78.6802 205.902 78.6802 202.153C78.6802 198.404 78.8301 195.63 79.13 193.831C79.8798 186.483 84.1536 182.809 91.9515 182.809Z" fill="#544580"/>
<path d="M12.6294 160.01C17.4084 197.193 25.2199 215.035 48.8927 238.769C77.7981 267.748 109.331 281.807 152.952 281.807C210.763 281.807 229.158 267.748 262.793 241.996C296.429 201.791 302.21 171.572 302.21 153.177C302.21 99.1766 275.932 65.9353 262.793 52.2709C246.117 34.9276 199.727 7.5988 157.682 10.7521C99.8714 10.7521 64.9884 33.692 44.1627 58.5776C23.337 83.4631 7.85042 122.827 12.6294 160.01ZM226.267 281.807C205.771 289.953 182.909 294.026 157.682 294.026C132.456 294.026 109.594 289.953 89.0975 281.807C68.6009 273.398 51.9146 262.23 39.0385 248.303C26.4252 234.375 16.7025 218.872 9.87026 201.791C3.30083 184.448 0.0161133 166.448 0.0161133 147.79C0.0161133 129.133 3.30083 111.133 9.87026 93.7897C16.7025 76.4464 26.4252 60.8112 39.0385 46.884C51.9146 32.9568 68.6009 21.7888 89.0975 13.3799C109.594 4.97104 132.456 0.766602 157.682 0.766602C182.909 0.766602 205.771 4.97104 226.267 13.3799C246.764 21.7888 263.319 32.9568 275.932 46.884C288.808 60.8112 298.531 76.4464 305.1 93.7897C311.933 111.133 315.349 129.133 315.349 147.79C315.349 166.448 311.933 184.448 305.1 201.791C298.531 218.872 288.808 234.375 275.932 248.303C263.319 262.23 246.764 273.398 226.267 281.807Z" fill="#544580"/>
</svg>
