<svg width="316" height="294" viewBox="0 0 316 294" fill="none" xmlns="http://www.w3.org/2000/svg">
<path d="M242.504 171.553C242.504 189.697 234.931 203.794 219.785 213.841C204.639 223.738 186.419 228.687 165.125 228.687C134.084 228.687 110.316 221.264 93.8202 206.418C88.1217 201.319 83.548 194.721 80.099 186.623C76.65 178.526 74.9254 169.678 74.9254 160.081C74.9254 150.483 76.35 141.336 79.1992 132.638C82.0484 123.941 86.5472 115.543 92.6955 107.445C98.9937 99.3477 106.567 92.2247 115.414 86.0764C124.412 79.7781 135.509 74.8295 148.705 71.2305C161.901 67.4816 176.447 65.6071 192.343 65.6071C197.741 65.6071 204.039 65.982 211.237 66.7318C216.186 67.3316 220.085 69.9559 222.934 74.6046C225.783 79.1033 227.208 84.0519 227.208 89.4504C227.208 94.8489 225.933 99.6476 223.384 103.846C220.985 107.895 217.311 109.92 212.362 109.92C207.713 109.47 203.215 109.245 198.866 109.245C188.969 109.245 181.171 110.894 175.472 114.194C169.774 117.343 165.425 122.891 162.426 130.839C170.524 127.69 178.846 126.115 187.394 126.115C203.14 126.115 216.261 130.164 226.758 138.262C237.255 146.21 242.504 157.306 242.504 171.553ZM172.998 176.276C172.998 170.428 171.948 165.704 169.849 162.105C167.899 158.356 164.975 156.482 161.076 156.482C157.327 156.482 154.403 158.506 152.304 162.555C150.204 166.454 149.155 171.328 149.155 177.176C149.155 183.024 150.279 187.598 152.529 190.897C154.778 194.196 157.477 195.846 160.627 195.846C163.926 195.846 166.775 194.046 169.174 190.447C171.723 186.698 172.998 181.975 172.998 176.276Z" fill="#544580"/>
<path d="M12.6133 159.774C17.3923 196.957 25.2038 214.8 48.8765 238.533C77.782 267.513 109.315 281.571 152.936 281.571C210.747 281.571 229.142 267.513 262.777 241.761C296.413 201.556 302.194 171.336 302.194 152.942C302.194 98.9413 275.916 65.7 262.777 52.0356C246.101 34.6923 199.711 7.36345 157.666 10.5168C99.8553 10.5168 64.9723 33.4566 44.1466 58.3422C23.3209 83.2278 7.83431 122.591 12.6133 159.774ZM226.251 281.571C205.755 289.717 182.893 293.791 157.666 293.791C132.44 293.791 109.578 289.717 89.0814 281.571C68.5848 273.163 51.8985 261.994 39.0224 248.067C26.4091 234.14 16.6863 218.636 9.85414 201.556C3.28471 184.212 0 166.212 0 147.555C0 128.898 3.28471 110.898 9.85414 93.5544C16.6863 76.2111 26.4091 60.5758 39.0224 46.6486C51.8985 32.7215 68.5848 21.5534 89.0814 13.1446C109.578 4.73569 132.44 0.53125 157.666 0.53125C182.893 0.53125 205.755 4.73569 226.251 13.1446C246.748 21.5534 263.303 32.7215 275.916 46.6486C288.792 60.5758 298.515 76.2111 305.084 93.5544C311.916 110.898 315.333 128.898 315.333 147.555C315.333 166.212 311.916 184.212 305.084 201.556C298.515 218.636 288.792 234.14 275.916 248.067C263.303 261.994 246.748 273.163 226.251 281.571Z" fill="#544580"/>
</svg>
