<?xml version="1.0" encoding="utf-8"?>
<!-- Generator: Adobe Illustrator 28.0.0, SVG Export Plug-In . SVG Version: 6.00 Build 0)  -->
<svg version="1.1" id="Layer_1" xmlns="http://www.w3.org/2000/svg" xmlns:xlink="http://www.w3.org/1999/xlink" x="0px" y="0px"
	 viewBox="0 0 176.5 176.5" style="enable-background:new 0 0 176.5 176.5;" xml:space="preserve">
<style type="text/css">
	.st0{fill:#e7d3ee;}
</style>
<polygon class="st0" points="170.6,64.6 153.9,64.6 153,64.6 152.5,65.4 140.5,90.6 128.3,65.4 127.9,64.6 127,64.6 110.9,64.6 
	109.3,64.6 109.3,66.1 109.3,74.7 109.3,76.2 110.9,76.2 113.6,76.2 113.6,112.2 110.6,112.2 109.1,112.2 109.1,113.7 109.1,122.3 
	109.1,123.9 110.6,123.9 128.7,123.9 130.3,123.9 130.3,122.3 130.3,113.7 130.3,112.2 128.7,112.2 125.6,112.2 125.6,86.7 
	139.1,114.5 140.5,117.4 141.9,114.5 155.5,86.6 155.5,112.2 152.5,112.2 151,112.2 151,113.7 151,122.3 151,123.9 152.5,123.9 
	170.6,123.9 172.1,123.9 172.1,122.3 172.1,113.7 172.1,112.2 170.6,112.2 167.5,112.2 167.5,76.2 170.6,76.2 172.1,76.2 
	172.1,74.7 172.1,66.1 172.1,64.6 "/>
<path class="st0" d="M67.1,112.2v11.6H44.3v-11.6h3.5l-2.6-6H26.4l-2.6,6h3.3v11.6H4.3v-11.6h6.5L26.5,76H23V64.3h25.2V76h-3
	l15.7,36.2L67.1,112.2L67.1,112.2z M35.8,84.4l-4.4,10.1h8.8L35.8,84.4z"/>
<polygon class="st0" points="104.4,142.2 109.7,136.7 109.7,151.9 104.4,146.7 "/>
<path class="st0" d="M151.5,19.3H24.6h-1.8v1.8V55v1.8h1.8h21.9h1.7V55V42.4h27.1v89.3H62.7H61v1.8v21.9v1.8h1.8h50.6h1.8v-1.8
	v-21.9v-1.8h-1.8h-12.6V42.4h26.9v12.4v1.8h1.8h22.1h1.8v-1.8V21.1v-1.8H151.5z M95.4,137.1l-5.4,5.3V31.9l5.4,5.3V137.1z
	 M33.4,29.9l-5.5-5.4h117.4l-6.9,5.4H33.4z M148.1,51.7l-5.4-5.1V32.9l5.4-5.5V51.7z"/>
<path class="st0" d="M121,151.9c0-2.9,2.3-5.2,5.2-5.2c2.9,0,5.2,2.3,5.2,5.2c0,2.9-2.3,5.2-5.2,5.2l0,0
	C123.3,157,121,154.7,121,151.9z M130.1,151.9c-0.1-2.2-2-3.8-4.2-3.7c-2.2,0.1-3.8,2-3.7,4.2c0.1,2.1,1.8,3.7,3.9,3.7
	c2.2,0,4-1.8,3.9-4.1C130.1,151.9,130.1,151.9,130.1,151.9z M124.2,148.9h2.2c1.4,0,2.2,0.5,2.2,1.7c0.1,0.8-0.5,1.5-1.3,1.6
	c-0.1,0-0.2,0-0.3,0l1.6,2.6h-1.1l-1.5-2.6h-0.7v2.5h-1.1L124.2,148.9z M125.3,151.4h1c0.6,0,1.2-0.1,1.2-0.9s-0.6-0.8-1.2-0.8h-1
	L125.3,151.4z"/>
</svg>
