<svg width="88" height="34" viewBox="0 0 88 34" fill="none" xmlns="http://www.w3.org/2000/svg">
<path fill-rule="evenodd" clip-rule="evenodd" d="M15.6038 0.25H15.6995C18.1812 0.249995 20.1028 0.24999 21.6429 0.411948C23.2084 0.57658 24.4516 0.914122 25.5546 1.63483C25.8926 1.85575 26.2146 2.10046 26.5178 2.36713C27.5073 3.23711 28.1651 4.3447 28.7425 5.80916C29.3106 7.24982 29.8246 9.10134 30.4884 11.4926L33.3675 21.8637C33.4682 22.2265 33.7985 22.4775 34.175 22.4775C34.5515 22.4775 34.8818 22.2265 34.9825 21.8637L40.1756 3.15737C40.6525 1.43918 42.2168 0.25 44 0.25C45.7832 0.25 47.3475 1.43918 47.8244 3.15737L53.0175 21.8637C53.1183 22.2265 53.4485 22.4775 53.825 22.4775C54.2015 22.4775 54.5318 22.2265 54.6325 21.8637L57.5116 11.4926C58.1754 9.10137 58.6894 7.24984 59.2575 5.80916C59.8349 4.3447 60.4927 3.23711 61.4822 2.36713C61.7855 2.10046 62.1074 1.85574 62.4454 1.63483C63.5484 0.914122 64.7916 0.57658 66.3571 0.411948C67.8972 0.24999 69.8188 0.249995 72.3005 0.25H72.3962C75.5956 0.249993 78.065 0.249988 80.0019 0.48284C81.9663 0.719007 83.4821 1.20398 84.7207 2.24587C85.0942 2.56005 85.44 2.90581 85.7541 3.27931C86.796 4.51793 87.281 6.03372 87.5172 7.99814C87.75 9.93494 87.75 12.4043 87.75 15.6037V17.5537C87.75 21.1585 87.75 23.9405 87.4595 26.1015C87.1645 28.2958 86.5576 29.9617 85.2597 31.2597C83.9617 32.5576 82.2958 33.1645 80.1015 33.4595C77.9405 33.75 75.1585 33.75 71.5537 33.75H16.4463C12.8415 33.75 10.0595 33.75 7.89854 33.4595C5.70423 33.1645 4.03826 32.5576 2.74035 31.2597C1.44243 29.9617 0.835539 28.2958 0.540523 26.1015C0.249985 23.9405 0.249992 21.1585 0.25 17.5536V15.6038C0.249993 12.4044 0.249988 9.93497 0.48284 7.99814C0.719007 6.03372 1.20398 4.51793 2.24587 3.27931C2.56005 2.90581 2.90581 2.56005 3.27931 2.24587C4.51793 1.20398 6.03372 0.719007 7.99814 0.48284C9.93497 0.249988 12.4044 0.249993 15.6038 0.25ZM8.17718 1.97212C6.35733 2.1909 5.1697 2.61584 4.24489 3.39377C3.93728 3.65252 3.65252 3.93728 3.39377 4.24489C2.61584 5.1697 2.1909 6.35733 1.97212 8.17718C1.75127 10.0141 1.75 12.3936 1.75 15.6558V17.4948C1.75 21.1706 1.75159 23.8521 2.02715 25.9016C2.2998 27.9296 2.82825 29.2262 3.80101 30.199C4.77377 31.1718 6.07044 31.7002 8.09841 31.9729C10.148 32.2484 12.8294 32.25 16.5052 32.25H71.4949C75.1707 32.25 77.8521 32.2484 79.9016 31.9729C81.9296 31.7002 83.2262 31.1718 84.199 30.199C85.1718 29.2262 85.7002 27.9296 85.9729 25.9016C86.2484 23.8521 86.25 21.1706 86.25 17.4948V15.6558C86.25 12.3936 86.2487 10.0141 86.0279 8.17718C85.8091 6.35733 85.3842 5.1697 84.6062 4.24489C84.3475 3.93728 84.0627 3.65252 83.7551 3.39377C82.8303 2.61584 81.6427 2.1909 79.8228 1.97212C77.9859 1.75127 75.6064 1.75 72.3443 1.75C69.8097 1.75 67.9667 1.75096 66.514 1.90372C65.0777 2.05476 64.0954 2.34856 63.266 2.89053C62.9875 3.07246 62.7224 3.27401 62.4726 3.49363C61.7285 4.14784 61.1827 5.01582 60.6529 6.35936C60.1172 7.71822 59.6232 9.4938 58.9452 11.936L56.0778 22.2649C55.7968 23.277 54.8754 23.9775 53.825 23.9775C52.7746 23.9775 51.8532 23.277 51.5722 22.2649L46.3791 3.55861C46.0824 2.48976 45.1093 1.75 44 1.75C42.8907 1.75 41.9176 2.48976 41.6209 3.55861L36.4278 22.2649C36.1468 23.277 35.2254 23.9775 34.175 23.9775C33.1246 23.9775 32.2032 23.277 31.9222 22.2649L29.0548 11.936C28.3768 9.49381 27.8829 7.71822 27.3471 6.35936C26.8173 5.01582 26.2715 4.14785 25.5274 3.49363C25.2776 3.27401 25.0125 3.07246 24.7341 2.89053C23.9046 2.34856 22.9223 2.05476 21.486 1.90372C20.0333 1.75096 18.1903 1.75 15.6558 1.75C12.3936 1.75 10.0141 1.75127 8.17718 1.97212Z" fill="white"/>
</svg>
