<svg width="14" height="16" viewBox="0 0 14 16" fill="none" xmlns="http://www.w3.org/2000/svg">
<g clip-path="url(#clip0_360_683)">
<path d="M4.36667 0H0.65C0.3 0 0 0.283333 0 0.65V15.2C0 15.55 0.283333 15.85 0.65 15.85H4.35C4.7 15.85 5 15.5667 5 15.2V0.65C5 0.283333 4.71667 0 4.36667 0Z" fill="white"/>
<path d="M12.8833 0H9.1666C8.8166 0 8.5166 0.283333 8.5166 0.65V15.2C8.5166 15.55 8.79994 15.85 9.1666 15.85H12.8666C13.2166 15.85 13.5166 15.5667 13.5166 15.2V0.65C13.5166 0.283333 13.2333 0 12.8833 0Z" fill="white"/>
</g>
<defs>
<clipPath id="clip0_360_683">
<rect width="14" height="16" fill="white"/>
</clipPath>
</defs>
</svg>
