<svg width="30" height="29" viewBox="0 0 30 29" fill="none" xmlns="http://www.w3.org/2000/svg">
<path d="M1.0125 29C0.75 29 0.4875 28.8913 0.3 28.71C0.1125 28.5288 0 28.275 0 28.0213V24.2875C0 24.0338 0.1125 23.78 0.3 23.5988C1.3125 22.62 4.725 19.285 6.4875 17.6175C6.6375 17.4363 6.7125 17.2188 6.6 17.0012C6.525 16.7475 6.3 16.6387 6.0375 16.6387H1.0125C0.75 16.6387 0.4875 16.53 0.3 16.3488C0.1125 16.1675 0 15.9137 0 15.66V0.978748C0 0.724999 0.1125 0.471248 0.3 0.289998C0.4875 0.108749 0.75 0 1.0125 0H6.4875C6.75 0 7.0125 0.108749 7.2 0.289998C7.3875 0.471248 7.5 0.724999 7.5 0.978748V15.225C7.5 15.4425 7.65 15.66 7.875 15.7688C8.1 15.8413 8.3625 15.805 8.5125 15.6238L12.0375 12.2162C12.225 12.035 12.4875 11.9263 12.75 11.9263H17.25C17.5125 11.9263 17.775 12.035 17.9625 12.2162L21.4875 15.6238C21.6375 15.805 21.9 15.8413 22.125 15.7688C22.35 15.66 22.5 15.4425 22.5 15.225V0.978748C22.5 0.724999 22.6125 0.471248 22.8 0.289998C22.9875 0.108749 23.25 0 23.5125 0H28.9875C29.25 0 29.5125 0.108749 29.7 0.289998C29.8875 0.471248 30 0.724999 30 0.978748V15.66C30 15.9137 29.8875 16.1675 29.7 16.3488C29.5125 16.53 29.25 16.6387 28.9875 16.6387H23.9625C23.7 16.6387 23.475 16.7475 23.4 17.0012C23.2875 17.2188 23.3625 17.4363 23.5125 17.6175C25.275 19.285 28.6875 22.62 29.7 23.5988C29.8875 23.78 30 24.0338 30 24.2875V28.0213C30 28.275 29.8875 28.5288 29.7 28.71C29.5125 28.8913 29.25 29 28.9875 29H25.125C24.8625 29 24.6 28.8913 24.4125 28.71L15.4125 20.0463C15.3 19.9375 15.15 19.865 15 19.865C14.85 19.865 14.7 19.9375 14.5875 20.0463L5.5875 28.71C5.4 28.8913 5.1375 29 4.875 29H1.0125Z" fill="#225D55"/>
</svg>
