<svg width="140" height="36" viewBox="0 0 140 36" fill="none" xmlns="http://www.w3.org/2000/svg">
<path d="M0.60842 18.0273C0.450682 18.0273 0.292943 17.9597 0.180273 17.847C0.0676023 17.7343 0 17.5766 0 17.4188V15.0978C0 14.9401 0.0676023 14.7824 0.180273 14.6697C0.788693 14.0613 2.83929 11.9881 3.8984 10.9516C3.98853 10.8389 4.0336 10.7037 3.966 10.5685C3.92093 10.4107 3.78573 10.3431 3.62799 10.3431H0.60842C0.450682 10.3431 0.292943 10.2755 0.180273 10.1629C0.0676023 10.0502 0 9.89246 0 9.73472V0.608419C0 0.450681 0.0676023 0.292942 0.180273 0.180272C0.292943 0.0676014 0.450682 0 0.60842 0H3.8984C4.05614 0 4.21387 0.0676014 4.32654 0.180272C4.43921 0.292942 4.50682 0.450681 4.50682 0.608419V9.46431C4.50682 9.59952 4.59695 9.73472 4.73216 9.80233C4.86736 9.84739 5.0251 9.82486 5.11524 9.71219L7.23344 7.59399C7.34611 7.48132 7.50385 7.41371 7.66159 7.41371H10.3657C10.5234 7.41371 10.6812 7.48132 10.7938 7.59399L12.912 9.71219C13.0022 9.82486 13.1599 9.84739 13.2951 9.80233C13.4303 9.73472 13.5205 9.59952 13.5205 9.46431V0.608419C13.5205 0.450681 13.5881 0.292942 13.7007 0.180272C13.8134 0.0676014 13.9711 0 14.1289 0H17.4188C17.5766 0 17.7343 0.0676014 17.847 0.180272C17.9597 0.292942 18.0273 0.450681 18.0273 0.608419V9.73472C18.0273 9.89246 17.9597 10.0502 17.847 10.1629C17.7343 10.2755 17.5766 10.3431 17.4188 10.3431H14.3993C14.2415 10.3431 14.1063 10.4107 14.0613 10.5685C13.9937 10.7037 14.0387 10.8389 14.1289 10.9516C15.188 11.9881 17.2386 14.0613 17.847 14.6697C17.9597 14.7824 18.0273 14.9401 18.0273 15.0978V17.4188C18.0273 17.5766 17.9597 17.7343 17.847 17.847C17.7343 17.9597 17.5766 18.0273 17.4188 18.0273H15.0978C14.9401 18.0273 14.7824 17.9597 14.6697 17.847L9.26151 12.4613C9.19391 12.3937 9.10377 12.3487 9.01363 12.3487C8.9235 12.3487 8.83336 12.3937 8.76576 12.4613L3.35758 17.847C3.24491 17.9597 3.08717 18.0273 2.92943 18.0273H0.60842Z" fill="white"/>
<path d="M20.8979 18.0273C20.7402 18.0273 20.5824 17.9597 20.4698 17.847C20.3571 17.7343 20.2895 17.5766 20.2895 17.4188V15.0978C20.2895 14.9401 20.3571 14.7824 20.4698 14.6697L34.9592 0.180272C35.0718 0.0676014 35.2296 0 35.3873 0H37.7083C37.8661 0 38.0238 0.0676014 38.1365 0.180272C38.2491 0.292942 38.3167 0.450681 38.3167 0.608419V2.92943C38.3167 3.08717 38.2491 3.24491 38.1365 3.35758C37.5281 3.966 35.4775 6.03913 34.4183 7.0757C34.3282 7.18837 34.2831 7.32358 34.3507 7.45878C34.3958 7.61652 34.531 7.68412 34.6888 7.68412H37.7083C37.8661 7.68412 38.0238 7.75172 38.1365 7.86439C38.2491 7.97707 38.3167 8.1348 38.3167 8.29254V17.4188C38.3167 17.5766 38.2491 17.7343 38.1365 17.847C38.0238 17.9597 37.8661 18.0273 37.7083 18.0273H34.4183C34.2606 18.0273 34.1029 17.9597 33.9902 17.847C33.8775 17.7343 33.8099 17.5766 33.8099 17.4188V8.56295C33.8099 8.42775 33.7198 8.29254 33.5846 8.22494C33.4494 8.17987 33.2916 8.20241 33.2015 8.31508L23.6471 17.847C23.5344 17.9597 23.3766 18.0273 23.2189 18.0273H20.8979Z" fill="white"/>
<path d="M45.6942 18.0273C45.5365 18.0273 45.3787 17.9597 45.266 17.847C45.1534 17.7343 45.0858 17.5766 45.0858 17.4188V14.6021C45.0858 14.0162 44.59 13.5205 44.0041 13.5205H41.1874C41.0296 13.5205 40.8719 13.4528 40.7592 13.3402C40.6466 13.2275 40.579 13.0698 40.579 12.912V0.608419C40.579 0.450681 40.6466 0.292942 40.7592 0.180272C40.8719 0.0676014 41.0296 0 41.1874 0H44.4774C44.6351 0 44.7928 0.0676014 44.9055 0.180272C45.0182 0.292942 45.0858 0.450681 45.0858 0.608419V12.4388C45.0858 12.7318 45.1984 13.0022 45.4012 13.205C45.6041 13.4078 45.8745 13.5205 46.1674 13.5205H57.9978C58.1555 13.5205 58.3133 13.5881 58.426 13.7007C58.5386 13.8134 58.6062 13.9711 58.6062 14.1289V17.4188C58.6062 17.5766 58.5386 17.7343 58.426 17.847C58.3133 17.9597 58.1555 18.0273 57.9978 18.0273H45.6942Z" fill="white"/>
<path d="M65.9837 18.0273C65.8259 18.0273 65.6682 17.9597 65.5555 17.847C65.4429 17.7343 65.3752 17.5766 65.3752 17.4188V14.6021C65.3752 14.0162 64.8795 13.5205 64.2936 13.5205H61.4769C61.3191 13.5205 61.1614 13.4528 61.0487 13.3402C60.936 13.2275 60.8684 13.0698 60.8684 12.912V0.608419C60.8684 0.450681 60.936 0.292942 61.0487 0.180272C61.1614 0.0676014 61.3191 0 61.4769 0H64.7668C64.9246 0 65.0823 0.0676014 65.195 0.180272C65.3076 0.292942 65.3752 0.450681 65.3752 0.608419V12.4388C65.3752 12.7318 65.4879 13.0022 65.6907 13.205C65.8935 13.4078 66.1639 13.5205 66.4569 13.5205H78.2873C78.445 13.5205 78.6028 13.5881 78.7154 13.7007C78.8281 13.8134 78.8957 13.9711 78.8957 14.1289V17.4188C78.8957 17.5766 78.8281 17.7343 78.7154 17.847C78.6028 17.9597 78.445 18.0273 78.2873 18.0273H65.9837Z" fill="white"/>
<path d="M81.7663 18.0273C81.6086 18.0273 81.4509 17.9597 81.3382 17.847C81.2255 17.7343 81.1579 17.5766 81.1579 17.4188V15.0978C81.1579 14.9401 81.2255 14.7824 81.3382 14.6697L95.8276 0.180272C95.9403 0.0676014 96.098 0 96.2558 0H98.5768C98.7345 0 98.8922 0.0676014 99.0049 0.180272C99.1176 0.292942 99.1852 0.450681 99.1852 0.608419V2.92943C99.1852 3.08717 99.1176 3.24491 99.0049 3.35758C98.3965 3.966 96.3459 6.03913 95.2868 7.0757C95.1966 7.18837 95.1516 7.32358 95.2192 7.45878C95.2642 7.61652 95.3995 7.68412 95.5572 7.68412H98.5768C98.7345 7.68412 98.8922 7.75172 99.0049 7.86439C99.1176 7.97707 99.1852 8.1348 99.1852 8.29254V17.4188C99.1852 17.5766 99.1176 17.7343 99.0049 17.847C98.8922 17.9597 98.7345 18.0273 98.5768 18.0273H95.2868C95.129 18.0273 94.9713 17.9597 94.8586 17.847C94.746 17.7343 94.6784 17.5766 94.6784 17.4188V8.56295C94.6784 8.42775 94.5882 8.29254 94.453 8.22494C94.3178 8.17987 94.1601 8.20241 94.0699 8.31508L84.5155 17.847C84.4028 17.9597 84.2451 18.0273 84.0873 18.0273H81.7663Z" fill="white"/>
<path d="M102.056 18.0273C101.898 18.0273 101.74 17.9597 101.628 17.847C101.515 17.7343 101.447 17.5766 101.447 17.4188V5.11524C101.447 4.9575 101.515 4.79976 101.628 4.68709C101.74 4.57442 101.898 4.50682 102.056 4.50682H104.873C105.458 4.50682 105.954 4.01107 105.954 3.42518V0.608419C105.954 0.450681 106.022 0.292942 106.134 0.180272C106.247 0.0676014 106.405 0 106.563 0H118.866C119.024 0 119.182 0.0676014 119.294 0.180272C119.407 0.292942 119.475 0.450681 119.475 0.608419V3.8984C119.475 4.05614 119.407 4.21387 119.294 4.32654C119.182 4.43921 119.024 4.50682 118.866 4.50682H107.036C106.743 4.50682 106.472 4.61949 106.27 4.82229C106.067 5.0251 105.954 5.29551 105.954 5.58845V12.912C105.954 13.25 106.225 13.5205 106.563 13.5205H118.866C119.024 13.5205 119.182 13.5881 119.294 13.7007C119.407 13.8134 119.475 13.9711 119.475 14.1289V17.4188C119.475 17.5766 119.407 17.7343 119.294 17.847C119.182 17.9597 119.024 18.0273 118.866 18.0273H102.056Z" fill="white"/>
<path d="M126.852 18.0273C126.694 18.0273 126.537 17.9597 126.424 17.847C126.311 17.7343 126.244 17.5766 126.244 17.4188V14.6021C126.244 14.0162 125.748 13.5205 125.162 13.5205H122.345C122.188 13.5205 122.03 13.4528 121.917 13.3402C121.804 13.2275 121.737 13.0698 121.737 12.912V8.29254C121.737 8.1348 121.804 7.97707 121.917 7.86439C122.03 7.75172 122.188 7.68412 122.345 7.68412H125.365C125.523 7.68412 125.658 7.61652 125.703 7.45878C125.77 7.32358 125.725 7.18837 125.635 7.0757C124.576 6.03913 122.526 3.966 121.917 3.35758C121.804 3.24491 121.737 3.08717 121.737 2.92943V0.608419C121.737 0.450681 121.804 0.292942 121.917 0.180272C122.03 0.0676014 122.188 0 122.345 0H139.156C139.313 0 139.471 0.0676014 139.584 0.180272C139.697 0.292942 139.764 0.450681 139.764 0.608419V3.8984C139.764 4.05614 139.697 4.21387 139.584 4.32654C139.471 4.43921 139.313 4.50682 139.156 4.50682H130.007C129.917 4.50682 129.827 4.57442 129.782 4.66455C129.759 4.75469 129.782 4.84483 129.849 4.91243L131.517 6.57995C131.629 6.69262 131.765 6.76023 131.945 6.76023H139.156C139.313 6.76023 139.471 6.82783 139.584 6.9405C139.697 7.05317 139.764 7.21091 139.764 7.36864V10.6586C139.764 10.8164 139.697 10.9741 139.584 11.0868C139.471 11.1994 139.313 11.267 139.156 11.267H130.074C129.917 11.267 129.759 11.1994 129.646 11.0868C129.151 10.591 127.708 9.14884 126.852 8.31508C126.762 8.20241 126.604 8.17987 126.469 8.22494C126.334 8.29254 126.244 8.42775 126.244 8.56295V12.4388C126.244 12.7318 126.356 13.0022 126.559 13.205C126.762 13.4078 127.032 13.5205 127.325 13.5205H139.156C139.313 13.5205 139.471 13.5881 139.584 13.7007C139.697 13.8134 139.764 13.9711 139.764 14.1289V17.4188C139.764 17.5766 139.697 17.7343 139.584 17.847C139.471 17.9597 139.313 18.0273 139.156 18.0273H126.852Z" fill="white"/>
<path d="M22.4429 35.4549V27.7453H25.0878C25.8655 27.7453 26.5509 27.9 27.1438 28.2094C27.7367 28.5189 28.1987 28.9642 28.5298 29.5453C28.8609 30.1189 29.0264 30.8095 29.0264 31.617C29.0264 32.4322 28.857 33.1265 28.5182 33.7001C28.1871 34.2737 27.7251 34.7114 27.1322 35.0133C26.5393 35.3077 25.854 35.4549 25.0763 35.4549H22.4429ZM23.7827 34.5831L23.3322 34.2095H24.9954C25.4959 34.2095 25.9425 34.119 26.3353 33.9378C26.7357 33.7492 27.0514 33.4661 27.2824 33.0888C27.5211 32.7039 27.6404 32.2133 27.6404 31.617C27.6404 31.0359 27.5249 30.5529 27.2939 30.168C27.0629 29.7755 26.7472 29.4811 26.3468 29.2849C25.9541 29.0887 25.5075 28.9906 25.007 28.9906H23.2514L23.7827 28.5604V34.5831Z" fill="#83E36B"/>
<path d="M42.4113 32.2057V30.9604H45.6106V32.2057H42.4113ZM42.3766 28.9906L42.7578 28.5151V34.5605L42.3189 34.2095H46.2805V35.4549H41.418V27.7453H46.2805V28.9906H42.3766Z" fill="#83E36B"/>
<path d="M61.3772 35.636C60.9537 35.636 60.5495 35.5756 60.1645 35.4549C59.7795 35.3266 59.4291 35.1265 59.1134 34.8548C58.7977 34.5756 58.5321 34.2095 58.3165 33.7567L59.4022 33.1227C59.6563 33.5605 59.945 33.8812 60.2684 34.085C60.5918 34.2888 60.9807 34.3907 61.435 34.3907C61.8585 34.3907 62.178 34.3001 62.3936 34.119C62.6169 33.9378 62.7286 33.6888 62.7286 33.3718C62.7286 33.1831 62.6785 33.0208 62.5784 32.885C62.486 32.7416 62.3166 32.6095 62.0702 32.4888C61.8315 32.3605 61.4889 32.2435 61.0423 32.1378C60.4263 31.9869 59.945 31.8019 59.5985 31.5831C59.252 31.3567 59.0095 31.0963 58.8709 30.8019C58.7323 30.5 58.663 30.1717 58.663 29.817C58.663 29.3793 58.7669 28.9981 58.9748 28.6736C59.1827 28.349 59.483 28.0924 59.8757 27.9038C60.2684 27.7151 60.7343 27.6207 61.2733 27.6207C61.9124 27.6207 62.4398 27.7415 62.8556 27.983C63.2791 28.2245 63.6295 28.5453 63.9067 28.9453L62.8094 29.6585C62.5861 29.3793 62.3397 29.183 62.0702 29.0698C61.8084 28.9491 61.5351 28.8887 61.2502 28.8887C60.8421 28.8887 60.5302 28.9679 60.3146 29.1264C60.099 29.2774 59.9912 29.5 59.9912 29.7944C59.9912 30.0434 60.0952 30.2585 60.3031 30.4397C60.511 30.6208 60.9152 30.7831 61.5158 30.9265C62.1626 31.085 62.6747 31.2736 63.052 31.4925C63.4293 31.7038 63.6949 31.9642 63.8489 32.2737C64.0106 32.5756 64.0915 32.9378 64.0915 33.3605C64.0915 33.7907 63.9798 34.1756 63.7565 34.5152C63.5332 34.8548 63.2175 35.1265 62.8094 35.3303C62.409 35.5341 61.9316 35.636 61.3772 35.636Z" fill="#83E36B"/>
<path d="M77.8542 35.4549H76.5144V27.7453H77.8542V35.4549Z" fill="#83E36B"/>
<path d="M94.2387 35.5794C93.4379 35.5794 92.7372 35.4096 92.1366 35.0699C91.5437 34.7228 91.0816 34.2511 90.7505 33.6548C90.4194 33.0586 90.2539 32.3831 90.2539 31.6284C90.2539 31.0472 90.3501 30.5151 90.5426 30.0321C90.7428 29.5415 91.02 29.1189 91.3742 28.7641C91.7362 28.4019 92.1597 28.1226 92.6448 27.9264C93.1299 27.7302 93.6612 27.632 94.2387 27.632C95.1319 27.632 95.8672 27.817 96.4447 28.1868C97.0222 28.549 97.4842 29.0472 97.8308 29.6811L96.5602 30.1C96.2368 29.6472 95.8826 29.334 95.4976 29.1604C95.1203 28.9868 94.7007 28.9 94.2387 28.9C93.7382 28.9 93.2916 29.017 92.8989 29.251C92.5062 29.4774 92.1943 29.7944 91.9633 30.2019C91.7323 30.6095 91.6168 31.085 91.6168 31.6284C91.6168 32.1491 91.7323 32.6133 91.9633 33.0208C92.1943 33.4284 92.5062 33.7492 92.8989 33.9831C93.2916 34.2171 93.7343 34.3341 94.2271 34.3341C94.7045 34.3341 95.1357 34.236 95.5207 34.0397C95.9057 33.836 96.2099 33.5605 96.4332 33.2133C96.6642 32.8661 96.7835 32.4661 96.7912 32.0133L97.0684 32.6359H94.1463V31.4246H97.9925C98.0156 31.5152 98.0348 31.617 98.0502 31.7302C98.0656 31.8435 98.0733 31.9529 98.0733 32.0586C98.0733 32.5567 97.9732 33.0208 97.773 33.451C97.5805 33.8737 97.3071 34.2473 96.9529 34.5718C96.6064 34.8888 96.2022 35.1379 95.7402 35.319C95.2782 35.4926 94.7777 35.5794 94.2387 35.5794Z" fill="#83E36B"/>
<path d="M115.845 35.4549L111.04 29.251L111.71 29.0698V35.4549H110.37V27.7453H111.548L116.215 33.768L115.683 33.802V27.7453H117.023V35.4549H115.845Z" fill="#83E36B"/>
</svg>
